<?xml version="1.0" encoding="UTF-8" standalone="no"?>
<!-- Created with Inkscape (http://www.inkscape.org/) -->

<svg
   xmlns:dc="http://purl.org/dc/elements/1.1/"
   xmlns:cc="http://creativecommons.org/ns#"
   xmlns:rdf="http://www.w3.org/1999/02/22-rdf-syntax-ns#"
   xmlns:svg="http://www.w3.org/2000/svg"
   xmlns="http://www.w3.org/2000/svg"
   xmlns:xlink="http://www.w3.org/1999/xlink"
   xmlns:sodipodi="http://sodipodi.sourceforge.net/DTD/sodipodi-0.dtd"
   xmlns:inkscape="http://www.inkscape.org/namespaces/inkscape"
   width="2.5in"
   height="3.5in"
   viewBox="0 0 225 315"
   id="svg2"
   version="1.1"
   inkscape:version="0.91 r13725"
   sodipodi:docname="0 Blofeld.svg">
  <defs
     id="defs4">
    <clipPath
       clipPathUnits="userSpaceOnUse"
       id="clipPath4487">
      <rect
         y="217.06122"
         x="289.86786"
         height="315"
         width="225"
         id="rect4489"
         style="opacity:1;fill:#000000;fill-opacity:1;fill-rule:evenodd;stroke:none;stroke-width:1px;stroke-linecap:butt;stroke-linejoin:miter;stroke-opacity:1" />
    </clipPath>
    <clipPath
       clipPathUnits="userSpaceOnUse"
       id="clipPath4644">
      <rect
         y="217.06122"
         x="289.86786"
         height="315"
         width="225"
         id="rect4646"
         style="opacity:1;fill:#1b3a55;fill-opacity:1;fill-rule:evenodd;stroke:none;stroke-width:1px;stroke-linecap:butt;stroke-linejoin:miter;stroke-opacity:1" />
    </clipPath>
    <filter
       style="color-interpolation-filters:sRGB;"
       inkscape:label="Feather"
       id="filter4169">
      <feGaussianBlur
         stdDeviation="64.59"
         result="blur"
         id="feGaussianBlur4171" />
      <feComposite
         in="SourceGraphic"
         in2="blur"
         operator="atop"
         result="composite1"
         id="feComposite4173" />
      <feComposite
         in2="composite1"
         operator="in"
         result="composite2"
         id="feComposite4175" />
      <feComposite
         in2="composite2"
         operator="in"
         result="composite3"
         id="feComposite4177" />
    </filter>
    <clipPath
       clipPathUnits="userSpaceOnUse"
       id="clipPath4185">
      <rect
         style="opacity:0.21400003;fill:#ff0000;fill-opacity:1"
         id="rect4187"
         width="628.57141"
         height="874.28571"
         x="544.15356"
         y="-656.51019" />
    </clipPath>
    <filter
       style="color-interpolation-filters:sRGB;"
       inkscape:label="Lightness-Contrast"
       id="filter4249">
      <feColorMatrix
         values="9.021 0 0 4.07103 -4.0105 0 9.021 0 4.07103 -4.0105 0 0 9.021 4.07103 -4.0105 0 0 0 1 0"
         id="feColorMatrix4251" />
    </filter>
    <filter
       style="color-interpolation-filters:sRGB;"
       inkscape:label="Feather"
       id="filter4283">
      <feGaussianBlur
         stdDeviation="3.13"
         result="blur"
         id="feGaussianBlur4285" />
      <feComposite
         in="SourceGraphic"
         in2="blur"
         operator="atop"
         result="composite1"
         id="feComposite4287" />
      <feComposite
         in2="composite1"
         operator="in"
         result="composite2"
         id="feComposite4289" />
      <feComposite
         in2="composite2"
         operator="in"
         result="composite3"
         id="feComposite4291" />
    </filter>
    <filter
       style="color-interpolation-filters:sRGB;"
       inkscape:label="Brilliance"
       id="filter4564">
      <feColorMatrix
         values="2.86 -0.3 -0.3 0 0 -0.3 2.86 -0.3 0 0 -0.3 -0.3 2.86 0 0 0 0 0 1 0 "
         id="feColorMatrix4566" />
    </filter>
    <clipPath
       clipPathUnits="userSpaceOnUse"
       id="clipPath5019">
      <rect
         style="opacity:1;fill:#1b3a55;fill-opacity:1;fill-rule:evenodd;stroke:none;stroke-width:1px;stroke-linecap:butt;stroke-linejoin:miter;stroke-opacity:1"
         id="rect5021"
         width="652.47577"
         height="913.46606"
         x="634.9552"
         y="-611.30554" />
    </clipPath>
  </defs>
  <sodipodi:namedview
     id="base"
     pagecolor="#ffffff"
     bordercolor="#666666"
     borderopacity="1.0"
     inkscape:pageopacity="0.0"
     inkscape:pageshadow="2"
     inkscape:zoom="1.979899"
     inkscape:cx="52.068973"
     inkscape:cy="122.48608"
     inkscape:document-units="in"
     inkscape:current-layer="layer1"
     showgrid="false"
     inkscape:window-width="1536"
     inkscape:window-height="801"
     inkscape:window-x="-8"
     inkscape:window-y="-8"
     inkscape:window-maximized="1"
     fit-margin-top="0"
     fit-margin-left="0"
     fit-margin-right="0"
     fit-margin-bottom="0"
     units="in"
     borderlayer="true" />
  <metadata
     id="metadata7">
    <rdf:RDF>
      <cc:Work
         rdf:about="">
        <dc:format>image/svg+xml</dc:format>
        <dc:type
           rdf:resource="http://purl.org/dc/dcmitype/StillImage" />
        <dc:title />
      </cc:Work>
    </rdf:RDF>
  </metadata>
  <g
     inkscape:label="Layer 1"
     inkscape:groupmode="layer"
     id="layer1"
     transform="translate(-289.86786,-217.06122)">
    <g
       id="g4338"
       transform="matrix(0.34484039,0,0,0.34484039,70.909657,427.86407)"
       clip-path="url(#clipPath5019)">
      <image
         clip-path="none"
         width="1920"
         height="804"
         preserveAspectRatio="none"
         xlink:href="file:///C:/Users/spami/Documents/Projects/dead%20drop%20knockoff/Source%20photos/Spectre_-_Blofeld's_scars.png"
         id="image3358"
         x="52.126923"
         y="-612.40094"
         sodipodi:absref="C:\Users\spami\Documents\Projects\dead drop knockoff\Source photos\Spectre_-_Blofeld's_scars.png"
         style="filter:url(#filter4564)" />
      <path
         sodipodi:nodetypes="ccccccssssssccccccccccssscscscscc"
         inkscape:connector-curvature="0"
         id="path4189"
         d="m 275.72597,-824.57289 0,1191.97848 1357.64453,0 0,-1191.97848 z m 549.01952,195.03123 c 0,0 127.14824,-6.31305 179.06141,29.00583 47.1275,32.06301 84.2706,116.16216 88.5563,143.30502 2.1429,13.57143 -0.5904,70.62852 -5.3746,108.33952 0,0 5.0483,32.33734 5.0483,35.19449 0,2.85714 0.047,-7.18731 -7.7374,43.06594 -7.7848,50.25324 -10.3718,97.6569 -23.5176,136.6439 -11.9673,35.491849 -50.8945,101.214215 -50.8945,101.214215 l 44.3399,38.553204 180.697,72.178444 24.5926,94.422847 -757.82916,-1.66892 37.83141,-117.780801 77.17619,-45.08422 42.17619,-35.08422 27.97505,-41.02322 -12.30551,-117.060549 c 0.65515,2.29304 -23.12715,21.57374 -36.63989,9.58747 -25.2499,-22.39753 -32.99516,-49.37679 -43.24793,-83.99138 -2.56973,-8.67573 -6.57296,-33.27743 0.10292,-44.82024 7.76926,-13.43331 26.2693,-7.86399 26.19119,-8.41072 -7.90586,-9.98636 -47.10562,-69.57908 -44.4167,-102.65692 2.05764,-25.31216 23.19191,-71.40375 23.19191,-71.40375 0,0 13.35329,-29.46423 24.72153,-41.93336 10.76673,-11.80935 29.88108,-26.63616 29.88108,-26.63616 0,0 19.16809,-18.07846 25.55058,-22.69373 25.56097,-18.48351 71.63503,-31.9502 71.63503,-31.9502 z"
         style="fill:#380b0b;fill-opacity:1;fill-rule:evenodd;stroke:none;stroke-width:9;stroke-linecap:butt;stroke-linejoin:miter;stroke-miterlimit:4;stroke-dasharray:none;stroke-opacity:1;filter:url(#filter4283)" />
    </g>
    <rect
       style="opacity:1;fill:#e5e6a1;fill-opacity:1;stroke:none;stroke-width:2.78999996;stroke-linecap:round;stroke-linejoin:round;stroke-miterlimit:4;stroke-dasharray:none;stroke-opacity:1"
       id="rect4512"
       width="225"
       height="45"
       x="289.86786"
       y="487.06122" />
    <text
       xml:space="preserve"
       style="font-style:normal;font-weight:normal;font-size:40px;line-height:125%;font-family:sans-serif;text-align:end;letter-spacing:0px;word-spacing:0px;text-anchor:end;fill:#000000;fill-opacity:1;stroke:none;stroke-width:1px;stroke-linecap:butt;stroke-linejoin:miter;stroke-opacity:1"
       x="475.6105"
       y="515.81122"
       id="text4514"
       sodipodi:linespacing="125%"><tspan
         sodipodi:role="line"
         x="475.6105"
         y="515.81122"
         style="font-style:normal;font-variant:normal;font-weight:normal;font-stretch:normal;font-family:'RM Typerighter old';-inkscape-font-specification:'RM Typerighter old';text-align:end;text-anchor:end"
         id="tspan4528">E. S. Blofeld</tspan></text>
    <text
       sodipodi:linespacing="125%"
       id="text4568"
       y="522.52997"
       x="299.59692"
       style="font-style:normal;font-weight:normal;font-size:80px;line-height:125%;font-family:sans-serif;letter-spacing:0px;word-spacing:0px;fill:#bd0000;fill-opacity:1;stroke:none;stroke-width:1px;stroke-linecap:butt;stroke-linejoin:miter;stroke-opacity:1"
       xml:space="preserve"><tspan
         id="tspan4570"
         style="font-style:normal;font-variant:normal;font-weight:normal;font-stretch:normal;font-size:80px;font-family:'RM Typerighter old';-inkscape-font-specification:'RM Typerighter old';fill:#bd0000;fill-opacity:1"
         y="522.52997"
         x="299.59692"
         sodipodi:role="line">0.</tspan></text>
    <g
       id="g4976"
       transform="matrix(0,-0.11778208,0.11778208,0,415.16337,320.72202)">
      <path
         id="path4561"
         d="m 511.96094,380.6543 c -35.25412,0 -63.9698,67.37536 -64.26172,150.45117 l 128.5293,0 C 575.9325,448.02966 547.21506,380.6543 511.96094,380.6543 Z"
         style="fill:#898989;fill-opacity:1"
         inkscape:connector-curvature="0" />
      <path
         d="m 442.76172,807.33008 1.76367,1.77148 134.58399,0 1.88476,-1.77148 -138.23242,0 z m -1.81641,-14.08399 0,11.49805 142.0293,0 0,-11.49805 -5.92969,0 -130.16992,0 -5.92969,0 z m 8.49024,-13.06836 0,10.50586 125.04687,0 0,-10.50586 -125.04687,0 z m -7.08985,-11.75585 6.47461,9.19531 126.2793,0 6.48242,-9.19531 -139.23633,0 z m 0.84375,-234.75586 -2.01562,232.19531 141.58008,0 -2.00782,-232.19531 -1.95703,0 -133.65429,0 -1.94532,0 z"
         style="fill:#a99e55;fill-opacity:1"
         id="rect4523"
         inkscape:connector-curvature="0" />
      <path
         d="m 511.96152,378.09408 c -36.66662,0 -66.51093,68.52367 -66.81105,153.01198 l -4.50126,0 -2.05268,236.43553 8.27834,11.76349 0,11.37939 -8.49037,0 0,15.86834 5.07742,5.10969 136.65504,0 5.41749,-5.08152 0,-15.89651 -8.49037,0 0,-11.37939 8.28244,-11.76349 -2.0404,-236.43553 -4.51303,0 C 578.47246,446.61775 548.62405,378.09408 511.96152,378.09408 Z m 67.14702,431.00769 -134.58238,0 -1.76434,-1.77254 138.23142,0 -1.8847,1.77254 z m 3.86517,-15.85657 0,11.49922 -142.02848,0 0,-11.49922 5.92964,0 130.16921,0 5.92963,0 z m -133.53811,-2.56073 0,-10.5072 125.04775,0 0,10.5072 -125.04775,0 z m 125.66386,-13.06794 -126.27997,0 -6.47405,-9.19456 139.23575,0 -6.48173,9.19456 z m 5.6459,-243.94974 2.00864,232.19444 -141.58086,0 2.01683,-232.19444 1.94462,0 133.65438,0 1.95639,0 z m -4.51764,-2.56073 -128.52881,0 c 0.29192,-83.07581 29.00849,-150.45125 64.26261,-150.45125 35.25412,0 63.97018,67.37544 64.2662,150.45125 z"
         id="path258"
         inkscape:connector-curvature="0"
         style="fill:#212120;fill-opacity:1" />
    </g>
    <g
       transform="matrix(0,-0.11778208,0.11778208,0,415.16337,346.87483)"
       id="g4981">
      <path
         inkscape:connector-curvature="0"
         style="fill:#898989;fill-opacity:1"
         d="m 511.96094,380.6543 c -35.25412,0 -63.9698,67.37536 -64.26172,150.45117 l 128.5293,0 C 575.9325,448.02966 547.21506,380.6543 511.96094,380.6543 Z"
         id="path4983" />
      <path
         inkscape:connector-curvature="0"
         id="path4985"
         style="fill:#a99e55;fill-opacity:1"
         d="m 442.76172,807.33008 1.76367,1.77148 134.58399,0 1.88476,-1.77148 -138.23242,0 z m -1.81641,-14.08399 0,11.49805 142.0293,0 0,-11.49805 -5.92969,0 -130.16992,0 -5.92969,0 z m 8.49024,-13.06836 0,10.50586 125.04687,0 0,-10.50586 -125.04687,0 z m -7.08985,-11.75585 6.47461,9.19531 126.2793,0 6.48242,-9.19531 -139.23633,0 z m 0.84375,-234.75586 -2.01562,232.19531 141.58008,0 -2.00782,-232.19531 -1.95703,0 -133.65429,0 -1.94532,0 z" />
      <path
         style="fill:#212120;fill-opacity:1"
         inkscape:connector-curvature="0"
         id="path4987"
         d="m 511.96152,378.09408 c -36.66662,0 -66.51093,68.52367 -66.81105,153.01198 l -4.50126,0 -2.05268,236.43553 8.27834,11.76349 0,11.37939 -8.49037,0 0,15.86834 5.07742,5.10969 136.65504,0 5.41749,-5.08152 0,-15.89651 -8.49037,0 0,-11.37939 8.28244,-11.76349 -2.0404,-236.43553 -4.51303,0 C 578.47246,446.61775 548.62405,378.09408 511.96152,378.09408 Z m 67.14702,431.00769 -134.58238,0 -1.76434,-1.77254 138.23142,0 -1.8847,1.77254 z m 3.86517,-15.85657 0,11.49922 -142.02848,0 0,-11.49922 5.92964,0 130.16921,0 5.92963,0 z m -133.53811,-2.56073 0,-10.5072 125.04775,0 0,10.5072 -125.04775,0 z m 125.66386,-13.06794 -126.27997,0 -6.47405,-9.19456 139.23575,0 -6.48173,9.19456 z m 5.6459,-243.94974 2.00864,232.19444 -141.58086,0 2.01683,-232.19444 1.94462,0 133.65438,0 1.95639,0 z m -4.51764,-2.56073 -128.52881,0 c 0.29192,-83.07581 29.00849,-150.45125 64.26261,-150.45125 35.25412,0 63.97018,67.37544 64.2662,150.45125 z" />
    </g>
    <g
       id="g4989"
       transform="matrix(0,-0.11778208,0.11778208,0,415.16337,373.02768)">
      <path
         id="path4991"
         d="m 511.96094,380.6543 c -35.25412,0 -63.9698,67.37536 -64.26172,150.45117 l 128.5293,0 C 575.9325,448.02966 547.21506,380.6543 511.96094,380.6543 Z"
         style="fill:#898989;fill-opacity:1"
         inkscape:connector-curvature="0" />
      <path
         d="m 442.76172,807.33008 1.76367,1.77148 134.58399,0 1.88476,-1.77148 -138.23242,0 z m -1.81641,-14.08399 0,11.49805 142.0293,0 0,-11.49805 -5.92969,0 -130.16992,0 -5.92969,0 z m 8.49024,-13.06836 0,10.50586 125.04687,0 0,-10.50586 -125.04687,0 z m -7.08985,-11.75585 6.47461,9.19531 126.2793,0 6.48242,-9.19531 -139.23633,0 z m 0.84375,-234.75586 -2.01562,232.19531 141.58008,0 -2.00782,-232.19531 -1.95703,0 -133.65429,0 -1.94532,0 z"
         style="fill:#a99e55;fill-opacity:1"
         id="path4993"
         inkscape:connector-curvature="0" />
      <path
         d="m 511.96152,378.09408 c -36.66662,0 -66.51093,68.52367 -66.81105,153.01198 l -4.50126,0 -2.05268,236.43553 8.27834,11.76349 0,11.37939 -8.49037,0 0,15.86834 5.07742,5.10969 136.65504,0 5.41749,-5.08152 0,-15.89651 -8.49037,0 0,-11.37939 8.28244,-11.76349 -2.0404,-236.43553 -4.51303,0 C 578.47246,446.61775 548.62405,378.09408 511.96152,378.09408 Z m 67.14702,431.00769 -134.58238,0 -1.76434,-1.77254 138.23142,0 -1.8847,1.77254 z m 3.86517,-15.85657 0,11.49922 -142.02848,0 0,-11.49922 5.92964,0 130.16921,0 5.92963,0 z m -133.53811,-2.56073 0,-10.5072 125.04775,0 0,10.5072 -125.04775,0 z m 125.66386,-13.06794 -126.27997,0 -6.47405,-9.19456 139.23575,0 -6.48173,9.19456 z m 5.6459,-243.94974 2.00864,232.19444 -141.58086,0 2.01683,-232.19444 1.94462,0 133.65438,0 1.95639,0 z m -4.51764,-2.56073 -128.52881,0 c 0.29192,-83.07581 29.00849,-150.45125 64.26261,-150.45125 35.25412,0 63.97018,67.37544 64.2662,150.45125 z"
         id="path4995"
         inkscape:connector-curvature="0"
         style="fill:#212120;fill-opacity:1" />
    </g>
    <g
       transform="matrix(0,-0.11778208,0.11778208,0,415.16337,399.18049)"
       id="g4997">
      <path
         inkscape:connector-curvature="0"
         style="fill:#898989;fill-opacity:1"
         d="m 511.96094,380.6543 c -35.25412,0 -63.9698,67.37536 -64.26172,150.45117 l 128.5293,0 C 575.9325,448.02966 547.21506,380.6543 511.96094,380.6543 Z"
         id="path4999" />
      <path
         inkscape:connector-curvature="0"
         id="path5001"
         style="fill:#a99e55;fill-opacity:1"
         d="m 442.76172,807.33008 1.76367,1.77148 134.58399,0 1.88476,-1.77148 -138.23242,0 z m -1.81641,-14.08399 0,11.49805 142.0293,0 0,-11.49805 -5.92969,0 -130.16992,0 -5.92969,0 z m 8.49024,-13.06836 0,10.50586 125.04687,0 0,-10.50586 -125.04687,0 z m -7.08985,-11.75585 6.47461,9.19531 126.2793,0 6.48242,-9.19531 -139.23633,0 z m 0.84375,-234.75586 -2.01562,232.19531 141.58008,0 -2.00782,-232.19531 -1.95703,0 -133.65429,0 -1.94532,0 z" />
      <path
         style="fill:#212120;fill-opacity:1"
         inkscape:connector-curvature="0"
         id="path5003"
         d="m 511.96152,378.09408 c -36.66662,0 -66.51093,68.52367 -66.81105,153.01198 l -4.50126,0 -2.05268,236.43553 8.27834,11.76349 0,11.37939 -8.49037,0 0,15.86834 5.07742,5.10969 136.65504,0 5.41749,-5.08152 0,-15.89651 -8.49037,0 0,-11.37939 8.28244,-11.76349 -2.0404,-236.43553 -4.51303,0 C 578.47246,446.61775 548.62405,378.09408 511.96152,378.09408 Z m 67.14702,431.00769 -134.58238,0 -1.76434,-1.77254 138.23142,0 -1.8847,1.77254 z m 3.86517,-15.85657 0,11.49922 -142.02848,0 0,-11.49922 5.92964,0 130.16921,0 5.92963,0 z m -133.53811,-2.56073 0,-10.5072 125.04775,0 0,10.5072 -125.04775,0 z m 125.66386,-13.06794 -126.27997,0 -6.47405,-9.19456 139.23575,0 -6.48173,9.19456 z m 5.6459,-243.94974 2.00864,232.19444 -141.58086,0 2.01683,-232.19444 1.94462,0 133.65438,0 1.95639,0 z m -4.51764,-2.56073 -128.52881,0 c 0.29192,-83.07581 29.00849,-150.45125 64.26261,-150.45125 35.25412,0 63.97018,67.37544 64.2662,150.45125 z" />
    </g>
    <g
       id="g5005"
       transform="matrix(0,-0.11778208,0.11778208,0,415.16337,294.56919)">
      <path
         id="path5007"
         d="m 511.96094,380.6543 c -35.25412,0 -63.9698,67.37536 -64.26172,150.45117 l 128.5293,0 C 575.9325,448.02966 547.21506,380.6543 511.96094,380.6543 Z"
         style="fill:#898989;fill-opacity:1"
         inkscape:connector-curvature="0" />
      <path
         d="m 442.76172,807.33008 1.76367,1.77148 134.58399,0 1.88476,-1.77148 -138.23242,0 z m -1.81641,-14.08399 0,11.49805 142.0293,0 0,-11.49805 -5.92969,0 -130.16992,0 -5.92969,0 z m 8.49024,-13.06836 0,10.50586 125.04687,0 0,-10.50586 -125.04687,0 z m -7.08985,-11.75585 6.47461,9.19531 126.2793,0 6.48242,-9.19531 -139.23633,0 z m 0.84375,-234.75586 -2.01562,232.19531 141.58008,0 -2.00782,-232.19531 -1.95703,0 -133.65429,0 -1.94532,0 z"
         style="fill:#a99e55;fill-opacity:1"
         id="path5009"
         inkscape:connector-curvature="0" />
      <path
         d="m 511.96152,378.09408 c -36.66662,0 -66.51093,68.52367 -66.81105,153.01198 l -4.50126,0 -2.05268,236.43553 8.27834,11.76349 0,11.37939 -8.49037,0 0,15.86834 5.07742,5.10969 136.65504,0 5.41749,-5.08152 0,-15.89651 -8.49037,0 0,-11.37939 8.28244,-11.76349 -2.0404,-236.43553 -4.51303,0 C 578.47246,446.61775 548.62405,378.09408 511.96152,378.09408 Z m 67.14702,431.00769 -134.58238,0 -1.76434,-1.77254 138.23142,0 -1.8847,1.77254 z m 3.86517,-15.85657 0,11.49922 -142.02848,0 0,-11.49922 5.92964,0 130.16921,0 5.92963,0 z m -133.53811,-2.56073 0,-10.5072 125.04775,0 0,10.5072 -125.04775,0 z m 125.66386,-13.06794 -126.27997,0 -6.47405,-9.19456 139.23575,0 -6.48173,9.19456 z m 5.6459,-243.94974 2.00864,232.19444 -141.58086,0 2.01683,-232.19444 1.94462,0 133.65438,0 1.95639,0 z m -4.51764,-2.56073 -128.52881,0 c 0.29192,-83.07581 29.00849,-150.45125 64.26261,-150.45125 35.25412,0 63.97018,67.37544 64.2662,150.45125 z"
         id="path5011"
         inkscape:connector-curvature="0"
         style="fill:#212120;fill-opacity:1" />
    </g>
  </g>
</svg>
