<?xml version="1.0" encoding="UTF-8" standalone="no"?>
<!-- Created with Inkscape (http://www.inkscape.org/) -->

<svg
   xmlns:dc="http://purl.org/dc/elements/1.1/"
   xmlns:cc="http://creativecommons.org/ns#"
   xmlns:rdf="http://www.w3.org/1999/02/22-rdf-syntax-ns#"
   xmlns:svg="http://www.w3.org/2000/svg"
   xmlns="http://www.w3.org/2000/svg"
   xmlns:xlink="http://www.w3.org/1999/xlink"
   xmlns:sodipodi="http://sodipodi.sourceforge.net/DTD/sodipodi-0.dtd"
   xmlns:inkscape="http://www.inkscape.org/namespaces/inkscape"
   width="2.5in"
   height="3.5in"
   viewBox="0 0 225 315"
   id="svg2"
   version="1.1"
   inkscape:version="0.91 r13725"
   sodipodi:docname="1 Dr Swann.svg">
  <defs
     id="defs4">
    <clipPath
       clipPathUnits="userSpaceOnUse"
       id="clipPath4487">
      <rect
         y="217.06122"
         x="289.86786"
         height="315"
         width="225"
         id="rect4489"
         style="opacity:1;fill:#000000;fill-opacity:1;fill-rule:evenodd;stroke:none;stroke-width:1px;stroke-linecap:butt;stroke-linejoin:miter;stroke-opacity:1" />
    </clipPath>
    <clipPath
       clipPathUnits="userSpaceOnUse"
       id="clipPath4644">
      <rect
         y="217.06122"
         x="289.86786"
         height="315"
         width="225"
         id="rect4646"
         style="opacity:1;fill:#1b3a55;fill-opacity:1;fill-rule:evenodd;stroke:none;stroke-width:1px;stroke-linecap:butt;stroke-linejoin:miter;stroke-opacity:1" />
    </clipPath>
    <clipPath
       id="clipPath4487-7"
       clipPathUnits="userSpaceOnUse">
      <rect
         style="opacity:1;fill:#000000;fill-opacity:1;fill-rule:evenodd;stroke:none;stroke-width:1px;stroke-linecap:butt;stroke-linejoin:miter;stroke-opacity:1"
         id="rect4489-1"
         width="225"
         height="315"
         x="289.86786"
         y="217.06122" />
    </clipPath>
    <clipPath
       id="clipPath4644-9"
       clipPathUnits="userSpaceOnUse">
      <rect
         style="opacity:1;fill:#1b3a55;fill-opacity:1;fill-rule:evenodd;stroke:none;stroke-width:1px;stroke-linecap:butt;stroke-linejoin:miter;stroke-opacity:1"
         id="rect4646-0"
         width="225"
         height="315"
         x="289.86786"
         y="217.06122" />
    </clipPath>
    <filter
       id="filter4169"
       inkscape:label="Feather"
       style="color-interpolation-filters:sRGB;">
      <feGaussianBlur
         id="feGaussianBlur4171"
         result="blur"
         stdDeviation="64.59" />
      <feComposite
         id="feComposite4173"
         result="composite1"
         operator="atop"
         in2="blur"
         in="SourceGraphic" />
      <feComposite
         id="feComposite4175"
         result="composite2"
         operator="in"
         in2="composite1" />
      <feComposite
         id="feComposite4177"
         result="composite3"
         operator="in"
         in2="composite2" />
    </filter>
    <clipPath
       id="clipPath4185"
       clipPathUnits="userSpaceOnUse">
      <rect
         y="-656.51019"
         x="544.15356"
         height="874.28571"
         width="628.57141"
         id="rect4187"
         style="opacity:0.21400003;fill:#ff0000;fill-opacity:1" />
    </clipPath>
    <filter
       id="filter4249"
       inkscape:label="Lightness-Contrast"
       style="color-interpolation-filters:sRGB;">
      <feColorMatrix
         id="feColorMatrix4251"
         values="9.021 0 0 4.07103 -4.0105 0 9.021 0 4.07103 -4.0105 0 0 9.021 4.07103 -4.0105 0 0 0 1 0" />
    </filter>
    <filter
       id="filter4283"
       inkscape:label="Feather"
       style="color-interpolation-filters:sRGB;">
      <feGaussianBlur
         id="feGaussianBlur4285"
         result="blur"
         stdDeviation="3.13" />
      <feComposite
         id="feComposite4287"
         result="composite1"
         operator="atop"
         in2="blur"
         in="SourceGraphic" />
      <feComposite
         id="feComposite4289"
         result="composite2"
         operator="in"
         in2="composite1" />
      <feComposite
         id="feComposite4291"
         result="composite3"
         operator="in"
         in2="composite2" />
    </filter>
    <filter
       id="filter4564"
       inkscape:label="Brilliance"
       style="color-interpolation-filters:sRGB;">
      <feColorMatrix
         id="feColorMatrix4566"
         values="2.86 -0.3 -0.3 0 0 -0.3 2.86 -0.3 0 0 -0.3 -0.3 2.86 0 0 0 0 0 1 0 " />
    </filter>
    <clipPath
       id="clipPath5019"
       clipPathUnits="userSpaceOnUse">
      <rect
         y="-611.30554"
         x="634.9552"
         height="913.46606"
         width="652.47577"
         id="rect5021"
         style="opacity:1;fill:#1b3a55;fill-opacity:1;fill-rule:evenodd;stroke:none;stroke-width:1px;stroke-linecap:butt;stroke-linejoin:miter;stroke-opacity:1" />
    </clipPath>
    <filter
       style="color-interpolation-filters:sRGB;"
       inkscape:label="Feather"
       id="filter4316">
      <feGaussianBlur
         stdDeviation="5"
         result="blur"
         id="feGaussianBlur4318" />
      <feComposite
         in="SourceGraphic"
         in2="blur"
         operator="atop"
         result="composite1"
         id="feComposite4320" />
      <feComposite
         in2="composite1"
         operator="in"
         result="composite2"
         id="feComposite4322" />
      <feComposite
         in2="composite2"
         operator="in"
         result="composite3"
         id="feComposite4324" />
    </filter>
    <clipPath
       clipPathUnits="userSpaceOnUse"
       id="clipPath4330">
      <rect
         style="opacity:1;fill:#1b3a55;fill-opacity:1;fill-rule:evenodd;stroke:none;stroke-width:1px;stroke-linecap:butt;stroke-linejoin:miter;stroke-opacity:1"
         id="rect4332"
         width="613.42303"
         height="858.79224"
         x="-961.33923"
         y="-323.92175" />
    </clipPath>
    <clipPath
       id="clipPath5019-2"
       clipPathUnits="userSpaceOnUse">
      <rect
         y="-611.30554"
         x="634.9552"
         height="913.46606"
         width="652.47577"
         id="rect5021-4"
         style="opacity:1;fill:#1b3a55;fill-opacity:1;fill-rule:evenodd;stroke:none;stroke-width:1px;stroke-linecap:butt;stroke-linejoin:miter;stroke-opacity:1" />
    </clipPath>
    <filter
       id="filter4564-0"
       inkscape:label="Brilliance"
       style="color-interpolation-filters:sRGB">
      <feColorMatrix
         id="feColorMatrix4566-8"
         values="2.86 -0.3 -0.3 0 0 -0.3 2.86 -0.3 0 0 -0.3 -0.3 2.86 0 0 0 0 0 1 0 " />
    </filter>
    <filter
       id="filter4283-3"
       inkscape:label="Feather"
       style="color-interpolation-filters:sRGB">
      <feGaussianBlur
         id="feGaussianBlur4285-8"
         result="blur"
         stdDeviation="3.13" />
      <feComposite
         id="feComposite4287-4"
         result="composite1"
         operator="atop"
         in2="blur"
         in="SourceGraphic" />
      <feComposite
         id="feComposite4289-2"
         result="composite2"
         operator="in"
         in2="composite1" />
      <feComposite
         id="feComposite4291-5"
         result="composite3"
         operator="in"
         in2="composite2" />
    </filter>
  </defs>
  <sodipodi:namedview
     id="base"
     pagecolor="#ffffff"
     bordercolor="#666666"
     borderopacity="1.0"
     inkscape:pageopacity="0.0"
     inkscape:pageshadow="2"
     inkscape:zoom="0.98994949"
     inkscape:cx="215.92689"
     inkscape:cy="27.659447"
     inkscape:document-units="in"
     inkscape:current-layer="layer1"
     showgrid="false"
     inkscape:window-width="1536"
     inkscape:window-height="801"
     inkscape:window-x="-8"
     inkscape:window-y="-8"
     inkscape:window-maximized="1"
     fit-margin-top="0"
     fit-margin-left="0"
     fit-margin-right="0"
     fit-margin-bottom="0"
     units="in"
     borderlayer="true" />
  <metadata
     id="metadata7">
    <rdf:RDF>
      <cc:Work
         rdf:about="">
        <dc:format>image/svg+xml</dc:format>
        <dc:type
           rdf:resource="http://purl.org/dc/dcmitype/StillImage" />
        <dc:title></dc:title>
      </cc:Work>
    </rdf:RDF>
  </metadata>
  <g
     inkscape:label="Layer 1"
     inkscape:groupmode="layer"
     id="layer1"
     transform="translate(-289.86786,-217.06122)">
    <g
       id="g4326"
       transform="matrix(0.36679419,0,0,0.36679419,642.48151,335.87384)"
       clip-path="url(#clipPath4330)">
      <image
         width="1280"
         height="1897"
         preserveAspectRatio="none"
         xlink:href="file:///C:/Users/spami/Documents/Projects/dead%20drop%20knockoff/Source%20photos/james-bond-girl-spectre-look-lea-seydoux-grey-dusty-satin-silk-maxi-dress-poster.jpg"
         id="image3511"
         x="-1352.2035"
         y="-404.31696"
         sodipodi:absref="C:\Users\spami\Documents\Projects\dead drop knockoff\Source photos\james-bond-girl-spectre-look-lea-seydoux-grey-dusty-satin-silk-maxi-dress-poster.jpg" />
      <path
         sodipodi:nodetypes="cccccccccsccsscccsssscccssccscsccscsssscsscscsscsscscsscsssscccccssssssssss"
         inkscape:connector-curvature="0"
         id="path3514"
         d="m -44.41786,494.91836 0,-957.14286 -1357.14284,0 0,920.00001 c 160.1694,0 330.3388,2.32143 490.50816,2.32143 l 2.85192,-15.73517 -4.35964,-158.8338 -0.84433,-46.68366 0.25251,-28.28427 c 0,0 -1.54582,-8.51758 -0.0306,-18.6191 1.5153,-10.10153 3.17314,-23.13635 6.20364,-28.69219 3.0304,-5.55584 10.53258,-21.27972 10.53258,-21.27972 0,0 0.4924,-9.21393 6.5533,-22.85099 6.061,-13.63706 14.51204,-26.720456 19.31024,-33.538986 4.7982,-6.81853 23.44269,-23.942541 26.47319,-28.488231 3.0304,-4.54568 10.5939,-20.256893 10.5939,-20.256893 l -13.43388,-5.624389 c 0,0 -0.94731,2.25417 -4.27153,5.017334 -4.25071,3.53329 -12.47797,-1.643589 -17.34903,-4.249473 -7.36937,-3.942407 -18.55594,-15.6883 -18.36681,-23.3209613 0.0834,-3.3678021 -0.97281,-13.3169557 3.53067,-18.6899997 8.06882,-9.6268 21.58619,-16.101162 21.58619,-16.101162 0,0 -6.65794,-4.606968 -8.42574,-11.678028 -1.7677,-7.07107 17.1346,-31.906469 17.1346,-31.906469 0,0 -15.86442,-20.738764 -9.29842,-36.143592 6.566,-15.40482 8.01997,-17.124 12.81817,-23.18492 4.7982,-6.06091 10.0761,-10.19343 10.0761,-10.19343 l 18.65719,-44.78066 c 0,0 3.89274,-19.65247 11.72134,-30.51161 7.8287,-10.85914 44.41087,-45.32905 44.41087,-45.32905 0,0 19.34086,-14.54261 36.00836,-19.84591 16.6675,-5.3033 25.35314,-2.53064 25.35314,-2.53064 l 11.86929,0.87491 c 0,0 6.56599,-2.02031 11.86929,-1.76777 5.3033,0.25254 16.16244,6.56599 16.16244,6.56599 0,0 18.68782,-0.25253 30.80965,2.52539 12.12183,2.77792 40.03101,27.36603 49.37492,35.19471 9.34392,7.82868 15.94798,34.25853 18.97844,43.09736 3.03045,8.83884 3.55566,27.75381 5.8285,41.39087 2.27285,13.63706 -1.2141,29.97808 -1.2141,29.97808 0,0 22.0644,7.11117 25.35098,14.99909 4.38263,10.518481 3.05584,17.144139 -1.74239,22.447439 -4.79822,5.3033 -14.75399,11.134879 -14.75399,11.134879 0,0 5.3033,7.32361 6.06092,14.89975 0.75761,7.57615 -7.82869,16.16244 -7.82869,16.16244 0,0 -2.75779,12.060561 -4.77809,18.374011 -2.02031,6.31345 -7.22061,10.179274 -17.46847,14.863852 -6.97449,3.1882286 -22.44525,5.7217213 -22.44525,5.7217213 0,0 4.22605,22.7289437 2.80143,28.8469147 -1.32063,5.671424 -3.32106,23.886514 -10.13959,27.422044 -6.81853,3.53554 -17.3725,1.14386 -17.3725,1.14386 0,0 10.59916,20.759791 13.62962,28.841011 3.03046,8.08122 7.12708,29.375828 7.12708,29.375828 0,0 18.5399,26.11603 21.82289,38.99547 3.283,12.87945 7.55076,22.2667 10.83376,28.58015 3.283,6.31345 16.81019,39.57452 16.81019,39.57452 0,0 8.74437,28.13025 11.26704,34.61567 1.68332,4.32758 -0.49182,31.01806 -2.46935,41.44907 -1.70972,9.01834 -17.79497,30.72299 -19.05766,31.98569 -1.2627,1.26269 -1.76251,10.86439 -1.00489,19.95576 0.75761,9.09137 13.12454,33.59809 13.12454,33.59809 l 23.86858,49.48696 21.938,49.41825 459.61941,14.14214 z m -508.54391,-608.77944 c 4.34038,0.20547 13.62066,0.43482 12.6105,7.25335 -1.01015,6.81853 -7.19733,8.340104 -10.10152,8.213835 -2.90419,-0.126269 -10.2278,-4.425765 -8.5863,-9.602795 1.6415,-5.17703 1.98621,-6.05806 6.07732,-5.86439 z m -23.45015,61.294973 c 5.08052,0.670551 14.21683,11.077626 12.97136,15.532634 -1.76183,6.302005 -13.48199,14.360424 -18.90754,14.531457 -7.26427,0.228997 -16.25808,-12.267587 -14.36404,-17.697157 1.89403,-5.42957 14.47743,-13.135452 20.30022,-12.366934 z"
         style="fill:#1b3a55;fill-opacity:1;fill-rule:evenodd;stroke:none;stroke-width:1px;stroke-linecap:butt;stroke-linejoin:miter;stroke-opacity:1;filter:url(#filter4316)" />
    </g>
    <rect
       style="opacity:1;fill:#e5e6a1;fill-opacity:1;stroke:none;stroke-width:2.78999996;stroke-linecap:round;stroke-linejoin:round;stroke-miterlimit:4;stroke-dasharray:none;stroke-opacity:1"
       id="rect4512-7"
       width="225"
       height="45"
       x="289.86786"
       y="487.06122" />
    <text
       sodipodi:linespacing="125%"
       id="text4568"
       y="522.52997"
       x="299.59692"
       style="font-style:normal;font-weight:normal;font-size:80px;line-height:125%;font-family:sans-serif;letter-spacing:0px;word-spacing:0px;fill:#bd0000;fill-opacity:1;stroke:none;stroke-width:1px;stroke-linecap:butt;stroke-linejoin:miter;stroke-opacity:1"
       xml:space="preserve"><tspan
         id="tspan4570"
         style="font-style:normal;font-variant:normal;font-weight:normal;font-stretch:normal;font-size:80px;font-family:'RM Typerighter old';-inkscape-font-specification:'RM Typerighter old';fill:#bd0000;fill-opacity:1"
         y="522.52997"
         x="299.59692"
         sodipodi:role="line">1.</tspan></text>
    <g
       id="g4976"
       transform="matrix(0,-0.11778208,0.11778208,0,415.16337,320.72201)">
      <path
         id="path4561"
         d="m 511.96094,380.6543 c -35.25412,0 -63.9698,67.37536 -64.26172,150.45117 l 128.5293,0 C 575.9325,448.02966 547.21506,380.6543 511.96094,380.6543 Z"
         style="fill:#898989;fill-opacity:1"
         inkscape:connector-curvature="0" />
      <path
         d="m 442.76172,807.33008 1.76367,1.77148 134.58399,0 1.88476,-1.77148 -138.23242,0 z m -1.81641,-14.08399 0,11.49805 142.0293,0 0,-11.49805 -5.92969,0 -130.16992,0 -5.92969,0 z m 8.49024,-13.06836 0,10.50586 125.04687,0 0,-10.50586 -125.04687,0 z m -7.08985,-11.75585 6.47461,9.19531 126.2793,0 6.48242,-9.19531 -139.23633,0 z m 0.84375,-234.75586 -2.01562,232.19531 141.58008,0 -2.00782,-232.19531 -1.95703,0 -133.65429,0 -1.94532,0 z"
         style="fill:#a99e55;fill-opacity:1"
         id="rect4523"
         inkscape:connector-curvature="0" />
      <path
         d="m 511.96152,378.09408 c -36.66662,0 -66.51093,68.52367 -66.81105,153.01198 l -4.50126,0 -2.05268,236.43553 8.27834,11.76349 0,11.37939 -8.49037,0 0,15.86834 5.07742,5.10969 136.65504,0 5.41749,-5.08152 0,-15.89651 -8.49037,0 0,-11.37939 8.28244,-11.76349 -2.0404,-236.43553 -4.51303,0 C 578.47246,446.61775 548.62405,378.09408 511.96152,378.09408 Z m 67.14702,431.00769 -134.58238,0 -1.76434,-1.77254 138.23142,0 -1.8847,1.77254 z m 3.86517,-15.85657 0,11.49922 -142.02848,0 0,-11.49922 5.92964,0 130.16921,0 5.92963,0 z m -133.53811,-2.56073 0,-10.5072 125.04775,0 0,10.5072 -125.04775,0 z m 125.66386,-13.06794 -126.27997,0 -6.47405,-9.19456 139.23575,0 -6.48173,9.19456 z m 5.6459,-243.94974 2.00864,232.19444 -141.58086,0 2.01683,-232.19444 1.94462,0 133.65438,0 1.95639,0 z m -4.51764,-2.56073 -128.52881,0 c 0.29192,-83.07581 29.00849,-150.45125 64.26261,-150.45125 35.25412,0 63.97018,67.37544 64.2662,150.45125 z"
         id="path258"
         inkscape:connector-curvature="0"
         style="fill:#212120;fill-opacity:1" />
    </g>
    <g
       transform="matrix(0,-0.11778208,0.11778208,0,415.16337,346.87482)"
       id="g4981">
      <path
         inkscape:connector-curvature="0"
         style="fill:#898989;fill-opacity:1"
         d="m 511.96094,380.6543 c -35.25412,0 -63.9698,67.37536 -64.26172,150.45117 l 128.5293,0 C 575.9325,448.02966 547.21506,380.6543 511.96094,380.6543 Z"
         id="path4983" />
      <path
         inkscape:connector-curvature="0"
         id="path4985"
         style="fill:#a99e55;fill-opacity:1"
         d="m 442.76172,807.33008 1.76367,1.77148 134.58399,0 1.88476,-1.77148 -138.23242,0 z m -1.81641,-14.08399 0,11.49805 142.0293,0 0,-11.49805 -5.92969,0 -130.16992,0 -5.92969,0 z m 8.49024,-13.06836 0,10.50586 125.04687,0 0,-10.50586 -125.04687,0 z m -7.08985,-11.75585 6.47461,9.19531 126.2793,0 6.48242,-9.19531 -139.23633,0 z m 0.84375,-234.75586 -2.01562,232.19531 141.58008,0 -2.00782,-232.19531 -1.95703,0 -133.65429,0 -1.94532,0 z" />
      <path
         style="fill:#212120;fill-opacity:1"
         inkscape:connector-curvature="0"
         id="path4987"
         d="m 511.96152,378.09408 c -36.66662,0 -66.51093,68.52367 -66.81105,153.01198 l -4.50126,0 -2.05268,236.43553 8.27834,11.76349 0,11.37939 -8.49037,0 0,15.86834 5.07742,5.10969 136.65504,0 5.41749,-5.08152 0,-15.89651 -8.49037,0 0,-11.37939 8.28244,-11.76349 -2.0404,-236.43553 -4.51303,0 C 578.47246,446.61775 548.62405,378.09408 511.96152,378.09408 Z m 67.14702,431.00769 -134.58238,0 -1.76434,-1.77254 138.23142,0 -1.8847,1.77254 z m 3.86517,-15.85657 0,11.49922 -142.02848,0 0,-11.49922 5.92964,0 130.16921,0 5.92963,0 z m -133.53811,-2.56073 0,-10.5072 125.04775,0 0,10.5072 -125.04775,0 z m 125.66386,-13.06794 -126.27997,0 -6.47405,-9.19456 139.23575,0 -6.48173,9.19456 z m 5.6459,-243.94974 2.00864,232.19444 -141.58086,0 2.01683,-232.19444 1.94462,0 133.65438,0 1.95639,0 z m -4.51764,-2.56073 -128.52881,0 c 0.29192,-83.07581 29.00849,-150.45125 64.26261,-150.45125 35.25412,0 63.97018,67.37544 64.2662,150.45125 z" />
    </g>
    <g
       id="g5005"
       transform="matrix(0,-0.11778208,0.11778208,0,415.16337,294.56918)">
      <path
         id="path5007"
         d="m 511.96094,380.6543 c -35.25412,0 -63.9698,67.37536 -64.26172,150.45117 l 128.5293,0 C 575.9325,448.02966 547.21506,380.6543 511.96094,380.6543 Z"
         style="fill:#898989;fill-opacity:1"
         inkscape:connector-curvature="0" />
      <path
         d="m 442.76172,807.33008 1.76367,1.77148 134.58399,0 1.88476,-1.77148 -138.23242,0 z m -1.81641,-14.08399 0,11.49805 142.0293,0 0,-11.49805 -5.92969,0 -130.16992,0 -5.92969,0 z m 8.49024,-13.06836 0,10.50586 125.04687,0 0,-10.50586 -125.04687,0 z m -7.08985,-11.75585 6.47461,9.19531 126.2793,0 6.48242,-9.19531 -139.23633,0 z m 0.84375,-234.75586 -2.01562,232.19531 141.58008,0 -2.00782,-232.19531 -1.95703,0 -133.65429,0 -1.94532,0 z"
         style="fill:#a99e55;fill-opacity:1"
         id="path5009"
         inkscape:connector-curvature="0" />
      <path
         d="m 511.96152,378.09408 c -36.66662,0 -66.51093,68.52367 -66.81105,153.01198 l -4.50126,0 -2.05268,236.43553 8.27834,11.76349 0,11.37939 -8.49037,0 0,15.86834 5.07742,5.10969 136.65504,0 5.41749,-5.08152 0,-15.89651 -8.49037,0 0,-11.37939 8.28244,-11.76349 -2.0404,-236.43553 -4.51303,0 C 578.47246,446.61775 548.62405,378.09408 511.96152,378.09408 Z m 67.14702,431.00769 -134.58238,0 -1.76434,-1.77254 138.23142,0 -1.8847,1.77254 z m 3.86517,-15.85657 0,11.49922 -142.02848,0 0,-11.49922 5.92964,0 130.16921,0 5.92963,0 z m -133.53811,-2.56073 0,-10.5072 125.04775,0 0,10.5072 -125.04775,0 z m 125.66386,-13.06794 -126.27997,0 -6.47405,-9.19456 139.23575,0 -6.48173,9.19456 z m 5.6459,-243.94974 2.00864,232.19444 -141.58086,0 2.01683,-232.19444 1.94462,0 133.65438,0 1.95639,0 z m -4.51764,-2.56073 -128.52881,0 c 0.29192,-83.07581 29.00849,-150.45125 64.26261,-150.45125 35.25412,0 63.97018,67.37544 64.2662,150.45125 z"
         id="path5011"
         inkscape:connector-curvature="0"
         style="fill:#212120;fill-opacity:1" />
    </g>
    <text
       xml:space="preserve"
       style="font-style:normal;font-weight:normal;font-size:40px;line-height:125%;font-family:sans-serif;text-align:end;letter-spacing:0px;word-spacing:0px;text-anchor:end;fill:#000000;fill-opacity:1;stroke:none;stroke-width:1px;stroke-linecap:butt;stroke-linejoin:miter;stroke-opacity:1"
       x="475.6105"
       y="515.81122"
       id="text4514-68"
       sodipodi:linespacing="125%"><tspan
         sodipodi:role="line"
         x="475.6105"
         y="515.81122"
         style="font-style:normal;font-variant:normal;font-weight:normal;font-stretch:normal;font-family:'RM Typerighter old';-inkscape-font-specification:'RM Typerighter old';text-align:end;text-anchor:end"
         id="tspan4528-57">Dr. M. Swann</tspan></text>
  </g>
</svg>
