<?xml version="1.0" encoding="UTF-8" standalone="no"?>
<!-- Created with Inkscape (http://www.inkscape.org/) -->

<svg
   xmlns:dc="http://purl.org/dc/elements/1.1/"
   xmlns:cc="http://creativecommons.org/ns#"
   xmlns:rdf="http://www.w3.org/1999/02/22-rdf-syntax-ns#"
   xmlns:svg="http://www.w3.org/2000/svg"
   xmlns="http://www.w3.org/2000/svg"
   xmlns:xlink="http://www.w3.org/1999/xlink"
   xmlns:sodipodi="http://sodipodi.sourceforge.net/DTD/sodipodi-0.dtd"
   xmlns:inkscape="http://www.inkscape.org/namespaces/inkscape"
   width="2.5in"
   height="3.5in"
   viewBox="0 0 225 315"
   id="svg2"
   version="1.1"
   inkscape:version="0.91 r13725"
   sodipodi:docname="1 Dr Swann.svg">
  <defs
     id="defs4">
    <clipPath
       clipPathUnits="userSpaceOnUse"
       id="clipPath4487">
      <rect
         y="217.06122"
         x="289.86786"
         height="315"
         width="225"
         id="rect4489"
         style="opacity:1;fill:#000000;fill-opacity:1;fill-rule:evenodd;stroke:none;stroke-width:1px;stroke-linecap:butt;stroke-linejoin:miter;stroke-opacity:1" />
    </clipPath>
    <clipPath
       clipPathUnits="userSpaceOnUse"
       id="clipPath4644">
      <rect
         y="217.06122"
         x="289.86786"
         height="315"
         width="225"
         id="rect4646"
         style="opacity:1;fill:#1b3a55;fill-opacity:1;fill-rule:evenodd;stroke:none;stroke-width:1px;stroke-linecap:butt;stroke-linejoin:miter;stroke-opacity:1" />
    </clipPath>
    <clipPath
       id="clipPath4487-7"
       clipPathUnits="userSpaceOnUse">
      <rect
         style="opacity:1;fill:#000000;fill-opacity:1;fill-rule:evenodd;stroke:none;stroke-width:1px;stroke-linecap:butt;stroke-linejoin:miter;stroke-opacity:1"
         id="rect4489-1"
         width="225"
         height="315"
         x="289.86786"
         y="217.06122" />
    </clipPath>
    <clipPath
       id="clipPath4644-9"
       clipPathUnits="userSpaceOnUse">
      <rect
         style="opacity:1;fill:#1b3a55;fill-opacity:1;fill-rule:evenodd;stroke:none;stroke-width:1px;stroke-linecap:butt;stroke-linejoin:miter;stroke-opacity:1"
         id="rect4646-0"
         width="225"
         height="315"
         x="289.86786"
         y="217.06122" />
    </clipPath>
    <filter
       id="filter4169"
       inkscape:label="Feather"
       style="color-interpolation-filters:sRGB;">
      <feGaussianBlur
         id="feGaussianBlur4171"
         result="blur"
         stdDeviation="64.59" />
      <feComposite
         id="feComposite4173"
         result="composite1"
         operator="atop"
         in2="blur"
         in="SourceGraphic" />
      <feComposite
         id="feComposite4175"
         result="composite2"
         operator="in"
         in2="composite1" />
      <feComposite
         id="feComposite4177"
         result="composite3"
         operator="in"
         in2="composite2" />
    </filter>
    <clipPath
       id="clipPath4185"
       clipPathUnits="userSpaceOnUse">
      <rect
         y="-656.51019"
         x="544.15356"
         height="874.28571"
         width="628.57141"
         id="rect4187"
         style="opacity:0.21400003;fill:#ff0000;fill-opacity:1" />
    </clipPath>
    <filter
       id="filter4249"
       inkscape:label="Lightness-Contrast"
       style="color-interpolation-filters:sRGB;">
      <feColorMatrix
         id="feColorMatrix4251"
         values="9.021 0 0 4.07103 -4.0105 0 9.021 0 4.07103 -4.0105 0 0 9.021 4.07103 -4.0105 0 0 0 1 0" />
    </filter>
    <filter
       id="filter4283"
       inkscape:label="Feather"
       style="color-interpolation-filters:sRGB;">
      <feGaussianBlur
         id="feGaussianBlur4285"
         result="blur"
         stdDeviation="3.13" />
      <feComposite
         id="feComposite4287"
         result="composite1"
         operator="atop"
         in2="blur"
         in="SourceGraphic" />
      <feComposite
         id="feComposite4289"
         result="composite2"
         operator="in"
         in2="composite1" />
      <feComposite
         id="feComposite4291"
         result="composite3"
         operator="in"
         in2="composite2" />
    </filter>
    <filter
       id="filter4564"
       inkscape:label="Brilliance"
       style="color-interpolation-filters:sRGB;">
      <feColorMatrix
         id="feColorMatrix4566"
         values="2.86 -0.3 -0.3 0 0 -0.3 2.86 -0.3 0 0 -0.3 -0.3 2.86 0 0 0 0 0 1 0 " />
    </filter>
    <clipPath
       id="clipPath5019"
       clipPathUnits="userSpaceOnUse">
      <rect
         y="-611.30554"
         x="634.9552"
         height="913.46606"
         width="652.47577"
         id="rect5021"
         style="opacity:1;fill:#1b3a55;fill-opacity:1;fill-rule:evenodd;stroke:none;stroke-width:1px;stroke-linecap:butt;stroke-linejoin:miter;stroke-opacity:1" />
    </clipPath>
    <filter
       style="color-interpolation-filters:sRGB;"
       inkscape:label="Feather"
       id="filter4316">
      <feGaussianBlur
         stdDeviation="5"
         result="blur"
         id="feGaussianBlur4318" />
      <feComposite
         in="SourceGraphic"
         in2="blur"
         operator="atop"
         result="composite1"
         id="feComposite4320" />
      <feComposite
         in2="composite1"
         operator="in"
         result="composite2"
         id="feComposite4322" />
      <feComposite
         in2="composite2"
         operator="in"
         result="composite3"
         id="feComposite4324" />
    </filter>
    <clipPath
       id="clipPath5019-2"
       clipPathUnits="userSpaceOnUse">
      <rect
         y="-611.30554"
         x="634.9552"
         height="913.46606"
         width="652.47577"
         id="rect5021-4"
         style="opacity:1;fill:#1b3a55;fill-opacity:1;fill-rule:evenodd;stroke:none;stroke-width:1px;stroke-linecap:butt;stroke-linejoin:miter;stroke-opacity:1" />
    </clipPath>
    <filter
       id="filter4564-0"
       inkscape:label="Brilliance"
       style="color-interpolation-filters:sRGB">
      <feColorMatrix
         id="feColorMatrix4566-8"
         values="2.86 -0.3 -0.3 0 0 -0.3 2.86 -0.3 0 0 -0.3 -0.3 2.86 0 0 0 0 0 1 0 " />
    </filter>
    <filter
       id="filter4283-3"
       inkscape:label="Feather"
       style="color-interpolation-filters:sRGB">
      <feGaussianBlur
         id="feGaussianBlur4285-8"
         result="blur"
         stdDeviation="3.13" />
      <feComposite
         id="feComposite4287-4"
         result="composite1"
         operator="atop"
         in2="blur"
         in="SourceGraphic" />
      <feComposite
         id="feComposite4289-2"
         result="composite2"
         operator="in"
         in2="composite1" />
      <feComposite
         id="feComposite4291-5"
         result="composite3"
         operator="in"
         in2="composite2" />
    </filter>
    <linearGradient
       inkscape:collect="always"
       xlink:href="#linearGradient4192"
       id="linearGradient4208"
       gradientUnits="userSpaceOnUse"
       gradientTransform="matrix(1.4961402,0,0,1.4961402,-85.832907,-256.13506)"
       x1="125.95902"
       y1="244.12636"
       x2="125.11707"
       y2="267.63766" />
    <linearGradient
       inkscape:collect="always"
       id="linearGradient4192">
      <stop
         style="stop-color:#888a85;stop-opacity:1;"
         offset="0"
         id="stop4194" />
      <stop
         style="stop-color:#888a85;stop-opacity:0;"
         offset="1"
         id="stop4196" />
    </linearGradient>
    <linearGradient
       inkscape:collect="always"
       xlink:href="#linearGradient4089"
       id="linearGradient4303"
       gradientUnits="userSpaceOnUse"
       x1="111.26731"
       y1="255.70152"
       x2="120.72295"
       y2="269.10541" />
    <linearGradient
       inkscape:collect="always"
       id="linearGradient4089">
      <stop
         style="stop-color:#636a72;stop-opacity:1;"
         offset="0"
         id="stop4091" />
      <stop
         id="stop4097"
         offset="0.41579732"
         style="stop-color:#636a72;stop-opacity:1" />
      <stop
         style="stop-color:#c4c4c6;stop-opacity:1"
         offset="0.51492357"
         id="stop4099" />
      <stop
         style="stop-color:#e7e7e7;stop-opacity:1"
         offset="1"
         id="stop4093" />
    </linearGradient>
    <filter
       inkscape:collect="always"
       id="filter4141">
      <feGaussianBlur
         inkscape:collect="always"
         stdDeviation="0.35044037"
         id="feGaussianBlur4143" />
    </filter>
    <linearGradient
       inkscape:collect="always"
       xlink:href="#linearGradient4089"
       id="linearGradient4307"
       gradientUnits="userSpaceOnUse"
       x1="111.26731"
       y1="255.70152"
       x2="120.72295"
       y2="269.10541" />
    <linearGradient
       inkscape:collect="always"
       xlink:href="#linearGradient4089"
       id="linearGradient4309"
       gradientUnits="userSpaceOnUse"
       x1="111.26731"
       y1="255.70152"
       x2="120.72295"
       y2="269.10541" />
    <clipPath
       id="clipPath4487-4"
       clipPathUnits="userSpaceOnUse">
      <rect
         style="opacity:1;fill:#000000;fill-opacity:1;fill-rule:evenodd;stroke:none;stroke-width:1px;stroke-linecap:butt;stroke-linejoin:miter;stroke-opacity:1"
         id="rect4489-8"
         width="225"
         height="315"
         x="289.86786"
         y="217.06122" />
    </clipPath>
    <clipPath
       id="clipPath4644-7"
       clipPathUnits="userSpaceOnUse">
      <rect
         style="opacity:1;fill:#1b3a55;fill-opacity:1;fill-rule:evenodd;stroke:none;stroke-width:1px;stroke-linecap:butt;stroke-linejoin:miter;stroke-opacity:1"
         id="rect4646-08"
         width="225"
         height="315"
         x="289.86786"
         y="217.06122" />
    </clipPath>
    <filter
       id="filter4169-4"
       inkscape:label="Feather"
       style="color-interpolation-filters:sRGB;">
      <feGaussianBlur
         id="feGaussianBlur4171-5"
         result="blur"
         stdDeviation="64.59" />
      <feComposite
         id="feComposite4173-8"
         result="composite1"
         operator="atop"
         in2="blur"
         in="SourceGraphic" />
      <feComposite
         id="feComposite4175-5"
         result="composite2"
         operator="in"
         in2="composite1" />
      <feComposite
         id="feComposite4177-6"
         result="composite3"
         operator="in"
         in2="composite2" />
    </filter>
    <clipPath
       id="clipPath4185-5"
       clipPathUnits="userSpaceOnUse">
      <rect
         y="-656.51019"
         x="544.15356"
         height="874.28571"
         width="628.57141"
         id="rect4187-3"
         style="opacity:0.21400003;fill:#ff0000;fill-opacity:1" />
    </clipPath>
    <filter
       id="filter4249-6"
       inkscape:label="Lightness-Contrast"
       style="color-interpolation-filters:sRGB;">
      <feColorMatrix
         id="feColorMatrix4251-2"
         values="9.021 0 0 4.07103 -4.0105 0 9.021 0 4.07103 -4.0105 0 0 9.021 4.07103 -4.0105 0 0 0 1 0" />
    </filter>
    <filter
       id="filter4283-6"
       inkscape:label="Feather"
       style="color-interpolation-filters:sRGB;">
      <feGaussianBlur
         id="feGaussianBlur4285-85"
         result="blur"
         stdDeviation="3.13" />
      <feComposite
         id="feComposite4287-8"
         result="composite1"
         operator="atop"
         in2="blur"
         in="SourceGraphic" />
      <feComposite
         id="feComposite4289-29"
         result="composite2"
         operator="in"
         in2="composite1" />
      <feComposite
         id="feComposite4291-0"
         result="composite3"
         operator="in"
         in2="composite2" />
    </filter>
    <filter
       id="filter4564-5"
       inkscape:label="Brilliance"
       style="color-interpolation-filters:sRGB;">
      <feColorMatrix
         id="feColorMatrix4566-7"
         values="2.86 -0.3 -0.3 0 0 -0.3 2.86 -0.3 0 0 -0.3 -0.3 2.86 0 0 0 0 0 1 0 " />
    </filter>
    <linearGradient
       y2="267.63766"
       x2="125.11707"
       y1="244.12636"
       x1="125.95902"
       gradientTransform="matrix(1.4961402,0,0,1.4961402,-85.832907,-256.13506)"
       gradientUnits="userSpaceOnUse"
       id="linearGradient4310"
       xlink:href="#linearGradient4192"
       inkscape:collect="always" />
    <linearGradient
       y2="269.10541"
       x2="120.72295"
       y1="255.70152"
       x1="111.26731"
       gradientUnits="userSpaceOnUse"
       id="linearGradient4313"
       xlink:href="#linearGradient4089"
       inkscape:collect="always" />
    <clipPath
       id="clipPath4205"
       clipPathUnits="userSpaceOnUse">
      <path
         sodipodi:nodetypes="sscsccsss"
         inkscape:connector-curvature="0"
         id="path4207"
         d="m 705.17632,-533.42049 c 29.48692,-8.24346 39.18231,-23.97989 85.6858,-32.43511 46.50346,-8.45521 72.80845,-3.28812 83.61228,-7.51586 10.80383,-4.22747 46.03373,-3.75767 55.8981,-15.501 9.86438,-11.74334 12.21304,-20.66836 12.21304,-20.66836 l -177.55868,0 c 0,0 -18.31956,7.04605 -32.88124,16.91043 -14.56171,9.86437 -57.17177,30.23311 -58.7165,37.42148 -3.28813,15.30135 20.08773,25.04813 31.7472,21.78842 z"
         style="fill:#000000;fill-opacity:1;fill-rule:evenodd;stroke:#000000;stroke-width:2.63049912px;stroke-linecap:butt;stroke-linejoin:miter;stroke-opacity:1" />
    </clipPath>
    <filter
       id="filter4282"
       inkscape:label="Feather"
       style="color-interpolation-filters:sRGB;">
      <feGaussianBlur
         id="feGaussianBlur4284"
         result="blur"
         stdDeviation="1.05156" />
      <feComposite
         id="feComposite4286"
         result="composite1"
         operator="atop"
         in2="blur"
         in="SourceGraphic" />
      <feComposite
         id="feComposite4288"
         result="composite2"
         operator="in"
         in2="composite1" />
      <feComposite
         id="feComposite4290"
         result="composite3"
         operator="in"
         in2="composite2" />
    </filter>
    <clipPath
       id="clipPath4410"
       clipPathUnits="userSpaceOnUse">
      <rect
         y="217.06122"
         x="289.86786"
         height="315"
         width="225"
         id="rect4412"
         style="opacity:1;fill:#1b3a55;fill-opacity:1;fill-rule:evenodd;stroke:none;stroke-width:1px;stroke-linecap:butt;stroke-linejoin:miter;stroke-opacity:1" />
    </clipPath>
    <clipPath
       clipPathUnits="userSpaceOnUse"
       id="clipPath4389">
      <rect
         style="opacity:1;fill:#2d78ba;fill-opacity:1;fill-rule:evenodd;stroke:none;stroke-width:1px;stroke-linecap:butt;stroke-linejoin:miter;stroke-opacity:1"
         id="rect4391"
         width="467.20328"
         height="654.08459"
         x="-974.54822"
         y="-336.55505" />
    </clipPath>
  </defs>
  <sodipodi:namedview
     id="base"
     pagecolor="#ffffff"
     bordercolor="#666666"
     borderopacity="1.0"
     inkscape:pageopacity="0.0"
     inkscape:pageshadow="2"
     inkscape:zoom="1.4"
     inkscape:cx="233.041"
     inkscape:cy="175.2569"
     inkscape:document-units="in"
     inkscape:current-layer="layer1"
     showgrid="false"
     inkscape:window-width="1536"
     inkscape:window-height="801"
     inkscape:window-x="-8"
     inkscape:window-y="-8"
     inkscape:window-maximized="1"
     fit-margin-top="0"
     fit-margin-left="0"
     fit-margin-right="0"
     fit-margin-bottom="0"
     units="in"
     borderlayer="true" />
  <metadata
     id="metadata7">
    <rdf:RDF>
      <cc:Work
         rdf:about="">
        <dc:format>image/svg+xml</dc:format>
        <dc:type
           rdf:resource="http://purl.org/dc/dcmitype/StillImage" />
        <dc:title />
      </cc:Work>
    </rdf:RDF>
  </metadata>
  <g
     inkscape:label="Layer 1"
     inkscape:groupmode="layer"
     id="layer1"
     transform="translate(-289.86786,-217.06122)">
    <g
       id="g4326"
       transform="matrix(0.48158908,0,0,0.48158908,759.19965,379.14246)"
       clip-path="url(#clipPath4389)"
       style="fill:#2d78ba;fill-opacity:1">
      <image
         width="1280"
         height="1897"
         preserveAspectRatio="none"
         xlink:href="file:///../Source%20photos/james-bond-girl-spectre-look-lea-seydoux-grey-dusty-satin-silk-maxi-dress-poster.jpg"
         id="image3511"
         x="-1352.2035"
         y="-404.31696"
         sodipodi:absref="..\Source photos\james-bond-girl-spectre-look-lea-seydoux-grey-dusty-satin-silk-maxi-dress-poster.jpg"
         style="fill:#2d78ba;fill-opacity:1" />
      <path
         sodipodi:nodetypes="cccccccccsccsscccsssscccssccscsccscsssscsscscsscsscscsscsssscccccssssssssss"
         inkscape:connector-curvature="0"
         id="path3514"
         d="m -44.41786,494.91836 0,-957.14286 -1357.14284,0 0,920.00001 c 160.1694,0 330.3388,2.32143 490.50816,2.32143 l 2.85192,-15.73517 -4.35964,-158.8338 -0.84433,-46.68366 0.25251,-28.28427 c 0,0 -1.54582,-8.51758 -0.0306,-18.6191 1.5153,-10.10153 3.17314,-23.13635 6.20364,-28.69219 3.0304,-5.55584 10.53258,-21.27972 10.53258,-21.27972 0,0 0.4924,-9.21393 6.5533,-22.85099 6.061,-13.63706 14.51204,-26.720456 19.31024,-33.538986 4.7982,-6.81853 23.44269,-23.942541 26.47319,-28.488231 3.0304,-4.54568 10.5939,-20.256893 10.5939,-20.256893 l -13.43388,-5.624389 c 0,0 -0.94731,2.25417 -4.27153,5.017334 -4.25071,3.53329 -12.47797,-1.643589 -17.34903,-4.249473 -7.36937,-3.942407 -18.55594,-15.6883 -18.36681,-23.3209613 0.0834,-3.3678021 -0.97281,-13.3169557 3.53067,-18.6899997 8.06882,-9.6268 21.58619,-16.101162 21.58619,-16.101162 0,0 -6.65794,-4.606968 -8.42574,-11.678028 -1.7677,-7.07107 17.1346,-31.906469 17.1346,-31.906469 0,0 -15.86442,-20.738764 -9.29842,-36.143592 6.566,-15.40482 8.01997,-17.124 12.81817,-23.18492 4.7982,-6.06091 10.0761,-10.19343 10.0761,-10.19343 l 18.65719,-44.78066 c 0,0 3.89274,-19.65247 11.72134,-30.51161 7.8287,-10.85914 44.41087,-45.32905 44.41087,-45.32905 0,0 19.34086,-14.54261 36.00836,-19.84591 16.6675,-5.3033 25.35314,-2.53064 25.35314,-2.53064 l 11.86929,0.87491 c 0,0 6.56599,-2.02031 11.86929,-1.76777 5.3033,0.25254 16.16244,6.56599 16.16244,6.56599 0,0 18.68782,-0.25253 30.80965,2.52539 12.12183,2.77792 40.03101,27.36603 49.37492,35.19471 9.34392,7.82868 15.94798,34.25853 18.97844,43.09736 3.03045,8.83884 3.55566,27.75381 5.8285,41.39087 2.27285,13.63706 -1.2141,29.97808 -1.2141,29.97808 0,0 22.0644,7.11117 25.35098,14.99909 4.38263,10.518481 3.05584,17.144139 -1.74239,22.447439 -4.79822,5.3033 -14.75399,11.134879 -14.75399,11.134879 0,0 5.3033,7.32361 6.06092,14.89975 0.75761,7.57615 -7.82869,16.16244 -7.82869,16.16244 0,0 -2.75779,12.060561 -4.77809,18.374011 -2.02031,6.31345 -7.22061,10.179274 -17.46847,14.863852 -6.97449,3.1882286 -22.44525,5.7217213 -22.44525,5.7217213 0,0 4.22605,22.7289437 2.80143,28.8469147 -1.32063,5.671424 -3.32106,23.886514 -10.13959,27.422044 -6.81853,3.53554 -17.3725,1.14386 -17.3725,1.14386 0,0 10.59916,20.759791 13.62962,28.841011 3.03046,8.08122 7.12708,29.375828 7.12708,29.375828 0,0 18.5399,26.11603 21.82289,38.99547 3.283,12.87945 7.55076,22.2667 10.83376,28.58015 3.283,6.31345 16.81019,39.57452 16.81019,39.57452 0,0 8.74437,28.13025 11.26704,34.61567 1.68332,4.32758 -0.49182,31.01806 -2.46935,41.44907 -1.70972,9.01834 -17.79497,30.72299 -19.05766,31.98569 -1.2627,1.26269 -1.76251,10.86439 -1.00489,19.95576 0.75761,9.09137 13.12454,33.59809 13.12454,33.59809 l 23.86858,49.48696 21.938,49.41825 459.61941,14.14214 z m -508.54391,-608.77944 c 4.34038,0.20547 13.62066,0.43482 12.6105,7.25335 -1.01015,6.81853 -7.19733,8.340104 -10.10152,8.213835 -2.90419,-0.126269 -10.2278,-4.425765 -8.5863,-9.602795 1.6415,-5.17703 1.98621,-6.05806 6.07732,-5.86439 z m -23.45015,61.294973 c 5.08052,0.670551 14.21683,11.077626 12.97136,15.532634 -1.76183,6.302005 -13.48199,14.360424 -18.90754,14.531457 -7.26427,0.228997 -16.25808,-12.267587 -14.36404,-17.697157 1.89403,-5.42957 14.47743,-13.135452 20.30022,-12.366934 z"
         style="fill:#2d78ba;fill-opacity:1;fill-rule:evenodd;stroke:none;stroke-width:1px;stroke-linecap:butt;stroke-linejoin:miter;stroke-opacity:1;filter:url(#filter4316)" />
    </g>
    <text
       sodipodi:linespacing="125%"
       id="text4568-2"
       y="270.07233"
       x="312.11176"
       style="font-style:normal;font-weight:normal;font-size:80px;line-height:125%;font-family:sans-serif;letter-spacing:0px;word-spacing:0px;fill:#000000;fill-opacity:1;stroke:none;stroke-width:1px;stroke-linecap:butt;stroke-linejoin:miter;stroke-opacity:1"
       xml:space="preserve"><tspan
         id="tspan4570-7"
         style="font-style:normal;font-variant:normal;font-weight:normal;font-stretch:normal;font-size:80px;font-family:'RM Typerighter old';-inkscape-font-specification:'RM Typerighter old';fill:#000000;fill-opacity:1"
         y="270.07233"
         x="312.11176"
         sodipodi:role="line">1</tspan></text>
    <g
       id="g4194"
       transform="matrix(0.26127115,0,0,0.26127115,290.64097,303.67221)">
      <path
         style="opacity:1;fill:#c4c4c4;fill-opacity:1;fill-rule:nonzero;stroke:url(#linearGradient4208);stroke-width:0.44884208;stroke-linecap:round;stroke-linejoin:round;stroke-miterlimit:4;stroke-dasharray:none;stroke-dashoffset:0;stroke-opacity:1"
         d="m 77.293128,105.22955 c -2.665,4.76895 -5.33,9.53789 -7.994999,14.30684 -3.459824,-3.6936 -6.919649,-7.38719 -10.379473,-11.08079 2.384474,6.31184 4.768947,12.62368 7.15342,18.93553 -2.258992,2.45311 -7.671039,4.71261 -8.305135,6.84065 2.866783,-0.004 7.344584,0.69466 5.278356,4.64744 -0.821404,4.42021 2.368238,8.9961 2.030979,12.79031 -2.506282,1.99726 -3.864242,5.70846 0.688269,5.15874 2.727134,-0.0966 6.420775,1.41497 4.29874,4.66237 -0.727588,2.45206 -2.418511,8.1761 2.13966,5.62572 3.83724,-0.49901 8.332917,-3.05502 11.7953,-2.07675 1.706766,4.34645 -0.754728,9.02793 -0.231154,13.54689 1.260004,-1.45371 2.260024,-4.49689 3.445267,-6.53727 1.457405,-2.05913 2.012308,-5.89361 4.073181,-6.7656 3.767446,-0.29719 9.242531,-4.76534 11.027881,1.05374 0.69249,1.83955 3.03277,5.14465 2.58149,0.86293 -0.9079,-4.90372 0.89237,-9.32129 4.49494,-12.61309 1.16678,-2.84132 5.68489,-1.41871 6.27078,-1.65039 -0.34434,-1.35942 3.38195,0.33977 1.30954,-1.60003 -2.36706,-1.06219 -6.01028,-5.63663 -1.0722,-5.53569 4.72644,0.003 9.45353,-0.13854 14.18085,-0.22252 -5.2209,-2.02603 -10.44181,-4.05204 -15.66271,-6.07807 0.83541,-1.15717 5.09501,-3.26027 1.24356,-3.01674 -1.28224,-1.96764 5.50624,-2.24396 7.17522,-3.70003 1.2919,-0.26051 4.80109,-1.70753 1.38063,-1.60259 -3.78906,-0.8607 -8.82897,-0.3767 -11.83391,-2.08037 0.15428,-3.93971 4.34051,-6.19234 5.47325,-9.76362 -3.29278,-0.45879 -6.9874,1.34647 -10.48119,1.03653 -1.84316,-1.22028 3.2533,-3.59045 4.67057,-4.67056 1.30389,-0.8063 4.80969,-3.23187 1.31423,-1.97401 -3.34108,0.82927 -6.57139,2.13668 -9.91277,2.79888 -3.05893,-2.23673 -1.2316,-7.61425 -4.040668,-10.264 -2.560045,1.26015 -5.615104,6.33501 -7.934465,5.26792 0.299512,-2.24598 -1.806589,-3.93323 -3.41277,-1.73596 -0.496928,-2.75816 -1.285335,3.25655 -3.3337,2.68881 -4.079062,0.84901 -4.567162,-5.39504 -7.421648,-7.24283 l -0.0093,-0.0124 z"
         id="path4202"
         inkscape:connector-curvature="0" />
      <ellipse
         style="opacity:1;fill:url(#linearGradient4307);fill-opacity:1;fill-rule:nonzero;stroke:none;stroke-width:0.5;stroke-linecap:round;stroke-linejoin:round;stroke-miterlimit:4;stroke-dasharray:none;stroke-dashoffset:0;stroke-opacity:1;filter:url(#filter4141)"
         id="path4204"
         transform="matrix(2.3575641,0,0,1.9449905,-183.03995,-372.18568)"
         cx="115.915"
         cy="261.91782"
         rx="8.3337584"
         ry="10.101525" />
      <path
         id="path4173"
         d="m 92.778461,121.53917 -3.646841,3.08579 c -0.809581,0.0809 -1.624794,0.2996 -2.384474,0.5143 l -0.280526,-2.33772 -0.607807,2.57149 -0.841579,-1.63641 0.514298,1.77667 c -1.175984,0.45517 -2.245915,1.08725 -3.226052,1.82342 l -3.272806,-1.6364 1.309122,3.41307 c -0.333516,0.37951 -0.64931,0.79805 -0.935087,1.21561 l -0.467544,-0.18702 0.467544,0.28053 c -0.979362,1.45616 -1.717001,3.1269 -2.010439,4.90921 l -1.309122,0.56105 -0.607807,0.18702 0.04675,0.0468 -0.233772,0.0935 1.963684,0.79483 c -0.0026,0.10302 0,0.17692 0,0.28052 -4e-6,3.10466 1.158192,5.97334 3.085789,8.18202 l -0.701316,1.49614 1.542895,-0.60781 c 0.527107,0.49868 1.122431,0.95053 1.729912,1.35588 1.716924,2.85915 4.824107,4.76895 8.369034,4.76895 1.932356,0 3.718707,-0.56316 5.236491,-1.5429 l 1.262368,1.16886 -0.74807,-1.54289 c 1.448511,-1.07281 2.581832,-2.50438 3.272814,-4.2079 l 0.93508,0.65457 -0.79482,-1.0286 c 0.062,-0.17285 0.13445,-0.33714 0.18702,-0.5143 0.036,-0.0439 0.0576,-0.098 0.0935,-0.14026 l 0.32728,0.14026 -0.18702,-0.23377 c 0.62447,-0.7554 1.10476,-1.59879 1.54289,-2.47798 l 6.03132,-0.0935 -5.18974,-2.05719 c 0.29611,-1.05574 0.46755,-2.17442 0.46755,-3.31957 0,-0.3581 -0.0165,-0.72471 -0.0468,-1.07535 l 2.85202,-1.07535 -3.03904,-0.42079 c -0.36894,-1.72945 -1.13075,-3.32586 -2.1507,-4.72219 l 0.93509,-1.40263 -1.91693,0.23377 c -0.34347,-0.36871 -0.689783,-0.69581 -1.075354,-1.0286 l 0.561053,-1.1221 -0.561053,-0.0467 1.729914,-1.26237 -3.646843,1.07535 c -1.134161,-0.66276 -2.370245,-1.18325 -3.693596,-1.49614 l 1.028596,-1.5429 -1.262368,0.88834 -0.654562,-2.75851 z"
         style="opacity:1;fill:#232126;fill-opacity:1;fill-rule:nonzero;stroke:none;stroke-width:0.5;stroke-linecap:round;stroke-linejoin:round;stroke-miterlimit:4;stroke-dasharray:none;stroke-dashoffset:0;stroke-opacity:1"
         inkscape:connector-curvature="0" />
    </g>
    <g
       id="g4177"
       transform="matrix(0.22062366,0.13995647,-0.13995647,0.22062366,244.42063,228.95131)">
      <path
         id="path4341"
         d="m 339.50133,31.209705 c 0.9724,5.08544 9.39208,16.81678 -1.5957,15.49482 -4.15422,-3.072907 -12.23987,-0.432983 -5.4183,3.689168 6.00319,6.370415 -3.93827,11.863643 -0.97262,18.601795 -1.44091,8.125043 -11.31625,9.932755 -17.48219,13.413061 -1.35479,4.406672 7.3897,-2.138433 10.19114,-1.442219 2.15845,-2.622943 3.60079,1.563661 6.63643,-2.282571 7.16212,1.053746 8.85474,10.492371 16.06031,12.483823 3.79076,3.162287 1.29663,15.525448 6.47292,13.596668 -0.14422,-5.9715 3.51576,-14.019298 10.8113,-11.759662 4.58618,-1.447486 10.02001,-5.336942 13.50124,-1.501257 -0.0105,-6.333027 2.8895,-13.936127 10.39239,-13.95441 -8.94237,-5.774742 6.83072,-10.315617 10.65436,-13.052671 -3.71303,-3.668176 -15.94977,0.869931 -16.37557,-8.781176 -1.50473,-6.592936 14.57161,-0.481787 4.22024,-4.290017 -6.26159,-0.292181 -12.98471,-4.506359 -7.47798,-10.846208 -2.60712,-5.44628 -10.32528,6.541334 -16.25343,1.654447 -5.38276,-5.358097 -13.82792,4.416875 -17.50274,-4.593136 -1.83639,-2.239587 -3.44977,-4.745742 -5.8618,-6.430455 z m 13.79254,73.451135 c 0.67679,0.17246 0.0529,-0.76007 0,0 z m -30.34359,-26.65 c 0.67788,-1.012543 -1.51265,-0.04846 0,0 z m 8.88333,-11.034034 -0.42502,-0.08317 0.42502,0.08317 z m -0.88833,-2.290965 c -0.68215,-0.08625 0.13985,0.532476 0,0 z M 356.8472,36.212423 c 0.10564,0.351025 0.10564,-0.351024 0,0 z m 0.23377,0 c -0.62215,0.414865 0.41197,0.04034 0,0 z m -0.74807,0.327281 c -1.19635,0.956946 0.59203,0.344352 0,0 z m 0.65457,0.467544 c -0.061,0.518787 0.46758,-0.6472 0,0 z m -8.32228,2.431228 c -0.0645,1.297527 0.8643,-0.738989 0,0 z m 0.42079,0.374035 c 0.16701,0.387156 0.27626,-0.432564 0,0 z m 0.51429,2.945526 c 0.72393,0.243886 -0.40796,0.09532 0,0 z m 1.87018,0.374035 c -0.27139,0.211898 -0.038,-0.451849 0,0 z m 1.96368,0.140263 c 0.4062,0.267749 -0.35865,0.04919 0,0 z m 0.46755,0.701316 c -0.50486,0.20518 2.7e-4,-0.845035 0,0 z m -0.79483,0.280526 c -0.46611,0.107064 0.21156,-0.987587 0,0 z m -13.65228,1.823421 c -0.55569,0.718641 0.68146,0.02861 0,0 z m 3.45983,0.32728 -0.0949,-0.129446 0.0949,0.129446 z m -3.45983,0.280527 0,-0.09421 0,0.09421 z m 42.40623,6.078069 c -0.97046,0.177173 1.03546,-0.295996 0,0 z m 2.05719,0.42079 c 0.13915,0.69738 0.43047,-0.538641 0,0 z m -54.09482,11.828858 c 1.11787,0.162032 -1.68515,-0.685187 0,0 z m 0.28053,0.140263 c 0.23538,0.495058 0.39797,-0.792191 0,0 z m 1.07535,0.74807 c 0.54657,0.419952 0.0937,-0.683467 0,0 z m -6.26509,10.285964 c -0.24733,0.535124 0.23326,-0.520717 0,0 z m -3.1793,1.355877 c 1.1507,0.14128 -0.23851,-1.003297 0,0 z m 0.37404,-0.04676 0.0979,-0.10832 -0.0979,0.10832 z m 0.32728,0.187018 c 0.23643,-0.353897 -0.48717,-0.0442 0,0 z m -0.56105,0.420789 c 0.92132,0.748579 -0.0776,-1.068962 0,0 z m 67.93411,0 c 0.39887,0.826857 0.60704,-0.719673 0,0 z m -5.61053,0.280527 c 0.33445,0.60658 0.0236,-0.727558 0,0 z m 8.5093,0.374035 c 0.62464,-0.112555 -0.335,-0.589001 0,0 z m -59.56508,-0.04676 -0.1703,-0.07226 0.1703,0.07226 z m 50.30771,0.280527 c -0.10452,0.988155 0.46695,0.06709 0,0 z m -48.29727,0.233772 c -0.46324,1.128314 -0.44618,-0.919364 0,0 z m -2.665,0.280526 c 0.7244,0.683167 0.0248,-0.547632 0,0 z m -4.67544,0.32728 c 0.58424,2.498181 -1.21985,-0.649878 0,0 z m -2.38447,1.355877 c -1.21318,2.586303 1.3327,-0.543592 0,0 z m 0.0467,0.794825 c -0.0174,2.715734 1.71781,-1.149081 0,0 z m 1.07535,0.04675 c -1.08316,0.811746 1.32603,0.266373 0,0 z m -14.72763,2.431228 c 0.57163,-0.388458 -1.25352,-0.52504 0,0 z m 63.49245,7.15342 c -0.58177,0.893256 0.67475,-0.510976 0,0 z m 3.74035,0.09351 c -0.54172,0.977623 0.4115,-0.267959 0,0 z m -3.2728,0.374035 c -0.10452,0.988156 0.46694,0.06709 0,0 z m 3.50657,1.262368 c -0.92047,1.024827 0.8483,-0.290939 0,0 z m -0.37403,0.561053 c 0.13055,0.865532 0.60664,-0.644657 0,0 z"
         style="opacity:1;fill:#c4c4c4;fill-opacity:1;fill-rule:nonzero;stroke:none;stroke-width:10.30000019;stroke-linecap:round;stroke-linejoin:round;stroke-miterlimit:4;stroke-dasharray:none;stroke-dashoffset:0;stroke-opacity:1"
         inkscape:connector-curvature="0" />
      <ellipse
         transform="matrix(2.3575641,0,0,1.9449905,85.143179,-441.00813)"
         id="path4235"
         style="opacity:1;fill:url(#linearGradient4309);fill-opacity:1;fill-rule:nonzero;stroke:none;stroke-width:0.5;stroke-linecap:round;stroke-linejoin:round;stroke-miterlimit:4;stroke-dasharray:none;stroke-dashoffset:0;stroke-opacity:1;filter:url(#filter4141)"
         cx="115.915"
         cy="261.91782"
         rx="8.3337584"
         ry="10.101525" />
      <path
         id="path4219"
         d="m 355.01124,54.025842 -0.46184,2.586318 c -1.27673,0.431666 -2.40744,1.090776 -3.41763,1.939731 l -3.32526,-0.2771 1.47788,2.216846 c -0.79365,1.114474 -1.43408,2.412989 -1.755,3.787104 l -1.10841,0.738944 0.92368,0.2771 c -0.0616,0.464447 -0.0924,0.904357 -0.0924,1.385531 0,4.434574 2.71315,8.255701 6.55815,9.883412 1.16199,2.31782 3.57748,3.971848 6.37342,3.971848 3.92604,0 7.11237,-3.144961 7.11237,-7.019994 0,-0.454573 -0.10099,-0.954957 -0.18473,-1.385531 0.95617,-1.603099 1.57026,-3.449501 1.57026,-5.449735 0,-2.526637 -0.93657,-4.81823 -2.40157,-6.650523 l 0.46184,-0.554215 -0.83132,0.09237 c -1.02018,-1.140044 -2.27371,-2.057702 -3.69474,-2.67869 l 0.46184,-1.477887 -2.0321,1.016044 c -0.87201,-0.229538 -1.7349,-0.461844 -2.67868,-0.461844 -0.61401,0 -1.2615,0.08537 -1.84737,0.184744 l -1.10842,-2.124475 z"
         style="fill:#232126;fill-opacity:1;fill-rule:nonzero;stroke:none;stroke-width:10.30000019;stroke-linecap:round;stroke-linejoin:round;stroke-miterlimit:4;stroke-dashoffset:0;stroke-opacity:1"
         inkscape:connector-curvature="0" />
    </g>
    <g
       id="g4182"
       transform="matrix(0.26127115,0,0,0.26127115,209.13455,317.22307)">
      <path
         id="path4378"
         d="m 425.24799,-26.669506 c 0.78964,4.736155 4.73141,8.459458 5.99858,12.696581 -2.65237,4.0168715 -8.01389,3.090491 -11.61941,1.00091 -1.91609,-0.581003 -8.01276,-2.894699 -4.84966,0.806743 2.40802,3.6427661 8.09103,7.3418081 4.78305,12.1553923 -1.5358,3.2616364 -4.03498,5.9003759 -1.88071,9.4091328 1.04557,6.1008899 -5.56474,7.7850729 -9.68825,10.0288669 -1.98097,1.658874 -6.63106,3.593684 -6.70294,5.562126 4.85155,-2.519833 10.40886,-3.091895 15.51725,-4.93945 5.46907,-0.746827 6.29049,6.753602 10.07488,9.244527 4.51322,1.515035 7.70163,4.553868 8.1271,9.487935 1.57839,2.281637 0.38406,9.984139 4.48759,7.555439 2.6332,-3.439386 0.23541,-10.239959 5.65629,-11.374675 4.00087,-0.588664 8.05016,-1.152737 11.62704,-3.193253 3.1376,-2.935084 5.2755,2.979715 7.32862,2.210573 -1.54234,-3.405835 -1.32838,-7.425812 2.1032,-10.013497 1.69471,-5.37056 6.98491,-4.048033 11.22781,-3.637172 0.17287,-1.359229 -9.94333,-0.603606 -6.85624,-5.518603 2.98562,-4.496056 8.87729,-5.1396606 13.19608,-7.8254955 2.64396,-0.7376181 2.7437,-2.945743 -0.38399,-2.1380292 -4.12224,-0.7623209 -9.32255,1.0730721 -12.70211,-1.4770016 -0.83463,-2.7776321 -1.48293,-6.2237277 -3.11574,-8.1258963 3.1775,-2.7188144 8.1262,0.6720975 12.04658,-0.1982326 -1.07263,-0.6474562 -5.61156,-1.4302906 -7.96728,-2.1374278 -2.8558,-1.0968308 -6.78324,-0.8951302 -8.91979,-2.8634986 -1.29488,-4.4871604 3.54863,-7.7754454 4.19458,-11.8287824 -3.81143,1.710337 -6.56584,5.328514 -10.5557,6.753199 -3.84096,0.561968 -8.07482,-0.811421 -11.40041,-2.661499 -2.75169,-3.722548 -5.95156,5.073914 -9.71106,1.720865 -3.54913,-3.160439 -5.84946,-7.63657 -9.47084,-10.57529 l -0.54452,-0.124487 z m -18.42122,47.92324 c 0.95029,1.08206 -0.39866,0.249886 0,0 z m 6.17158,0.654562 c -1.01162,0.663544 0.40075,0.29593 0,0 z m 0,0.74807 c 0.17971,-0.01475 -0.18787,-0.214128 0,0 z m -0.74807,0.701315 c 0.52595,-0.293203 -0.37473,-0.798717 0,0 z m -0.18702,0.561053 c 0.4208,-0.06703 -0.18988,-0.479111 0,0 z m 25.80842,24.920085 c -0.31095,0.686761 0.4964,0.130346 0,0 z"
         style="fill:#c4c4c4;fill-opacity:1;fill-rule:nonzero;stroke:none;stroke-width:10.30000019;stroke-linecap:round;stroke-linejoin:round;stroke-miterlimit:4;stroke-dasharray:none;stroke-dashoffset:0;stroke-opacity:1"
         inkscape:connector-curvature="0" />
      <ellipse
         transform="matrix(2.3575641,0,0,1.9449905,171.04667,-502.02255)"
         id="path4380"
         style="fill:url(#linearGradient4303);fill-opacity:1;fill-rule:nonzero;stroke:none;stroke-width:0.5;stroke-linecap:round;stroke-linejoin:round;stroke-miterlimit:4;stroke-dasharray:none;stroke-dashoffset:0;stroke-opacity:1;filter:url(#filter4141)"
         cx="115.915"
         cy="261.91782"
         rx="8.3337584"
         ry="10.101525" />
      <path
         id="path4382"
         d="m 446.05369,-5.2092451 c -0.65971,0.7259571 -0.67046,1.6583741 -1.84884,1.9418418 -1.05012,0.4303633 -2.21559,0.4943337 -3.33284,0.3680745 -1.20567,0.4735313 -1.94083,1.8263039 -3.27898,1.97847927 -0.80161,-0.11036727 -1.42975,-1.53321757 -2.09019,-0.30921927 0.91786,0.33879347 0.2256,1.72277849 0.29462,2.592977 0.157,1.6973905 -2.06578,1.3418402 -2.24118,2.8229263 -0.45653,0.6430201 0.22474,3.099564 -0.91296,2.433053 0.68814,-0.3363951 -0.71131,-1.2493099 -0.76654,-0.2706876 -0.51975,1.4259218 1.27658,0.5204682 1.67717,1.0854138 -0.0755,0.731237 0.36079,1.471768 0.6991,1.8320475 -0.33775,0.9179898 -1.95674,1.5403358 -0.63602,2.4969338 1.55229,0.170476 2.08972,1.935866 2.40911,3.2179 -1.30906,0.436731 0.24149,0.709416 0.83748,0.455968 1.30643,-0.285651 1.50138,1.271813 0.74987,1.327712 1.524,0.396373 2.96612,1.398595 4.59333,1.185926 1.33141,-0.966658 2.81427,-0.06023 4.20861,0.150349 1.08403,-0.412336 2.30034,-0.241304 3.36922,-0.599492 0.53647,-0.952154 0.65053,-2.725469 2.26406,-2.041365 0.96235,0.350769 1.70027,-0.477823 1.12466,-1.323725 0.16171,-1.213793 1.32234,-2.234021 2.51172,-2.373273 0.54966,0.905805 3.05598,-0.426568 1.40876,-0.575779 -1.31833,0.150869 -1.58171,-1.7093731 -1.55858,-2.7073854 -0.29098,-1.1510839 2.13519,-2.6340565 0.19308,-2.9890203 -1.14838,0.1295508 -1.26071,-1.6485639 -1.47119,-2.5106758 -0.0889,-1.2579726 -0.88273,-2.25801662 -1.99818,-2.78838485 -1.04543,-0.40424809 -0.41421,-1.99551285 -0.26527,-2.15490115 -1.33627,0.679493 -3.36194,0.643436 -4.1166,-0.8612202 -0.70625,0.5936624 -0.0939,-1.2751393 -0.75974,-0.4546201 -0.0766,-0.599846 -0.3449,-1.9752193 -1.06368,-1.9298533 z m 11.59509,17.0185941 c 0.21936,0.238894 0.13573,-0.09368 0,0 z m -9.39763,-15.7562258 c 0.53363,-0.2028377 -0.40665,-0.3727559 0,0 z m -0.37404,0.1870175 c 0.73628,0.4133042 -0.29715,-0.7991797 0,0 z m 8.83658,9.6781568 c 0.23955,-0.1816928 -0.46308,-0.2890917 0,0 z m -24.12526,1.6364033 c -0.18293,0.7127043 0.0433,0.7138967 0,0 z m 17.1121,12.2964022 c 1.05659,0.850542 0.44374,-1.048082 0,0 z"
         style="fill:#232126;fill-opacity:1;fill-rule:nonzero;stroke:none;stroke-width:0.5;stroke-linecap:round;stroke-linejoin:round;stroke-miterlimit:4;stroke-dasharray:none;stroke-dashoffset:0;stroke-opacity:1"
         inkscape:connector-curvature="0" />
    </g>
    <text
       xml:space="preserve"
       style="font-style:normal;font-weight:normal;font-size:40px;line-height:125%;font-family:sans-serif;text-align:start;letter-spacing:0px;word-spacing:0px;text-anchor:start;fill:#000000;fill-opacity:1;stroke:none;stroke-width:1px;stroke-linecap:butt;stroke-linejoin:miter;stroke-opacity:1"
       x="356.59778"
       y="-308.24179"
       id="text4514"
       sodipodi:linespacing="125%"
       transform="matrix(0,1,-1,0,0,0)"><tspan
         sodipodi:role="line"
         x="356.59778"
         y="-308.24179"
         style="font-style:normal;font-variant:normal;font-weight:normal;font-stretch:normal;font-family:'RM Typerighter old';-inkscape-font-specification:'RM Typerighter old';text-align:start;text-anchor:start"
         id="tspan4528">Dr. Swann</tspan></text>
    <path
       style="opacity:1;fill:#000000;fill-opacity:1;fill-rule:evenodd;stroke:none;stroke-width:1px;stroke-linecap:butt;stroke-linejoin:miter;stroke-opacity:1"
       d="m 289.86786,217.06122 0,315 225,0 0,-315 -225,0 z m 42.75,9 139.5,0 c 18.6975,0 33.75,15.0525 33.75,33.75 l 0,229.5 c 0,18.6975 -15.0525,33.75 -33.75,33.75 l -139.5,0 c -18.6975,0 -33.75,-15.0525 -33.75,-33.75 l 0,-229.5 c 0,-18.6975 15.0525,-33.75 33.75,-33.75 z"
       id="path4250"
       inkscape:connector-curvature="0" />
  </g>
</svg>
