<?xml version="1.0" encoding="UTF-8" standalone="no"?>
<!-- Created with Inkscape (http://www.inkscape.org/) -->

<svg
   xmlns:dc="http://purl.org/dc/elements/1.1/"
   xmlns:cc="http://creativecommons.org/ns#"
   xmlns:rdf="http://www.w3.org/1999/02/22-rdf-syntax-ns#"
   xmlns:svg="http://www.w3.org/2000/svg"
   xmlns="http://www.w3.org/2000/svg"
   xmlns:xlink="http://www.w3.org/1999/xlink"
   xmlns:sodipodi="http://sodipodi.sourceforge.net/DTD/sodipodi-0.dtd"
   xmlns:inkscape="http://www.inkscape.org/namespaces/inkscape"
   width="2.5in"
   height="3.5in"
   viewBox="0 0 225 315"
   id="svg2"
   version="1.1"
   inkscape:version="0.91 r13725"
   sodipodi:docname="3 M.svg">
  <defs
     id="defs4">
    <clipPath
       clipPathUnits="userSpaceOnUse"
       id="clipPath4487">
      <rect
         y="217.06122"
         x="289.86786"
         height="315"
         width="225"
         id="rect4489"
         style="opacity:1;fill:#000000;fill-opacity:1;fill-rule:evenodd;stroke:none;stroke-width:1px;stroke-linecap:butt;stroke-linejoin:miter;stroke-opacity:1" />
    </clipPath>
    <filter
       style="color-interpolation-filters:sRGB;"
       inkscape:label="Feather"
       id="filter4176">
      <feGaussianBlur
         stdDeviation="3.13"
         result="blur"
         id="feGaussianBlur4178" />
      <feComposite
         in="SourceGraphic"
         in2="blur"
         operator="atop"
         result="composite1"
         id="feComposite4180" />
      <feComposite
         in2="composite1"
         operator="in"
         result="composite2"
         id="feComposite4182" />
      <feComposite
         in2="composite2"
         operator="in"
         result="composite3"
         id="feComposite4184" />
    </filter>
    <filter
       style="color-interpolation-filters:sRGB;"
       inkscape:label="Feather"
       id="filter4250">
      <feGaussianBlur
         stdDeviation="15.8938"
         result="blur"
         id="feGaussianBlur4252" />
      <feComposite
         in="SourceGraphic"
         in2="blur"
         operator="atop"
         result="composite1"
         id="feComposite4254" />
      <feComposite
         in2="composite1"
         operator="in"
         result="composite2"
         id="feComposite4256" />
      <feComposite
         in2="composite2"
         operator="in"
         result="composite3"
         id="feComposite4258" />
    </filter>
    <clipPath
       id="clipPath4487-7"
       clipPathUnits="userSpaceOnUse">
      <rect
         style="opacity:1;fill:#000000;fill-opacity:1;fill-rule:evenodd;stroke:none;stroke-width:1px;stroke-linecap:butt;stroke-linejoin:miter;stroke-opacity:1"
         id="rect4489-8"
         width="225"
         height="315"
         x="289.86786"
         y="217.06122" />
    </clipPath>
    <filter
       id="filter4159"
       inkscape:label="Feather"
       style="color-interpolation-filters:sRGB;">
      <feGaussianBlur
         id="feGaussianBlur4161"
         result="blur"
         stdDeviation="3.13" />
      <feComposite
         id="feComposite4163"
         result="composite1"
         operator="atop"
         in2="blur"
         in="SourceGraphic" />
      <feComposite
         id="feComposite4165"
         result="composite2"
         operator="in"
         in2="composite1" />
      <feComposite
         id="feComposite4167"
         result="composite3"
         operator="in"
         in2="composite2" />
    </filter>
    <clipPath
       clipPathUnits="userSpaceOnUse"
       id="clipPath4359">
      <rect
         y="-323.92175"
         x="-1014.7253"
         height="705.44958"
         width="503.89258"
         id="rect4361"
         style="opacity:1;fill:#2d78ba;fill-opacity:1;fill-rule:evenodd;stroke:none;stroke-width:1px;stroke-linecap:butt;stroke-linejoin:miter;stroke-opacity:1" />
    </clipPath>
    <filter
       style="color-interpolation-filters:sRGB"
       inkscape:label="Feather"
       id="filter4316-3">
      <feGaussianBlur
         stdDeviation="5"
         result="blur"
         id="feGaussianBlur4318-7" />
      <feComposite
         in="SourceGraphic"
         in2="blur"
         operator="atop"
         result="composite1"
         id="feComposite4320-6" />
      <feComposite
         in2="composite1"
         operator="in"
         result="composite2"
         id="feComposite4322-7" />
      <feComposite
         in2="composite2"
         operator="in"
         result="composite3"
         id="feComposite4324-4" />
    </filter>
    <linearGradient
       inkscape:collect="always"
       xlink:href="#linearGradient4192"
       id="linearGradient4208"
       gradientUnits="userSpaceOnUse"
       gradientTransform="matrix(1.4961402,0,0,1.4961402,-85.832907,-256.13506)"
       x1="125.95902"
       y1="244.12636"
       x2="125.11707"
       y2="267.63766" />
    <linearGradient
       inkscape:collect="always"
       id="linearGradient4192">
      <stop
         style="stop-color:#888a85;stop-opacity:1;"
         offset="0"
         id="stop4194" />
      <stop
         style="stop-color:#888a85;stop-opacity:0;"
         offset="1"
         id="stop4196" />
    </linearGradient>
    <linearGradient
       y2="269.10541"
       x2="120.72295"
       y1="255.70152"
       x1="111.26731"
       gradientUnits="userSpaceOnUse"
       id="linearGradient3929"
       xlink:href="#linearGradient4089"
       inkscape:collect="always" />
    <linearGradient
       inkscape:collect="always"
       id="linearGradient4089">
      <stop
         style="stop-color:#636a72;stop-opacity:1;"
         offset="0"
         id="stop4091" />
      <stop
         id="stop4097"
         offset="0.41579732"
         style="stop-color:#636a72;stop-opacity:1" />
      <stop
         style="stop-color:#c4c4c6;stop-opacity:1"
         offset="0.51492357"
         id="stop4099" />
      <stop
         style="stop-color:#e7e7e7;stop-opacity:1"
         offset="1"
         id="stop4093" />
    </linearGradient>
    <filter
       inkscape:collect="always"
       id="filter4141">
      <feGaussianBlur
         inkscape:collect="always"
         stdDeviation="0.35044037"
         id="feGaussianBlur4143" />
    </filter>
    <clipPath
       id="clipPath4337"
       clipPathUnits="userSpaceOnUse">
      <rect
         y="-89.32235"
         x="-368.42249"
         height="379.32532"
         width="270.94666"
         id="rect4339"
         style="opacity:1;fill:#442a0b;fill-opacity:1;fill-rule:evenodd;stroke:none;stroke-width:1px;stroke-linecap:butt;stroke-linejoin:miter;stroke-opacity:1" />
    </clipPath>
    <linearGradient
       inkscape:collect="always"
       xlink:href="#linearGradient4089"
       id="linearGradient4411"
       gradientUnits="userSpaceOnUse"
       x1="111.26731"
       y1="255.70152"
       x2="120.72295"
       y2="269.10541" />
    <clipPath
       clipPathUnits="userSpaceOnUse"
       id="clipPath4462">
      <rect
         y="215.55586"
         x="-385.83249"
         height="284.35712"
         width="203.11223"
         id="rect4464"
         style="opacity:1;fill:#42004f;fill-opacity:1;fill-rule:evenodd;stroke:none;stroke-width:1px;stroke-linecap:butt;stroke-linejoin:miter;stroke-opacity:1" />
    </clipPath>
  </defs>
  <sodipodi:namedview
     id="base"
     pagecolor="#ffffff"
     bordercolor="#666666"
     borderopacity="1.0"
     inkscape:pageopacity="0.0"
     inkscape:pageshadow="2"
     inkscape:zoom="0.7"
     inkscape:cx="-41.208264"
     inkscape:cy="243.34283"
     inkscape:document-units="in"
     inkscape:current-layer="layer1"
     showgrid="false"
     inkscape:window-width="1536"
     inkscape:window-height="801"
     inkscape:window-x="-8"
     inkscape:window-y="-8"
     inkscape:window-maximized="1"
     fit-margin-top="0"
     fit-margin-left="0"
     fit-margin-right="0"
     fit-margin-bottom="0"
     units="in"
     borderlayer="true" />
  <metadata
     id="metadata7">
    <rdf:RDF>
      <cc:Work
         rdf:about="">
        <dc:format>image/svg+xml</dc:format>
        <dc:type
           rdf:resource="http://purl.org/dc/dcmitype/StillImage" />
        <dc:title />
      </cc:Work>
    </rdf:RDF>
  </metadata>
  <g
     inkscape:label="Layer 1"
     inkscape:groupmode="layer"
     id="layer1"
     transform="translate(-289.86786,-217.06122)">
    <g
       id="g4260"
       transform="matrix(1.107762,0,0,1.107762,717.27842,-21.723369)"
       clip-path="url(#clipPath4462)">
      <image
         width="567"
         height="318.60001"
         preserveAspectRatio="none"
         xlink:href="file:///C:/Users/spami/Documents/Projects/dead%20drop%20knockoff/Source%20photos/11122012skyfall-jpg_214159.jpg"
         id="image4157"
         x="-530.02313"
         y="224.2688"
         sodipodi:absref="C:\Users\spami\Documents\Projects\dead drop knockoff\Source photos\11122012skyfall-jpg_214159.jpg" />
      <path
         sodipodi:nodetypes="ccccccccccccccccccc"
         inkscape:connector-curvature="0"
         id="path4164"
         d="m -96.203571,577.77551 143.214291,0 0,-370.71429 -614.28572,0 0,370.71429 128.57143,0 33.57143,-32.32143 3.21428,-13.75 6.07143,-33.39286 3.75,-6.78571 4.64286,-9.82144 2.5,-15.35714 17.67857,-59.28571 3.75,-19.82143 15.969,-10.53571 0,-154.53517 244.56672,0 -1.96429,286.85659 z"
         style="fill:#edf2f6;fill-opacity:1;fill-rule:evenodd;stroke:none;stroke-width:1px;stroke-linecap:butt;stroke-linejoin:miter;stroke-opacity:1;filter:url(#filter4176)" />
      <path
         sodipodi:nodetypes="ccccccccccc"
         inkscape:connector-curvature="0"
         id="path4218"
         d="m -318.24397,358.82006 -80.81221,8.58629 0,-193.44421 337.89603,0 0,224.75894 -118.69293,-43.43656 -21.71827,-106.57109 -56.56854,-23.2335 -58.58886,14.14213 -32.32488,60.60915 z"
         style="fill:#edf2f6;fill-opacity:1;fill-rule:evenodd;stroke:none;stroke-width:1px;stroke-linecap:butt;stroke-linejoin:miter;stroke-opacity:1;filter:url(#filter4250)" />
    </g>
    <text
       sodipodi:linespacing="125%"
       id="text4568-2"
       y="266.64377"
       x="315.6832"
       style="font-style:normal;font-weight:normal;font-size:80px;line-height:125%;font-family:sans-serif;letter-spacing:0px;word-spacing:0px;fill:#000000;fill-opacity:1;stroke:none;stroke-width:1px;stroke-linecap:butt;stroke-linejoin:miter;stroke-opacity:1"
       xml:space="preserve"><tspan
         id="tspan4570-7"
         style="font-style:normal;font-variant:normal;font-weight:normal;font-stretch:normal;font-size:80px;font-family:'RM Typerighter old';-inkscape-font-specification:'RM Typerighter old';fill:#000000;fill-opacity:1"
         y="266.64377"
         x="315.6832"
         sodipodi:role="line">3</tspan></text>
    <g
       id="g4194"
       transform="matrix(0.26127115,0,0,0.26127115,300.05011,277.3843)">
      <path
         style="opacity:1;fill:#c4c4c4;fill-opacity:1;fill-rule:nonzero;stroke:url(#linearGradient4208);stroke-width:0.44884208;stroke-linecap:round;stroke-linejoin:round;stroke-miterlimit:4;stroke-dasharray:none;stroke-dashoffset:0;stroke-opacity:1"
         d="m 77.293128,105.22955 c -2.665,4.76895 -5.33,9.53789 -7.994999,14.30684 -3.459824,-3.6936 -6.919649,-7.38719 -10.379473,-11.08079 2.384474,6.31184 4.768947,12.62368 7.15342,18.93553 -2.258992,2.45311 -7.671039,4.71261 -8.305135,6.84065 2.866783,-0.004 7.344584,0.69466 5.278356,4.64744 -0.821404,4.42021 2.368238,8.9961 2.030979,12.79031 -2.506282,1.99726 -3.864242,5.70846 0.688269,5.15874 2.727134,-0.0966 6.420775,1.41497 4.29874,4.66237 -0.727588,2.45206 -2.418511,8.1761 2.13966,5.62572 3.83724,-0.49901 8.332917,-3.05502 11.7953,-2.07675 1.706766,4.34645 -0.754728,9.02793 -0.231154,13.54689 1.260004,-1.45371 2.260024,-4.49689 3.445267,-6.53727 1.457405,-2.05913 2.012308,-5.89361 4.073181,-6.7656 3.767446,-0.29719 9.242531,-4.76534 11.027881,1.05374 0.69249,1.83955 3.03277,5.14465 2.58149,0.86293 -0.9079,-4.90372 0.89237,-9.32129 4.49494,-12.61309 1.16678,-2.84132 5.68489,-1.41871 6.27078,-1.65039 -0.34434,-1.35942 3.38195,0.33977 1.30954,-1.60003 -2.36706,-1.06219 -6.01028,-5.63663 -1.0722,-5.53569 4.72644,0.003 9.45353,-0.13854 14.18085,-0.22252 -5.2209,-2.02603 -10.44181,-4.05204 -15.66271,-6.07807 0.83541,-1.15717 5.09501,-3.26027 1.24356,-3.01674 -1.28224,-1.96764 5.50624,-2.24396 7.17522,-3.70003 1.2919,-0.26051 4.80109,-1.70753 1.38063,-1.60259 -3.78906,-0.8607 -8.82897,-0.3767 -11.83391,-2.08037 0.15428,-3.93971 4.34051,-6.19234 5.47325,-9.76362 -3.29278,-0.45879 -6.9874,1.34647 -10.48119,1.03653 -1.84316,-1.22028 3.2533,-3.59045 4.67057,-4.67056 1.30389,-0.8063 4.80969,-3.23187 1.31423,-1.97401 -3.34108,0.82927 -6.57139,2.13668 -9.91277,2.79888 -3.05893,-2.23673 -1.2316,-7.61425 -4.040668,-10.264 -2.560045,1.26015 -5.615104,6.33501 -7.934465,5.26792 0.299512,-2.24598 -1.806589,-3.93323 -3.41277,-1.73596 -0.496928,-2.75816 -1.285335,3.25655 -3.3337,2.68881 -4.079062,0.84901 -4.567162,-5.39504 -7.421648,-7.24283 l -0.0093,-0.0124 z"
         id="path4202"
         inkscape:connector-curvature="0" />
      <ellipse
         style="opacity:1;fill:url(#linearGradient4411);fill-opacity:1;fill-rule:nonzero;stroke:none;stroke-width:0.5;stroke-linecap:round;stroke-linejoin:round;stroke-miterlimit:4;stroke-dasharray:none;stroke-dashoffset:0;stroke-opacity:1;filter:url(#filter4141)"
         id="path4204"
         transform="matrix(2.3575641,0,0,1.9449905,-183.03995,-372.18568)"
         cx="115.915"
         cy="261.91782"
         rx="8.3337584"
         ry="10.101525" />
      <path
         id="path4173"
         d="m 92.778461,121.53917 -3.646841,3.08579 c -0.809581,0.0809 -1.624794,0.2996 -2.384474,0.5143 l -0.280526,-2.33772 -0.607807,2.57149 -0.841579,-1.63641 0.514298,1.77667 c -1.175984,0.45517 -2.245915,1.08725 -3.226052,1.82342 l -3.272806,-1.6364 1.309122,3.41307 c -0.333516,0.37951 -0.64931,0.79805 -0.935087,1.21561 l -0.467544,-0.18702 0.467544,0.28053 c -0.979362,1.45616 -1.717001,3.1269 -2.010439,4.90921 l -1.309122,0.56105 -0.607807,0.18702 0.04675,0.0468 -0.233772,0.0935 1.963684,0.79483 c -0.0026,0.10302 0,0.17692 0,0.28052 -4e-6,3.10466 1.158192,5.97334 3.085789,8.18202 l -0.701316,1.49614 1.542895,-0.60781 c 0.527107,0.49868 1.122431,0.95053 1.729912,1.35588 1.716924,2.85915 4.824107,4.76895 8.369034,4.76895 1.932356,0 3.718707,-0.56316 5.236491,-1.5429 l 1.262368,1.16886 -0.74807,-1.54289 c 1.448511,-1.07281 2.581832,-2.50438 3.272814,-4.2079 l 0.93508,0.65457 -0.79482,-1.0286 c 0.062,-0.17285 0.13445,-0.33714 0.18702,-0.5143 0.036,-0.0439 0.0576,-0.098 0.0935,-0.14026 l 0.32728,0.14026 -0.18702,-0.23377 c 0.62447,-0.7554 1.10476,-1.59879 1.54289,-2.47798 l 6.03132,-0.0935 -5.18974,-2.05719 c 0.29611,-1.05574 0.46755,-2.17442 0.46755,-3.31957 0,-0.3581 -0.0165,-0.72471 -0.0468,-1.07535 l 2.85202,-1.07535 -3.03904,-0.42079 c -0.36894,-1.72945 -1.13075,-3.32586 -2.1507,-4.72219 l 0.93509,-1.40263 -1.91693,0.23377 c -0.34347,-0.36871 -0.689783,-0.69581 -1.075354,-1.0286 l 0.561053,-1.1221 -0.561053,-0.0467 1.729914,-1.26237 -3.646843,1.07535 c -1.134161,-0.66276 -2.370245,-1.18325 -3.693596,-1.49614 l 1.028596,-1.5429 -1.262368,0.88834 -0.654562,-2.75851 z"
         style="opacity:1;fill:#232126;fill-opacity:1;fill-rule:nonzero;stroke:none;stroke-width:0.5;stroke-linecap:round;stroke-linejoin:round;stroke-miterlimit:4;stroke-dasharray:none;stroke-dashoffset:0;stroke-opacity:1"
         inkscape:connector-curvature="0" />
    </g>
    <g
       id="g4182"
       transform="matrix(0.26127115,0,0,0.26127115,210.71038,285.2914)">
      <path
         id="path4378"
         d="m 425.24799,-26.669506 c 0.78964,4.736155 4.73141,8.459458 5.99858,12.696581 -2.65237,4.0168715 -8.01389,3.090491 -11.61941,1.00091 -1.91609,-0.581003 -8.01276,-2.894699 -4.84966,0.806743 2.40802,3.6427661 8.09103,7.3418081 4.78305,12.1553923 -1.5358,3.2616364 -4.03498,5.9003759 -1.88071,9.4091328 1.04557,6.1008899 -5.56474,7.7850729 -9.68825,10.0288669 -1.98097,1.658874 -6.63106,3.593684 -6.70294,5.562126 4.85155,-2.519833 10.40886,-3.091895 15.51725,-4.93945 5.46907,-0.746827 6.29049,6.753602 10.07488,9.244527 4.51322,1.515035 7.70163,4.553868 8.1271,9.487935 1.57839,2.281637 0.38406,9.984139 4.48759,7.555439 2.6332,-3.439386 0.23541,-10.239959 5.65629,-11.374675 4.00087,-0.588664 8.05016,-1.152737 11.62704,-3.193253 3.1376,-2.935084 5.2755,2.979715 7.32862,2.210573 -1.54234,-3.405835 -1.32838,-7.425812 2.1032,-10.013497 1.69471,-5.37056 6.98491,-4.048033 11.22781,-3.637172 0.17287,-1.359229 -9.94333,-0.603606 -6.85624,-5.518603 2.98562,-4.496056 8.87729,-5.1396606 13.19608,-7.8254955 2.64396,-0.7376181 2.7437,-2.945743 -0.38399,-2.1380292 -4.12224,-0.7623209 -9.32255,1.0730721 -12.70211,-1.4770016 -0.83463,-2.7776321 -1.48293,-6.2237277 -3.11574,-8.1258963 3.1775,-2.7188144 8.1262,0.6720975 12.04658,-0.1982326 -1.07263,-0.6474562 -5.61156,-1.4302906 -7.96728,-2.1374278 -2.8558,-1.0968308 -6.78324,-0.8951302 -8.91979,-2.8634986 -1.29488,-4.4871604 3.54863,-7.7754454 4.19458,-11.8287824 -3.81143,1.710337 -6.56584,5.328514 -10.5557,6.753199 -3.84096,0.561968 -8.07482,-0.811421 -11.40041,-2.661499 -2.75169,-3.722548 -5.95156,5.073914 -9.71106,1.720865 -3.54913,-3.160439 -5.84946,-7.63657 -9.47084,-10.57529 l -0.54452,-0.124487 z m -18.42122,47.92324 c 0.95029,1.08206 -0.39866,0.249886 0,0 z m 6.17158,0.654562 c -1.01162,0.663544 0.40075,0.29593 0,0 z m 0,0.74807 c 0.17971,-0.01475 -0.18787,-0.214128 0,0 z m -0.74807,0.701315 c 0.52595,-0.293203 -0.37473,-0.798717 0,0 z m -0.18702,0.561053 c 0.4208,-0.06703 -0.18988,-0.479111 0,0 z m 25.80842,24.920085 c -0.31095,0.686761 0.4964,0.130346 0,0 z"
         style="fill:#c4c4c4;fill-opacity:1;fill-rule:nonzero;stroke:none;stroke-width:10.30000019;stroke-linecap:round;stroke-linejoin:round;stroke-miterlimit:4;stroke-dasharray:none;stroke-dashoffset:0;stroke-opacity:1"
         inkscape:connector-curvature="0" />
      <ellipse
         transform="matrix(2.3575641,0,0,1.9449905,171.04667,-502.02255)"
         id="path4380"
         style="fill:url(#linearGradient3929);fill-opacity:1;fill-rule:nonzero;stroke:none;stroke-width:0.5;stroke-linecap:round;stroke-linejoin:round;stroke-miterlimit:4;stroke-dasharray:none;stroke-dashoffset:0;stroke-opacity:1;filter:url(#filter4141)"
         cx="115.915"
         cy="261.91782"
         rx="8.3337584"
         ry="10.101525" />
      <path
         id="path4382"
         d="m 446.05369,-5.2092451 c -0.65971,0.7259571 -0.67046,1.6583741 -1.84884,1.9418418 -1.05012,0.4303633 -2.21559,0.4943337 -3.33284,0.3680745 -1.20567,0.4735313 -1.94083,1.8263039 -3.27898,1.97847927 -0.80161,-0.11036727 -1.42975,-1.53321757 -2.09019,-0.30921927 0.91786,0.33879347 0.2256,1.72277849 0.29462,2.592977 0.157,1.6973905 -2.06578,1.3418402 -2.24118,2.8229263 -0.45653,0.6430201 0.22474,3.099564 -0.91296,2.433053 0.68814,-0.3363951 -0.71131,-1.2493099 -0.76654,-0.2706876 -0.51975,1.4259218 1.27658,0.5204682 1.67717,1.0854138 -0.0755,0.731237 0.36079,1.471768 0.6991,1.8320475 -0.33775,0.9179898 -1.95674,1.5403358 -0.63602,2.4969338 1.55229,0.170476 2.08972,1.935866 2.40911,3.2179 -1.30906,0.436731 0.24149,0.709416 0.83748,0.455968 1.30643,-0.285651 1.50138,1.271813 0.74987,1.327712 1.524,0.396373 2.96612,1.398595 4.59333,1.185926 1.33141,-0.966658 2.81427,-0.06023 4.20861,0.150349 1.08403,-0.412336 2.30034,-0.241304 3.36922,-0.599492 0.53647,-0.952154 0.65053,-2.725469 2.26406,-2.041365 0.96235,0.350769 1.70027,-0.477823 1.12466,-1.323725 0.16171,-1.213793 1.32234,-2.234021 2.51172,-2.373273 0.54966,0.905805 3.05598,-0.426568 1.40876,-0.575779 -1.31833,0.150869 -1.58171,-1.7093731 -1.55858,-2.7073854 -0.29098,-1.1510839 2.13519,-2.6340565 0.19308,-2.9890203 -1.14838,0.1295508 -1.26071,-1.6485639 -1.47119,-2.5106758 -0.0889,-1.2579726 -0.88273,-2.25801662 -1.99818,-2.78838485 -1.04543,-0.40424809 -0.41421,-1.99551285 -0.26527,-2.15490115 -1.33627,0.679493 -3.36194,0.643436 -4.1166,-0.8612202 -0.70625,0.5936624 -0.0939,-1.2751393 -0.75974,-0.4546201 -0.0766,-0.599846 -0.3449,-1.9752193 -1.06368,-1.9298533 z m 11.59509,17.0185941 c 0.21936,0.238894 0.13573,-0.09368 0,0 z m -9.39763,-15.7562258 c 0.53363,-0.2028377 -0.40665,-0.3727559 0,0 z m -0.37404,0.1870175 c 0.73628,0.4133042 -0.29715,-0.7991797 0,0 z m 8.83658,9.6781568 c 0.23955,-0.1816928 -0.46308,-0.2890917 0,0 z m -24.12526,1.6364033 c -0.18293,0.7127043 0.0433,0.7138967 0,0 z m 17.1121,12.2964022 c 1.05659,0.850542 0.44374,-1.048082 0,0 z"
         style="fill:#232126;fill-opacity:1;fill-rule:nonzero;stroke:none;stroke-width:0.5;stroke-linecap:round;stroke-linejoin:round;stroke-miterlimit:4;stroke-dasharray:none;stroke-dashoffset:0;stroke-opacity:1"
         inkscape:connector-curvature="0" />
    </g>
    <text
       xml:space="preserve"
       style="font-style:normal;font-weight:normal;font-size:40px;line-height:125%;font-family:sans-serif;text-align:start;letter-spacing:0px;word-spacing:0px;text-anchor:start;fill:#000000;fill-opacity:1;stroke:none;stroke-width:1px;stroke-linecap:butt;stroke-linejoin:miter;stroke-opacity:1"
       x="316.77695"
       y="346.06335"
       id="text4514-50"
       sodipodi:linespacing="125%"><tspan
         sodipodi:role="line"
         x="316.77695"
         y="346.06335"
         style="font-style:normal;font-variant:normal;font-weight:normal;font-stretch:normal;font-family:'RM Typerighter old';-inkscape-font-specification:'RM Typerighter old';text-align:start;text-anchor:start"
         id="tspan4528-54">M</tspan></text>
    <path
       style="opacity:1;fill:#000000;fill-opacity:1;fill-rule:evenodd;stroke:none;stroke-width:1px;stroke-linecap:butt;stroke-linejoin:miter;stroke-opacity:1"
       d="m 289.86786,217.06122 0,315 225,0 0,-315 -225,0 z m 42.75,9 139.5,0 c 18.6975,0 33.75,15.0525 33.75,33.75 l 0,229.5 c 0,18.6975 -15.0525,33.75 -33.75,33.75 l -139.5,0 c -18.6975,0 -33.75,-15.0525 -33.75,-33.75 l 0,-229.5 c 0,-18.6975 15.0525,-33.75 33.75,-33.75 z"
       id="path4250"
       inkscape:connector-curvature="0" />
  </g>
</svg>
