<?xml version="1.0" encoding="UTF-8" standalone="no"?>
<!-- Created with Inkscape (http://www.inkscape.org/) -->

<svg
   xmlns:dc="http://purl.org/dc/elements/1.1/"
   xmlns:cc="http://creativecommons.org/ns#"
   xmlns:rdf="http://www.w3.org/1999/02/22-rdf-syntax-ns#"
   xmlns:svg="http://www.w3.org/2000/svg"
   xmlns="http://www.w3.org/2000/svg"
   xmlns:xlink="http://www.w3.org/1999/xlink"
   xmlns:sodipodi="http://sodipodi.sourceforge.net/DTD/sodipodi-0.dtd"
   xmlns:inkscape="http://www.inkscape.org/namespaces/inkscape"
   width="2.5in"
   height="3.5in"
   viewBox="0 0 225 315"
   id="svg2"
   version="1.1"
   inkscape:version="0.91 r13725"
   sodipodi:docname="4 Vesper.svg">
  <defs
     id="defs4">
    <clipPath
       clipPathUnits="userSpaceOnUse"
       id="clipPath4487">
      <rect
         y="217.06122"
         x="289.86786"
         height="315"
         width="225"
         id="rect4489"
         style="opacity:1;fill:#000000;fill-opacity:1;fill-rule:evenodd;stroke:none;stroke-width:1px;stroke-linecap:butt;stroke-linejoin:miter;stroke-opacity:1" />
    </clipPath>
    <clipPath
       id="clipPath4487-1"
       clipPathUnits="userSpaceOnUse">
      <rect
         style="opacity:1;fill:#000000;fill-opacity:1;fill-rule:evenodd;stroke:none;stroke-width:1px;stroke-linecap:butt;stroke-linejoin:miter;stroke-opacity:1"
         id="rect4489-6"
         width="225"
         height="315"
         x="289.86786"
         y="217.06122" />
    </clipPath>
    <filter
       id="filter4176"
       inkscape:label="Feather"
       style="color-interpolation-filters:sRGB;">
      <feGaussianBlur
         id="feGaussianBlur4178"
         result="blur"
         stdDeviation="3.13" />
      <feComposite
         id="feComposite4180"
         result="composite1"
         operator="atop"
         in2="blur"
         in="SourceGraphic" />
      <feComposite
         id="feComposite4182"
         result="composite2"
         operator="in"
         in2="composite1" />
      <feComposite
         id="feComposite4184"
         result="composite3"
         operator="in"
         in2="composite2" />
    </filter>
    <filter
       id="filter4250"
       inkscape:label="Feather"
       style="color-interpolation-filters:sRGB;">
      <feGaussianBlur
         id="feGaussianBlur4252"
         result="blur"
         stdDeviation="15.8938" />
      <feComposite
         id="feComposite4254"
         result="composite1"
         operator="atop"
         in2="blur"
         in="SourceGraphic" />
      <feComposite
         id="feComposite4256"
         result="composite2"
         operator="in"
         in2="composite1" />
      <feComposite
         id="feComposite4258"
         result="composite3"
         operator="in"
         in2="composite2" />
    </filter>
    <clipPath
       clipPathUnits="userSpaceOnUse"
       id="clipPath4487-7">
      <rect
         y="217.06122"
         x="289.86786"
         height="315"
         width="225"
         id="rect4489-8"
         style="opacity:1;fill:#000000;fill-opacity:1;fill-rule:evenodd;stroke:none;stroke-width:1px;stroke-linecap:butt;stroke-linejoin:miter;stroke-opacity:1" />
    </clipPath>
    <filter
       style="color-interpolation-filters:sRGB;"
       inkscape:label="Feather"
       id="filter4159">
      <feGaussianBlur
         stdDeviation="3.13"
         result="blur"
         id="feGaussianBlur4161" />
      <feComposite
         in="SourceGraphic"
         in2="blur"
         operator="atop"
         result="composite1"
         id="feComposite4163" />
      <feComposite
         in2="composite1"
         operator="in"
         result="composite2"
         id="feComposite4165" />
      <feComposite
         in2="composite2"
         operator="in"
         result="composite3"
         id="feComposite4167" />
    </filter>
    <clipPath
       id="clipPath4359"
       clipPathUnits="userSpaceOnUse">
      <rect
         style="opacity:1;fill:#2d78ba;fill-opacity:1;fill-rule:evenodd;stroke:none;stroke-width:1px;stroke-linecap:butt;stroke-linejoin:miter;stroke-opacity:1"
         id="rect4361"
         width="503.89258"
         height="705.44958"
         x="-1014.7253"
         y="-323.92175" />
    </clipPath>
    <filter
       id="filter4316-3"
       inkscape:label="Feather"
       style="color-interpolation-filters:sRGB">
      <feGaussianBlur
         id="feGaussianBlur4318-7"
         result="blur"
         stdDeviation="5" />
      <feComposite
         id="feComposite4320-6"
         result="composite1"
         operator="atop"
         in2="blur"
         in="SourceGraphic" />
      <feComposite
         id="feComposite4322-7"
         result="composite2"
         operator="in"
         in2="composite1" />
      <feComposite
         id="feComposite4324-4"
         result="composite3"
         operator="in"
         in2="composite2" />
    </filter>
    <clipPath
       clipPathUnits="userSpaceOnUse"
       id="clipPath4337">
      <rect
         style="opacity:1;fill:#442a0b;fill-opacity:1;fill-rule:evenodd;stroke:none;stroke-width:1px;stroke-linecap:butt;stroke-linejoin:miter;stroke-opacity:1"
         id="rect4339"
         width="270.94666"
         height="379.32532"
         x="-368.42249"
         y="-89.32235" />
    </clipPath>
    <clipPath
       id="clipPath4487-6"
       clipPathUnits="userSpaceOnUse">
      <rect
         style="opacity:1;fill:#000000;fill-opacity:1;fill-rule:evenodd;stroke:none;stroke-width:1px;stroke-linecap:butt;stroke-linejoin:miter;stroke-opacity:1"
         id="rect4489-0"
         width="225"
         height="315"
         x="289.86786"
         y="217.06122" />
    </clipPath>
    <clipPath
       id="clipPath4644"
       clipPathUnits="userSpaceOnUse">
      <rect
         style="opacity:1;fill:#1b3a55;fill-opacity:1;fill-rule:evenodd;stroke:none;stroke-width:1px;stroke-linecap:butt;stroke-linejoin:miter;stroke-opacity:1"
         id="rect4646"
         width="225"
         height="315"
         x="289.86786"
         y="217.06122" />
    </clipPath>
    <clipPath
       clipPathUnits="userSpaceOnUse"
       id="clipPath4487-7-5">
      <rect
         y="217.06122"
         x="289.86786"
         height="315"
         width="225"
         id="rect4489-1"
         style="opacity:1;fill:#000000;fill-opacity:1;fill-rule:evenodd;stroke:none;stroke-width:1px;stroke-linecap:butt;stroke-linejoin:miter;stroke-opacity:1" />
    </clipPath>
    <clipPath
       clipPathUnits="userSpaceOnUse"
       id="clipPath4644-9">
      <rect
         y="217.06122"
         x="289.86786"
         height="315"
         width="225"
         id="rect4646-0"
         style="opacity:1;fill:#1b3a55;fill-opacity:1;fill-rule:evenodd;stroke:none;stroke-width:1px;stroke-linecap:butt;stroke-linejoin:miter;stroke-opacity:1" />
    </clipPath>
    <filter
       style="color-interpolation-filters:sRGB;"
       inkscape:label="Feather"
       id="filter4169">
      <feGaussianBlur
         stdDeviation="64.59"
         result="blur"
         id="feGaussianBlur4171" />
      <feComposite
         in="SourceGraphic"
         in2="blur"
         operator="atop"
         result="composite1"
         id="feComposite4173" />
      <feComposite
         in2="composite1"
         operator="in"
         result="composite2"
         id="feComposite4175" />
      <feComposite
         in2="composite2"
         operator="in"
         result="composite3"
         id="feComposite4177" />
    </filter>
    <clipPath
       clipPathUnits="userSpaceOnUse"
       id="clipPath4185">
      <rect
         style="opacity:0.21400003;fill:#ff0000;fill-opacity:1"
         id="rect4187"
         width="628.57141"
         height="874.28571"
         x="544.15356"
         y="-656.51019" />
    </clipPath>
    <filter
       style="color-interpolation-filters:sRGB;"
       inkscape:label="Lightness-Contrast"
       id="filter4249">
      <feColorMatrix
         values="9.021 0 0 4.07103 -4.0105 0 9.021 0 4.07103 -4.0105 0 0 9.021 4.07103 -4.0105 0 0 0 1 0"
         id="feColorMatrix4251" />
    </filter>
    <filter
       style="color-interpolation-filters:sRGB;"
       inkscape:label="Feather"
       id="filter4283">
      <feGaussianBlur
         stdDeviation="3.13"
         result="blur"
         id="feGaussianBlur4285" />
      <feComposite
         in="SourceGraphic"
         in2="blur"
         operator="atop"
         result="composite1"
         id="feComposite4287" />
      <feComposite
         in2="composite1"
         operator="in"
         result="composite2"
         id="feComposite4289" />
      <feComposite
         in2="composite2"
         operator="in"
         result="composite3"
         id="feComposite4291" />
    </filter>
    <filter
       style="color-interpolation-filters:sRGB;"
       inkscape:label="Brilliance"
       id="filter4564">
      <feColorMatrix
         values="2.86 -0.3 -0.3 0 0 -0.3 2.86 -0.3 0 0 -0.3 -0.3 2.86 0 0 0 0 0 1 0 "
         id="feColorMatrix4566" />
    </filter>
    <clipPath
       clipPathUnits="userSpaceOnUse"
       id="clipPath5019">
      <rect
         style="opacity:1;fill:#1b3a55;fill-opacity:1;fill-rule:evenodd;stroke:none;stroke-width:1px;stroke-linecap:butt;stroke-linejoin:miter;stroke-opacity:1"
         id="rect5021"
         width="652.47577"
         height="913.46606"
         x="634.9552"
         y="-611.30554" />
    </clipPath>
    <filter
       id="filter4316"
       inkscape:label="Feather"
       style="color-interpolation-filters:sRGB;">
      <feGaussianBlur
         id="feGaussianBlur4318"
         result="blur"
         stdDeviation="5" />
      <feComposite
         id="feComposite4320"
         result="composite1"
         operator="atop"
         in2="blur"
         in="SourceGraphic" />
      <feComposite
         id="feComposite4322"
         result="composite2"
         operator="in"
         in2="composite1" />
      <feComposite
         id="feComposite4324"
         result="composite3"
         operator="in"
         in2="composite2" />
    </filter>
    <clipPath
       clipPathUnits="userSpaceOnUse"
       id="clipPath5019-2">
      <rect
         style="opacity:1;fill:#1b3a55;fill-opacity:1;fill-rule:evenodd;stroke:none;stroke-width:1px;stroke-linecap:butt;stroke-linejoin:miter;stroke-opacity:1"
         id="rect5021-4"
         width="652.47577"
         height="913.46606"
         x="634.9552"
         y="-611.30554" />
    </clipPath>
    <filter
       style="color-interpolation-filters:sRGB"
       inkscape:label="Brilliance"
       id="filter4564-0">
      <feColorMatrix
         values="2.86 -0.3 -0.3 0 0 -0.3 2.86 -0.3 0 0 -0.3 -0.3 2.86 0 0 0 0 0 1 0 "
         id="feColorMatrix4566-8" />
    </filter>
    <filter
       style="color-interpolation-filters:sRGB"
       inkscape:label="Feather"
       id="filter4283-3">
      <feGaussianBlur
         stdDeviation="3.13"
         result="blur"
         id="feGaussianBlur4285-8" />
      <feComposite
         in="SourceGraphic"
         in2="blur"
         operator="atop"
         result="composite1"
         id="feComposite4287-4" />
      <feComposite
         in2="composite1"
         operator="in"
         result="composite2"
         id="feComposite4289-2" />
      <feComposite
         in2="composite2"
         operator="in"
         result="composite3"
         id="feComposite4291-5" />
    </filter>
    <linearGradient
       id="linearGradient4089"
       inkscape:collect="always">
      <stop
         id="stop4091"
         offset="0"
         style="stop-color:#636a72;stop-opacity:1;" />
      <stop
         style="stop-color:#636a72;stop-opacity:1"
         offset="0.41579732"
         id="stop4097" />
      <stop
         id="stop4099"
         offset="0.51492357"
         style="stop-color:#c4c4c6;stop-opacity:1" />
      <stop
         id="stop4093"
         offset="1"
         style="stop-color:#e7e7e7;stop-opacity:1" />
    </linearGradient>
    <filter
       id="filter4141"
       inkscape:collect="always">
      <feGaussianBlur
         id="feGaussianBlur4143"
         stdDeviation="0.35044037"
         inkscape:collect="always" />
    </filter>
    <clipPath
       id="clipPath4359-9"
       clipPathUnits="userSpaceOnUse">
      <rect
         style="opacity:1;fill:#2d78ba;fill-opacity:1;fill-rule:evenodd;stroke:none;stroke-width:1px;stroke-linecap:butt;stroke-linejoin:miter;stroke-opacity:1"
         id="rect4361-8"
         width="503.89258"
         height="705.44958"
         x="-1014.7253"
         y="-323.92175" />
    </clipPath>
    <linearGradient
       inkscape:collect="always"
       xlink:href="#linearGradient4089"
       id="linearGradient4549"
       gradientUnits="userSpaceOnUse"
       x1="111.26731"
       y1="255.70152"
       x2="120.72295"
       y2="269.10541" />
    <clipPath
       clipPathUnits="userSpaceOnUse"
       id="clipPath4602">
      <rect
         y="210.70894"
         x="268.87155"
         height="310.40723"
         width="221.71944"
         id="rect4604"
         style="opacity:1;fill:#42004f;fill-opacity:1;fill-rule:evenodd;stroke:none;stroke-width:1px;stroke-linecap:butt;stroke-linejoin:miter;stroke-opacity:1" />
    </clipPath>
  </defs>
  <sodipodi:namedview
     id="base"
     pagecolor="#ffffff"
     bordercolor="#666666"
     borderopacity="1.0"
     inkscape:pageopacity="0.0"
     inkscape:pageshadow="2"
     inkscape:zoom="0.98994949"
     inkscape:cx="123.00489"
     inkscape:cy="134.2448"
     inkscape:document-units="in"
     inkscape:current-layer="layer1"
     showgrid="false"
     inkscape:window-width="1536"
     inkscape:window-height="801"
     inkscape:window-x="-8"
     inkscape:window-y="-8"
     inkscape:window-maximized="1"
     fit-margin-top="0"
     fit-margin-left="0"
     fit-margin-right="0"
     fit-margin-bottom="0"
     units="in"
     borderlayer="true" />
  <metadata
     id="metadata7">
    <rdf:RDF>
      <cc:Work
         rdf:about="">
        <dc:format>image/svg+xml</dc:format>
        <dc:type
           rdf:resource="http://purl.org/dc/dcmitype/StillImage" />
        <dc:title></dc:title>
      </cc:Work>
    </rdf:RDF>
  </metadata>
  <g
     inkscape:label="Layer 1"
     inkscape:groupmode="layer"
     id="layer1"
     transform="translate(-289.86786,-217.06122)">
    <g
       id="g4598"
       transform="matrix(1.014796,0,0,1.014796,17.018077,3.2346366)"
       clip-path="url(#clipPath4602)">
      <image
         transform="scale(-1,1)"
         width="206.87003"
         height="310.86719"
         preserveAspectRatio="none"
         xlink:href="file:///C:/Users/spami/Documents/Projects/dead%20drop%20knockoff/Source%20photos/vesper%20lynd%20with%20tons%20of%20background%20noise.jpg"
         id="image4152"
         x="-505.94867"
         y="219.03375"
         sodipodi:absref="C:\Users\spami\Documents\Projects\dead drop knockoff\Source photos\vesper lynd with tons of background noise.jpg" />
      <path
         sodipodi:nodetypes="cccccccscscscscscsscscsscssccsscsccssscccccscccscsccscssccccsccccccssscc"
         inkscape:connector-curvature="0"
         id="rect4379"
         d="m 611.16869,186.89968 0,391.77242 -409.63265,0 0,-391.77242 z m -105.64616,32.55994 -145.49951,0.004 c 0,0 -8.34023,6.21114 -10.0083,9.54728 -1.66808,3.33614 -2.23596,11.49875 -2.23596,11.49875 0,0 -2.51965,5.21731 -3.40692,9.65367 -0.88727,4.43636 2.05809,8.97898 2.05809,8.97898 0,0 -2.30666,5.8561 -1.88077,7.4177 0.42589,1.5616 2.87496,4.1881 2.87496,4.1881 0,0 1.02886,8.83683 2.76792,11.07276 1.73905,2.23592 5.92724,6.85007 5.92724,6.85007 0,0 -0.74544,0.99357 2.30678,7.06251 3.05221,6.06894 7.4177,8.66003 7.4177,8.66003 0,0 1.20675,12.38615 1.63264,14.05422 0.42589,1.66807 3.44258,9.05038 4.04592,10.57648 0.60335,1.52611 6.6722,12.5989 6.6722,12.5989 0,0 -1.8458,1.95229 -1.77482,3.19446 0.071,1.24219 0.78119,1.52615 0.78119,1.52615 0,0 -1.66844,2.98122 -1.38451,4.15242 0.28393,1.17119 2.44916,3.3005 4.6141,3.61991 2.16495,0.31942 3.2296,-2.59059 3.2296,-2.59059 0,0 7.61071,12.22308 10.12029,16.03765 2.50958,3.81457 7.02684,8.53274 8.4322,9.33581 1.40537,0.80307 4.51694,2.00759 4.51694,2.00759 l 0.70269,6.02277 c 0,0 -8.83335,7.5289 -10.74063,10.03849 -1.90728,2.50958 -4.31657,9.13512 -5.72193,12.247 -1.40537,3.11188 -4.81832,7.5286 -4.81832,7.5286 0,0 -18.93632,28.89295 -20.2413,30.90061 -1.30498,2.00767 -10.33933,19.3131 -10.33933,19.3131 l -6.56169,7.70772 c 0,0 -11.84516,9.53642 -14.65589,11.94562 -2.81073,2.40921 -8.43228,10.94179 -10.64072,14.75636 -2.20843,3.81457 -3.21187,11.04169 -3.01111,16.26163 0.20077,5.21993 2.40889,13.4691 2.40889,13.4691 L 505.5469,529.499 505.22937,407.60066 c 0,0 -5.93981,-9.86642 -6.82711,-11.03762 -0.88726,-1.1712 -9.86666,-11.35712 -9.86666,-11.35712 0,0 1.73912,-0.67412 1.63265,-1.27746 -0.10647,-0.60334 -0.99365,-1.13582 -0.99365,-1.13582 l 0.14163,-2.12946 -1.56128,-5.07524 c 0,0 -2.98154,-3.86839 -3.30095,-4.43624 -0.31942,-0.56786 0.17786,-1.49054 -0.42547,-1.80996 -0.60335,-0.31942 -2.69737,0.53234 -2.34246,1.31314 0.35491,0.7808 1.27748,1.80996 1.27748,1.80996 l -4.40111,-1.56183 c 0,0 -4.2586,-7.13329 -5.71371,-11.88907 -1.45512,-4.75578 -0.85199,-11.17981 -0.85199,-11.17981 0,0 1.13582,1.52625 1.84564,1.24233 0.70979,-0.28393 0.70962,-0.21337 2.09377,-0.88769 1.38415,-0.67433 2.20044,-2.44867 2.73279,-4.11674 0.53238,-1.66807 -1.24178,-2.98146 -1.24178,-2.98146 0,0 0.28369,-0.74496 0.46113,-2.1646 0.17747,-1.41963 -1.63264,-3.61992 -1.63264,-3.61992 0,0 1.02934,-1.91668 1.13581,-2.76846 0.10647,-0.85178 -0.88712,-1.31314 -0.88712,-1.31314 l 0.0351,-2.23596 -0.42546,-2.98146 1.38398,-1.70346 1.24232,0.35518 2.62626,-1.84564 c 0,0 -2.41324,-3.12332 -0.2838,-2.55546 2.12947,0.56785 5.28716,-1.9142 8.41034,-2.48206 3.1232,-0.56785 8.11619,-5.40189 11.23939,-8.24116 3.12321,-2.83927 4.9148,-7.03248 4.9148,-7.03248 z"
         style="opacity:1;fill:#8f41b9;fill-opacity:1;fill-rule:evenodd;stroke:none;stroke-width:1px;stroke-linecap:butt;stroke-linejoin:miter;stroke-opacity:1" />
    </g>
    <text
       sodipodi:linespacing="125%"
       id="text4568-2"
       y="260.92947"
       x="307.11176"
       style="font-style:normal;font-weight:normal;font-size:80px;line-height:125%;font-family:sans-serif;letter-spacing:0px;word-spacing:0px;fill:#000000;fill-opacity:1;stroke:none;stroke-width:1px;stroke-linecap:butt;stroke-linejoin:miter;stroke-opacity:1"
       xml:space="preserve"><tspan
         id="tspan4570-7"
         style="font-style:normal;font-variant:normal;font-weight:normal;font-stretch:normal;font-size:80px;font-family:'RM Typerighter old';-inkscape-font-specification:'RM Typerighter old';fill:#000000;fill-opacity:1"
         y="260.92947"
         x="307.11176"
         sodipodi:role="line">4</tspan></text>
    <g
       id="g4177"
       transform="matrix(0.22062366,0.13995647,-0.13995647,0.22062366,246.94601,217.88604)">
      <path
         id="path4341"
         d="m 339.50133,31.209705 c 0.9724,5.08544 9.39208,16.81678 -1.5957,15.49482 -4.15422,-3.072907 -12.23987,-0.432983 -5.4183,3.689168 6.00319,6.370415 -3.93827,11.863643 -0.97262,18.601795 -1.44091,8.125043 -11.31625,9.932755 -17.48219,13.413061 -1.35479,4.406672 7.3897,-2.138433 10.19114,-1.442219 2.15845,-2.622943 3.60079,1.563661 6.63643,-2.282571 7.16212,1.053746 8.85474,10.492371 16.06031,12.483823 3.79076,3.162287 1.29663,15.525448 6.47292,13.596668 -0.14422,-5.9715 3.51576,-14.019298 10.8113,-11.759662 4.58618,-1.447486 10.02001,-5.336942 13.50124,-1.501257 -0.0105,-6.333027 2.8895,-13.936127 10.39239,-13.95441 -8.94237,-5.774742 6.83072,-10.315617 10.65436,-13.052671 -3.71303,-3.668176 -15.94977,0.869931 -16.37557,-8.781176 -1.50473,-6.592936 14.57161,-0.481787 4.22024,-4.290017 -6.26159,-0.292181 -12.98471,-4.506359 -7.47798,-10.846208 -2.60712,-5.44628 -10.32528,6.541334 -16.25343,1.654447 -5.38276,-5.358097 -13.82792,4.416875 -17.50274,-4.593136 -1.83639,-2.239587 -3.44977,-4.745742 -5.8618,-6.430455 z m 13.79254,73.451135 c 0.67679,0.17246 0.0529,-0.76007 0,0 z m -30.34359,-26.65 c 0.67788,-1.012543 -1.51265,-0.04846 0,0 z m 8.88333,-11.034034 -0.42502,-0.08317 0.42502,0.08317 z m -0.88833,-2.290965 c -0.68215,-0.08625 0.13985,0.532476 0,0 z M 356.8472,36.212423 c 0.10564,0.351025 0.10564,-0.351024 0,0 z m 0.23377,0 c -0.62215,0.414865 0.41197,0.04034 0,0 z m -0.74807,0.327281 c -1.19635,0.956946 0.59203,0.344352 0,0 z m 0.65457,0.467544 c -0.061,0.518787 0.46758,-0.6472 0,0 z m -8.32228,2.431228 c -0.0645,1.297527 0.8643,-0.738989 0,0 z m 0.42079,0.374035 c 0.16701,0.387156 0.27626,-0.432564 0,0 z m 0.51429,2.945526 c 0.72393,0.243886 -0.40796,0.09532 0,0 z m 1.87018,0.374035 c -0.27139,0.211898 -0.038,-0.451849 0,0 z m 1.96368,0.140263 c 0.4062,0.267749 -0.35865,0.04919 0,0 z m 0.46755,0.701316 c -0.50486,0.20518 2.7e-4,-0.845035 0,0 z m -0.79483,0.280526 c -0.46611,0.107064 0.21156,-0.987587 0,0 z m -13.65228,1.823421 c -0.55569,0.718641 0.68146,0.02861 0,0 z m 3.45983,0.32728 -0.0949,-0.129446 0.0949,0.129446 z m -3.45983,0.280527 0,-0.09421 0,0.09421 z m 42.40623,6.078069 c -0.97046,0.177173 1.03546,-0.295996 0,0 z m 2.05719,0.42079 c 0.13915,0.69738 0.43047,-0.538641 0,0 z m -54.09482,11.828858 c 1.11787,0.162032 -1.68515,-0.685187 0,0 z m 0.28053,0.140263 c 0.23538,0.495058 0.39797,-0.792191 0,0 z m 1.07535,0.74807 c 0.54657,0.419952 0.0937,-0.683467 0,0 z m -6.26509,10.285964 c -0.24733,0.535124 0.23326,-0.520717 0,0 z m -3.1793,1.355877 c 1.1507,0.14128 -0.23851,-1.003297 0,0 z m 0.37404,-0.04676 0.0979,-0.10832 -0.0979,0.10832 z m 0.32728,0.187018 c 0.23643,-0.353897 -0.48717,-0.0442 0,0 z m -0.56105,0.420789 c 0.92132,0.748579 -0.0776,-1.068962 0,0 z m 67.93411,0 c 0.39887,0.826857 0.60704,-0.719673 0,0 z m -5.61053,0.280527 c 0.33445,0.60658 0.0236,-0.727558 0,0 z m 8.5093,0.374035 c 0.62464,-0.112555 -0.335,-0.589001 0,0 z m -59.56508,-0.04676 -0.1703,-0.07226 0.1703,0.07226 z m 50.30771,0.280527 c -0.10452,0.988155 0.46695,0.06709 0,0 z m -48.29727,0.233772 c -0.46324,1.128314 -0.44618,-0.919364 0,0 z m -2.665,0.280526 c 0.7244,0.683167 0.0248,-0.547632 0,0 z m -4.67544,0.32728 c 0.58424,2.498181 -1.21985,-0.649878 0,0 z m -2.38447,1.355877 c -1.21318,2.586303 1.3327,-0.543592 0,0 z m 0.0467,0.794825 c -0.0174,2.715734 1.71781,-1.149081 0,0 z m 1.07535,0.04675 c -1.08316,0.811746 1.32603,0.266373 0,0 z m -14.72763,2.431228 c 0.57163,-0.388458 -1.25352,-0.52504 0,0 z m 63.49245,7.15342 c -0.58177,0.893256 0.67475,-0.510976 0,0 z m 3.74035,0.09351 c -0.54172,0.977623 0.4115,-0.267959 0,0 z m -3.2728,0.374035 c -0.10452,0.988156 0.46694,0.06709 0,0 z m 3.50657,1.262368 c -0.92047,1.024827 0.8483,-0.290939 0,0 z m -0.37403,0.561053 c 0.13055,0.865532 0.60664,-0.644657 0,0 z"
         style="opacity:1;fill:#c4c4c4;fill-opacity:1;fill-rule:nonzero;stroke:none;stroke-width:10.30000019;stroke-linecap:round;stroke-linejoin:round;stroke-miterlimit:4;stroke-dasharray:none;stroke-dashoffset:0;stroke-opacity:1"
         inkscape:connector-curvature="0" />
      <ellipse
         transform="matrix(2.3575641,0,0,1.9449905,85.143179,-441.00813)"
         id="path4235"
         style="opacity:1;fill:url(#linearGradient4549);fill-opacity:1;fill-rule:nonzero;stroke:none;stroke-width:0.5;stroke-linecap:round;stroke-linejoin:round;stroke-miterlimit:4;stroke-dasharray:none;stroke-dashoffset:0;stroke-opacity:1;filter:url(#filter4141)"
         cx="115.915"
         cy="261.91782"
         rx="8.3337584"
         ry="10.101525" />
      <path
         id="path4219"
         d="m 355.01124,54.025842 -0.46184,2.586318 c -1.27673,0.431666 -2.40744,1.090776 -3.41763,1.939731 l -3.32526,-0.2771 1.47788,2.216846 c -0.79365,1.114474 -1.43408,2.412989 -1.755,3.787104 l -1.10841,0.738944 0.92368,0.2771 c -0.0616,0.464447 -0.0924,0.904357 -0.0924,1.385531 0,4.434574 2.71315,8.255701 6.55815,9.883412 1.16199,2.31782 3.57748,3.971848 6.37342,3.971848 3.92604,0 7.11237,-3.144961 7.11237,-7.019994 0,-0.454573 -0.10099,-0.954957 -0.18473,-1.385531 0.95617,-1.603099 1.57026,-3.449501 1.57026,-5.449735 0,-2.526637 -0.93657,-4.81823 -2.40157,-6.650523 l 0.46184,-0.554215 -0.83132,0.09237 c -1.02018,-1.140044 -2.27371,-2.057702 -3.69474,-2.67869 l 0.46184,-1.477887 -2.0321,1.016044 c -0.87201,-0.229538 -1.7349,-0.461844 -2.67868,-0.461844 -0.61401,0 -1.2615,0.08537 -1.84737,0.184744 l -1.10842,-2.124475 z"
         style="fill:#232126;fill-opacity:1;fill-rule:nonzero;stroke:none;stroke-width:10.30000019;stroke-linecap:round;stroke-linejoin:round;stroke-miterlimit:4;stroke-dashoffset:0;stroke-opacity:1"
         inkscape:connector-curvature="0" />
    </g>
    <path
       style="opacity:1;fill:#000000;fill-opacity:1;fill-rule:evenodd;stroke:none;stroke-width:1px;stroke-linecap:butt;stroke-linejoin:miter;stroke-opacity:1"
       d="m 289.86786,217.06122 0,315 225,0 0,-315 -225,0 z m 9,9 207,0 0,297 -207,0 0,-297 z"
       id="rect4195"
       inkscape:connector-curvature="0" />
    <text
       xml:space="preserve"
       style="font-style:normal;font-weight:normal;font-size:40px;line-height:125%;font-family:sans-serif;text-align:start;letter-spacing:0px;word-spacing:0px;text-anchor:start;fill:#000000;fill-opacity:1;stroke:none;stroke-width:1px;stroke-linecap:butt;stroke-linejoin:miter;stroke-opacity:1"
       x="301.58508"
       y="-310.76715"
       id="text4514"
       sodipodi:linespacing="125%"
       transform="matrix(0,1,-1,0,0,0)"><tspan
         sodipodi:role="line"
         x="301.58508"
         y="-310.76715"
         style="font-style:normal;font-variant:normal;font-weight:normal;font-stretch:normal;font-family:'RM Typerighter old';-inkscape-font-specification:'RM Typerighter old';text-align:start;text-anchor:start"
         id="tspan4528">Vesper Lynd</tspan></text>
  </g>
</svg>
