<?xml version="1.0" encoding="UTF-8" standalone="no"?>
<!-- Created with Inkscape (http://www.inkscape.org/) -->

<svg
   xmlns:dc="http://purl.org/dc/elements/1.1/"
   xmlns:cc="http://creativecommons.org/ns#"
   xmlns:rdf="http://www.w3.org/1999/02/22-rdf-syntax-ns#"
   xmlns:svg="http://www.w3.org/2000/svg"
   xmlns="http://www.w3.org/2000/svg"
   xmlns:xlink="http://www.w3.org/1999/xlink"
   xmlns:sodipodi="http://sodipodi.sourceforge.net/DTD/sodipodi-0.dtd"
   xmlns:inkscape="http://www.inkscape.org/namespaces/inkscape"
   width="2.5in"
   height="3.5in"
   viewBox="0 0 225 315"
   id="svg2"
   version="1.1"
   inkscape:version="0.91 r13725"
   sodipodi:docname="4 Vesper.svg">
  <defs
     id="defs4">
    <clipPath
       clipPathUnits="userSpaceOnUse"
       id="clipPath4487">
      <rect
         y="217.06122"
         x="289.86786"
         height="315"
         width="225"
         id="rect4489"
         style="opacity:1;fill:#000000;fill-opacity:1;fill-rule:evenodd;stroke:none;stroke-width:1px;stroke-linecap:butt;stroke-linejoin:miter;stroke-opacity:1" />
    </clipPath>
    <clipPath
       id="clipPath4487-1"
       clipPathUnits="userSpaceOnUse">
      <rect
         style="opacity:1;fill:#000000;fill-opacity:1;fill-rule:evenodd;stroke:none;stroke-width:1px;stroke-linecap:butt;stroke-linejoin:miter;stroke-opacity:1"
         id="rect4489-6"
         width="225"
         height="315"
         x="289.86786"
         y="217.06122" />
    </clipPath>
    <filter
       id="filter4176"
       inkscape:label="Feather"
       style="color-interpolation-filters:sRGB;">
      <feGaussianBlur
         id="feGaussianBlur4178"
         result="blur"
         stdDeviation="3.13" />
      <feComposite
         id="feComposite4180"
         result="composite1"
         operator="atop"
         in2="blur"
         in="SourceGraphic" />
      <feComposite
         id="feComposite4182"
         result="composite2"
         operator="in"
         in2="composite1" />
      <feComposite
         id="feComposite4184"
         result="composite3"
         operator="in"
         in2="composite2" />
    </filter>
    <filter
       id="filter4250"
       inkscape:label="Feather"
       style="color-interpolation-filters:sRGB;">
      <feGaussianBlur
         id="feGaussianBlur4252"
         result="blur"
         stdDeviation="15.8938" />
      <feComposite
         id="feComposite4254"
         result="composite1"
         operator="atop"
         in2="blur"
         in="SourceGraphic" />
      <feComposite
         id="feComposite4256"
         result="composite2"
         operator="in"
         in2="composite1" />
      <feComposite
         id="feComposite4258"
         result="composite3"
         operator="in"
         in2="composite2" />
    </filter>
    <clipPath
       clipPathUnits="userSpaceOnUse"
       id="clipPath4487-7">
      <rect
         y="217.06122"
         x="289.86786"
         height="315"
         width="225"
         id="rect4489-8"
         style="opacity:1;fill:#000000;fill-opacity:1;fill-rule:evenodd;stroke:none;stroke-width:1px;stroke-linecap:butt;stroke-linejoin:miter;stroke-opacity:1" />
    </clipPath>
    <filter
       style="color-interpolation-filters:sRGB;"
       inkscape:label="Feather"
       id="filter4159">
      <feGaussianBlur
         stdDeviation="3.13"
         result="blur"
         id="feGaussianBlur4161" />
      <feComposite
         in="SourceGraphic"
         in2="blur"
         operator="atop"
         result="composite1"
         id="feComposite4163" />
      <feComposite
         in2="composite1"
         operator="in"
         result="composite2"
         id="feComposite4165" />
      <feComposite
         in2="composite2"
         operator="in"
         result="composite3"
         id="feComposite4167" />
    </filter>
    <clipPath
       id="clipPath4359"
       clipPathUnits="userSpaceOnUse">
      <rect
         style="opacity:1;fill:#2d78ba;fill-opacity:1;fill-rule:evenodd;stroke:none;stroke-width:1px;stroke-linecap:butt;stroke-linejoin:miter;stroke-opacity:1"
         id="rect4361"
         width="503.89258"
         height="705.44958"
         x="-1014.7253"
         y="-323.92175" />
    </clipPath>
    <filter
       id="filter4316-3"
       inkscape:label="Feather"
       style="color-interpolation-filters:sRGB">
      <feGaussianBlur
         id="feGaussianBlur4318-7"
         result="blur"
         stdDeviation="5" />
      <feComposite
         id="feComposite4320-6"
         result="composite1"
         operator="atop"
         in2="blur"
         in="SourceGraphic" />
      <feComposite
         id="feComposite4322-7"
         result="composite2"
         operator="in"
         in2="composite1" />
      <feComposite
         id="feComposite4324-4"
         result="composite3"
         operator="in"
         in2="composite2" />
    </filter>
    <clipPath
       clipPathUnits="userSpaceOnUse"
       id="clipPath4337">
      <rect
         style="opacity:1;fill:#442a0b;fill-opacity:1;fill-rule:evenodd;stroke:none;stroke-width:1px;stroke-linecap:butt;stroke-linejoin:miter;stroke-opacity:1"
         id="rect4339"
         width="270.94666"
         height="379.32532"
         x="-368.42249"
         y="-89.32235" />
    </clipPath>
    <clipPath
       id="clipPath4487-6"
       clipPathUnits="userSpaceOnUse">
      <rect
         style="opacity:1;fill:#000000;fill-opacity:1;fill-rule:evenodd;stroke:none;stroke-width:1px;stroke-linecap:butt;stroke-linejoin:miter;stroke-opacity:1"
         id="rect4489-0"
         width="225"
         height="315"
         x="289.86786"
         y="217.06122" />
    </clipPath>
    <clipPath
       id="clipPath4644"
       clipPathUnits="userSpaceOnUse">
      <rect
         style="opacity:1;fill:#1b3a55;fill-opacity:1;fill-rule:evenodd;stroke:none;stroke-width:1px;stroke-linecap:butt;stroke-linejoin:miter;stroke-opacity:1"
         id="rect4646"
         width="225"
         height="315"
         x="289.86786"
         y="217.06122" />
    </clipPath>
    <clipPath
       clipPathUnits="userSpaceOnUse"
       id="clipPath4487-7-5">
      <rect
         y="217.06122"
         x="289.86786"
         height="315"
         width="225"
         id="rect4489-1"
         style="opacity:1;fill:#000000;fill-opacity:1;fill-rule:evenodd;stroke:none;stroke-width:1px;stroke-linecap:butt;stroke-linejoin:miter;stroke-opacity:1" />
    </clipPath>
    <clipPath
       clipPathUnits="userSpaceOnUse"
       id="clipPath4644-9">
      <rect
         y="217.06122"
         x="289.86786"
         height="315"
         width="225"
         id="rect4646-0"
         style="opacity:1;fill:#1b3a55;fill-opacity:1;fill-rule:evenodd;stroke:none;stroke-width:1px;stroke-linecap:butt;stroke-linejoin:miter;stroke-opacity:1" />
    </clipPath>
    <filter
       style="color-interpolation-filters:sRGB;"
       inkscape:label="Feather"
       id="filter4169">
      <feGaussianBlur
         stdDeviation="64.59"
         result="blur"
         id="feGaussianBlur4171" />
      <feComposite
         in="SourceGraphic"
         in2="blur"
         operator="atop"
         result="composite1"
         id="feComposite4173" />
      <feComposite
         in2="composite1"
         operator="in"
         result="composite2"
         id="feComposite4175" />
      <feComposite
         in2="composite2"
         operator="in"
         result="composite3"
         id="feComposite4177" />
    </filter>
    <clipPath
       clipPathUnits="userSpaceOnUse"
       id="clipPath4185">
      <rect
         style="opacity:0.21400003;fill:#ff0000;fill-opacity:1"
         id="rect4187"
         width="628.57141"
         height="874.28571"
         x="544.15356"
         y="-656.51019" />
    </clipPath>
    <filter
       style="color-interpolation-filters:sRGB;"
       inkscape:label="Lightness-Contrast"
       id="filter4249">
      <feColorMatrix
         values="9.021 0 0 4.07103 -4.0105 0 9.021 0 4.07103 -4.0105 0 0 9.021 4.07103 -4.0105 0 0 0 1 0"
         id="feColorMatrix4251" />
    </filter>
    <filter
       style="color-interpolation-filters:sRGB;"
       inkscape:label="Feather"
       id="filter4283">
      <feGaussianBlur
         stdDeviation="3.13"
         result="blur"
         id="feGaussianBlur4285" />
      <feComposite
         in="SourceGraphic"
         in2="blur"
         operator="atop"
         result="composite1"
         id="feComposite4287" />
      <feComposite
         in2="composite1"
         operator="in"
         result="composite2"
         id="feComposite4289" />
      <feComposite
         in2="composite2"
         operator="in"
         result="composite3"
         id="feComposite4291" />
    </filter>
    <filter
       style="color-interpolation-filters:sRGB;"
       inkscape:label="Brilliance"
       id="filter4564">
      <feColorMatrix
         values="2.86 -0.3 -0.3 0 0 -0.3 2.86 -0.3 0 0 -0.3 -0.3 2.86 0 0 0 0 0 1 0 "
         id="feColorMatrix4566" />
    </filter>
    <clipPath
       clipPathUnits="userSpaceOnUse"
       id="clipPath5019">
      <rect
         style="opacity:1;fill:#1b3a55;fill-opacity:1;fill-rule:evenodd;stroke:none;stroke-width:1px;stroke-linecap:butt;stroke-linejoin:miter;stroke-opacity:1"
         id="rect5021"
         width="652.47577"
         height="913.46606"
         x="634.9552"
         y="-611.30554" />
    </clipPath>
    <filter
       id="filter4316"
       inkscape:label="Feather"
       style="color-interpolation-filters:sRGB;">
      <feGaussianBlur
         id="feGaussianBlur4318"
         result="blur"
         stdDeviation="5" />
      <feComposite
         id="feComposite4320"
         result="composite1"
         operator="atop"
         in2="blur"
         in="SourceGraphic" />
      <feComposite
         id="feComposite4322"
         result="composite2"
         operator="in"
         in2="composite1" />
      <feComposite
         id="feComposite4324"
         result="composite3"
         operator="in"
         in2="composite2" />
    </filter>
    <clipPath
       clipPathUnits="userSpaceOnUse"
       id="clipPath5019-2">
      <rect
         style="opacity:1;fill:#1b3a55;fill-opacity:1;fill-rule:evenodd;stroke:none;stroke-width:1px;stroke-linecap:butt;stroke-linejoin:miter;stroke-opacity:1"
         id="rect5021-4"
         width="652.47577"
         height="913.46606"
         x="634.9552"
         y="-611.30554" />
    </clipPath>
    <filter
       style="color-interpolation-filters:sRGB"
       inkscape:label="Brilliance"
       id="filter4564-0">
      <feColorMatrix
         values="2.86 -0.3 -0.3 0 0 -0.3 2.86 -0.3 0 0 -0.3 -0.3 2.86 0 0 0 0 0 1 0 "
         id="feColorMatrix4566-8" />
    </filter>
    <filter
       style="color-interpolation-filters:sRGB"
       inkscape:label="Feather"
       id="filter4283-3">
      <feGaussianBlur
         stdDeviation="3.13"
         result="blur"
         id="feGaussianBlur4285-8" />
      <feComposite
         in="SourceGraphic"
         in2="blur"
         operator="atop"
         result="composite1"
         id="feComposite4287-4" />
      <feComposite
         in2="composite1"
         operator="in"
         result="composite2"
         id="feComposite4289-2" />
      <feComposite
         in2="composite2"
         operator="in"
         result="composite3"
         id="feComposite4291-5" />
    </filter>
    <linearGradient
       id="linearGradient4089"
       inkscape:collect="always">
      <stop
         id="stop4091"
         offset="0"
         style="stop-color:#636a72;stop-opacity:1;" />
      <stop
         style="stop-color:#636a72;stop-opacity:1"
         offset="0.41579732"
         id="stop4097" />
      <stop
         id="stop4099"
         offset="0.51492357"
         style="stop-color:#c4c4c6;stop-opacity:1" />
      <stop
         id="stop4093"
         offset="1"
         style="stop-color:#e7e7e7;stop-opacity:1" />
    </linearGradient>
    <filter
       id="filter4141"
       inkscape:collect="always">
      <feGaussianBlur
         id="feGaussianBlur4143"
         stdDeviation="0.35044037"
         inkscape:collect="always" />
    </filter>
    <clipPath
       id="clipPath4359-9"
       clipPathUnits="userSpaceOnUse">
      <rect
         style="opacity:1;fill:#2d78ba;fill-opacity:1;fill-rule:evenodd;stroke:none;stroke-width:1px;stroke-linecap:butt;stroke-linejoin:miter;stroke-opacity:1"
         id="rect4361-8"
         width="503.89258"
         height="705.44958"
         x="-1014.7253"
         y="-323.92175" />
    </clipPath>
    <linearGradient
       inkscape:collect="always"
       xlink:href="#linearGradient4089"
       id="linearGradient4549"
       gradientUnits="userSpaceOnUse"
       x1="111.26731"
       y1="255.70152"
       x2="120.72295"
       y2="269.10541" />
    <clipPath
       clipPathUnits="userSpaceOnUse"
       id="clipPath4602">
      <rect
         y="210.70894"
         x="268.87155"
         height="310.40723"
         width="221.71944"
         id="rect4604"
         style="opacity:1;fill:#42004f;fill-opacity:1;fill-rule:evenodd;stroke:none;stroke-width:1px;stroke-linecap:butt;stroke-linejoin:miter;stroke-opacity:1" />
    </clipPath>
    <filter
       style="color-interpolation-filters:sRGB;"
       inkscape:label="Feather"
       id="filter4337">
      <feGaussianBlur
         stdDeviation="1.03"
         result="blur"
         id="feGaussianBlur4339" />
      <feComposite
         in="SourceGraphic"
         in2="blur"
         operator="atop"
         result="composite1"
         id="feComposite4341" />
      <feComposite
         in2="composite1"
         operator="in"
         result="composite2"
         id="feComposite4343" />
      <feComposite
         in2="composite2"
         operator="in"
         result="composite3"
         id="feComposite4345" />
    </filter>
    <clipPath
       clipPathUnits="userSpaceOnUse"
       id="clipPath4360">
      <path
         inkscape:connector-curvature="0"
         id="path4362"
         d="m -133.70294,521.42533 0,315 225,0 0,-315 z"
         style="opacity:1;fill:#000000;fill-opacity:1;fill-rule:evenodd;stroke:none;stroke-width:1px;stroke-linecap:butt;stroke-linejoin:miter;stroke-opacity:1"
         sodipodi:nodetypes="ccccc" />
    </clipPath>
  </defs>
  <sodipodi:namedview
     id="base"
     pagecolor="#ffffff"
     bordercolor="#666666"
     borderopacity="1.0"
     inkscape:pageopacity="0.0"
     inkscape:pageshadow="2"
     inkscape:zoom="0.98994949"
     inkscape:cx="69.398915"
     inkscape:cy="161.24233"
     inkscape:document-units="in"
     inkscape:current-layer="layer1"
     showgrid="false"
     inkscape:window-width="1536"
     inkscape:window-height="801"
     inkscape:window-x="-8"
     inkscape:window-y="-8"
     inkscape:window-maximized="1"
     fit-margin-top="0"
     fit-margin-left="0"
     fit-margin-right="0"
     fit-margin-bottom="0"
     units="in"
     borderlayer="true" />
  <metadata
     id="metadata7">
    <rdf:RDF>
      <cc:Work
         rdf:about="">
        <dc:format>image/svg+xml</dc:format>
        <dc:type
           rdf:resource="http://purl.org/dc/dcmitype/StillImage" />
        <dc:title />
      </cc:Work>
    </rdf:RDF>
  </metadata>
  <g
     inkscape:label="Layer 1"
     inkscape:groupmode="layer"
     id="layer1"
     transform="translate(-289.86786,-217.06122)">
    <g
       id="g4355"
       transform="translate(423.5708,-304.36411)"
       clip-path="url(#clipPath4360)">
      <image
         transform="scale(-1,1)"
         width="209.93088"
         height="315.46677"
         preserveAspectRatio="none"
         xlink:href="file:///../Source%20photos/vesper%20lynd%20with%20tons%20of%20background%20noise.jpg"
         id="image4152"
         x="-105.45276"
         y="523.45343"
         sodipodi:absref="..\Source photos\vesper lynd with tons of background noise.jpg" />
      <path
         sodipodi:nodetypes="cccccccscscscscscsscscsscssccsscsccssscccccscccscsccscssccccsccccccssscc"
         inkscape:connector-curvature="0"
         id="rect4379"
         d="m 212.22962,490.84392 0,397.56909 -415.69358,0 0,-397.56909 z M 102.053,525.59025 -41.937522,524.83664 c 0,0 -8.08482,5.54542 -9.77758,8.93092 -1.69276,3.3855 -2.77412,11.35322 -2.77412,11.35322 0,0 -1.51521,5.32607 -2.41561,9.82807 -0.9004,4.502 1.20466,9.11184 1.20466,9.11184 0,0 -2.34079,5.94274 -1.90859,7.52745 0.43219,1.5847 3.92764,3.9344 3.92764,3.9344 0,0 0.22334,9.06228 1.98813,11.33129 1.76478,2.269 6.36218,6.41477 6.36218,6.41477 0,0 -1.51408,1.60805 1.5833,7.76679 3.09737,6.15873 7.81155,8.47249 7.81155,8.47249 0,0 1.44558,13.23233 1.87777,14.92508 0.43219,1.69275 3.36724,8.61608 3.97951,10.16476 0.61228,1.54869 7.05503,13.19569 7.05503,13.19569 0,0 -2.69386,2.13901 -2.62183,3.39956 0.0721,1.26057 0.76118,1.42246 0.76118,1.42246 0,0 -0.87237,2.67809 -0.58424,3.86662 0.28813,1.18852 1.2227,2.84426 3.41968,3.1684 2.19698,0.32414 3.65619,-3.00773 3.65619,-3.00773 0,0 7.84959,12.78274 10.3963003,16.65375 2.54671,3.87101 7.50961002,8.65899 8.93576002,9.47394 1.42616998,0.81495 4.45751998,1.65849 4.45751998,1.65849 l 1.47069,7.87965 c 0,0 -8.96404,7.89283 -10.89954,10.43955 -1.9355,2.54671 -4.75925,9.01775 -6.1854103,12.17568 -1.42616,3.15792 -4.5108,7.38745 -4.5108,7.38745 0,0 -19.72158,29.44672 -21.04587,31.48408 -1.32429,2.03738 -10.23977,19.22005 -10.23977,19.22005 l -7.41639,8.45311 c 0,0 -11.89415,10.43514 -14.74646,12.87998 -2.85232,2.44486 -6.78929,9.46219 -9.0304,13.3332 -2.24111,3.87101 -3.2594,11.33133 -3.05567,16.6285 0.20374,5.29717 1.8132,12.53197 1.8132,12.53197 l 181.726792,-0.98149 0.4634,-120.60386 c 0,0 -6.161623,-9.07491 -7.062053,-10.26344 -0.90039,-1.18853 -10.414436,-12.41802 -10.414436,-12.41802 0,0 2.657707,-1.08587 2.549667,-1.69814 -0.10805,-0.61226 -1.63336,-1.37584 -1.63336,-1.37584 l 0.322301,-1.62525 -1.27188,-5.06105 c 0,0 -2.356017,-3.03277 -2.680147,-3.60902 -0.32415,-0.57626 0.314419,-2.40546 -0.297841,-2.7296 -0.61227,-0.32415 -2.156923,0.71878 -1.796763,1.51114 0.36017,0.79235 1.29639,2.90817 1.29639,2.90817 l -5.180516,-2.92422 c 0,0 -4.232324,-7.64063 -5.708964,-12.46677 -1.47665,-4.82615 -1.11714,-11.85031 -1.11714,-11.85031 0,0 1.40517,1.73824 2.12549,1.45012 0.72029,-0.28813 0.65699,-0.3428 2.06162,-1.02709 1.40463,-0.68431 1.79105,-1.97983 2.33127,-3.67258 0.54026,-1.69275 -1.82836,-3.15184 -1.82836,-3.15184 0,0 0.72983,-0.25091 0.90989,-1.69155 0.1801,-1.44064 -1.78305,-3.86289 -1.78305,-3.86289 0,0 1.17083,-2.13444 1.27887,-2.99883 0.10805,-0.86438 -0.77397,-1.3957 -0.77397,-1.3957 l 0.0356,-2.14277 -0.43175,-3.40438 1.72014,-2.10748 1.38697,0.48671 2.16004,-1.49414 c 0,0 -2.13328,-3.23266 0.0277,-2.6564 2.16097,0.57625 5.5548,-2.32133 8.72419,-2.8976 3.16941,-0.57625 8.2994,-4.9136 11.468812,-7.79488 3.16943,-2.88128 2.46214,-6.63145 2.46214,-6.63145 z"
         style="opacity:1;fill:#8f41b9;fill-opacity:1;fill-rule:evenodd;stroke:none;stroke-width:1px;stroke-linecap:butt;stroke-linejoin:miter;stroke-opacity:1;filter:url(#filter4337)" />
    </g>
    <text
       sodipodi:linespacing="125%"
       id="text4568-2"
       y="268.00055"
       x="310.14221"
       style="font-style:normal;font-weight:normal;font-size:80px;line-height:125%;font-family:sans-serif;letter-spacing:0px;word-spacing:0px;fill:#000000;fill-opacity:1;stroke:none;stroke-width:1px;stroke-linecap:butt;stroke-linejoin:miter;stroke-opacity:1"
       xml:space="preserve"><tspan
         id="tspan4570-7"
         style="font-style:normal;font-variant:normal;font-weight:normal;font-stretch:normal;font-size:80px;font-family:'RM Typerighter old';-inkscape-font-specification:'RM Typerighter old';fill:#000000;fill-opacity:1"
         y="268.00055"
         x="310.14221"
         sodipodi:role="line">4</tspan></text>
    <g
       id="g4177"
       transform="matrix(0.22062366,0.13995647,-0.13995647,0.22062366,249.97647,224.95711)">
      <path
         id="path4341"
         d="m 339.50133,31.209705 c 0.9724,5.08544 9.39208,16.81678 -1.5957,15.49482 -4.15422,-3.072907 -12.23987,-0.432983 -5.4183,3.689168 6.00319,6.370415 -3.93827,11.863643 -0.97262,18.601795 -1.44091,8.125043 -11.31625,9.932755 -17.48219,13.413061 -1.35479,4.406672 7.3897,-2.138433 10.19114,-1.442219 2.15845,-2.622943 3.60079,1.563661 6.63643,-2.282571 7.16212,1.053746 8.85474,10.492371 16.06031,12.483823 3.79076,3.162287 1.29663,15.525448 6.47292,13.596668 -0.14422,-5.9715 3.51576,-14.019298 10.8113,-11.759662 4.58618,-1.447486 10.02001,-5.336942 13.50124,-1.501257 -0.0105,-6.333027 2.8895,-13.936127 10.39239,-13.95441 -8.94237,-5.774742 6.83072,-10.315617 10.65436,-13.052671 -3.71303,-3.668176 -15.94977,0.869931 -16.37557,-8.781176 -1.50473,-6.592936 14.57161,-0.481787 4.22024,-4.290017 -6.26159,-0.292181 -12.98471,-4.506359 -7.47798,-10.846208 -2.60712,-5.44628 -10.32528,6.541334 -16.25343,1.654447 -5.38276,-5.358097 -13.82792,4.416875 -17.50274,-4.593136 -1.83639,-2.239587 -3.44977,-4.745742 -5.8618,-6.430455 z m 13.79254,73.451135 c 0.67679,0.17246 0.0529,-0.76007 0,0 z m -30.34359,-26.65 c 0.67788,-1.012543 -1.51265,-0.04846 0,0 z m 8.88333,-11.034034 -0.42502,-0.08317 0.42502,0.08317 z m -0.88833,-2.290965 c -0.68215,-0.08625 0.13985,0.532476 0,0 z M 356.8472,36.212423 c 0.10564,0.351025 0.10564,-0.351024 0,0 z m 0.23377,0 c -0.62215,0.414865 0.41197,0.04034 0,0 z m -0.74807,0.327281 c -1.19635,0.956946 0.59203,0.344352 0,0 z m 0.65457,0.467544 c -0.061,0.518787 0.46758,-0.6472 0,0 z m -8.32228,2.431228 c -0.0645,1.297527 0.8643,-0.738989 0,0 z m 0.42079,0.374035 c 0.16701,0.387156 0.27626,-0.432564 0,0 z m 0.51429,2.945526 c 0.72393,0.243886 -0.40796,0.09532 0,0 z m 1.87018,0.374035 c -0.27139,0.211898 -0.038,-0.451849 0,0 z m 1.96368,0.140263 c 0.4062,0.267749 -0.35865,0.04919 0,0 z m 0.46755,0.701316 c -0.50486,0.20518 2.7e-4,-0.845035 0,0 z m -0.79483,0.280526 c -0.46611,0.107064 0.21156,-0.987587 0,0 z m -13.65228,1.823421 c -0.55569,0.718641 0.68146,0.02861 0,0 z m 3.45983,0.32728 -0.0949,-0.129446 0.0949,0.129446 z m -3.45983,0.280527 0,-0.09421 0,0.09421 z m 42.40623,6.078069 c -0.97046,0.177173 1.03546,-0.295996 0,0 z m 2.05719,0.42079 c 0.13915,0.69738 0.43047,-0.538641 0,0 z m -54.09482,11.828858 c 1.11787,0.162032 -1.68515,-0.685187 0,0 z m 0.28053,0.140263 c 0.23538,0.495058 0.39797,-0.792191 0,0 z m 1.07535,0.74807 c 0.54657,0.419952 0.0937,-0.683467 0,0 z m -6.26509,10.285964 c -0.24733,0.535124 0.23326,-0.520717 0,0 z m -3.1793,1.355877 c 1.1507,0.14128 -0.23851,-1.003297 0,0 z m 0.37404,-0.04676 0.0979,-0.10832 -0.0979,0.10832 z m 0.32728,0.187018 c 0.23643,-0.353897 -0.48717,-0.0442 0,0 z m -0.56105,0.420789 c 0.92132,0.748579 -0.0776,-1.068962 0,0 z m 67.93411,0 c 0.39887,0.826857 0.60704,-0.719673 0,0 z m -5.61053,0.280527 c 0.33445,0.60658 0.0236,-0.727558 0,0 z m 8.5093,0.374035 c 0.62464,-0.112555 -0.335,-0.589001 0,0 z m -59.56508,-0.04676 -0.1703,-0.07226 0.1703,0.07226 z m 50.30771,0.280527 c -0.10452,0.988155 0.46695,0.06709 0,0 z m -48.29727,0.233772 c -0.46324,1.128314 -0.44618,-0.919364 0,0 z m -2.665,0.280526 c 0.7244,0.683167 0.0248,-0.547632 0,0 z m -4.67544,0.32728 c 0.58424,2.498181 -1.21985,-0.649878 0,0 z m -2.38447,1.355877 c -1.21318,2.586303 1.3327,-0.543592 0,0 z m 0.0467,0.794825 c -0.0174,2.715734 1.71781,-1.149081 0,0 z m 1.07535,0.04675 c -1.08316,0.811746 1.32603,0.266373 0,0 z m -14.72763,2.431228 c 0.57163,-0.388458 -1.25352,-0.52504 0,0 z m 63.49245,7.15342 c -0.58177,0.893256 0.67475,-0.510976 0,0 z m 3.74035,0.09351 c -0.54172,0.977623 0.4115,-0.267959 0,0 z m -3.2728,0.374035 c -0.10452,0.988156 0.46694,0.06709 0,0 z m 3.50657,1.262368 c -0.92047,1.024827 0.8483,-0.290939 0,0 z m -0.37403,0.561053 c 0.13055,0.865532 0.60664,-0.644657 0,0 z"
         style="opacity:1;fill:#c4c4c4;fill-opacity:1;fill-rule:nonzero;stroke:none;stroke-width:10.30000019;stroke-linecap:round;stroke-linejoin:round;stroke-miterlimit:4;stroke-dasharray:none;stroke-dashoffset:0;stroke-opacity:1"
         inkscape:connector-curvature="0" />
      <ellipse
         transform="matrix(2.3575641,0,0,1.9449905,85.143179,-441.00813)"
         id="path4235"
         style="opacity:1;fill:url(#linearGradient4549);fill-opacity:1;fill-rule:nonzero;stroke:none;stroke-width:0.5;stroke-linecap:round;stroke-linejoin:round;stroke-miterlimit:4;stroke-dasharray:none;stroke-dashoffset:0;stroke-opacity:1;filter:url(#filter4141)"
         cx="115.915"
         cy="261.91782"
         rx="8.3337584"
         ry="10.101525" />
      <path
         id="path4219"
         d="m 355.01124,54.025842 -0.46184,2.586318 c -1.27673,0.431666 -2.40744,1.090776 -3.41763,1.939731 l -3.32526,-0.2771 1.47788,2.216846 c -0.79365,1.114474 -1.43408,2.412989 -1.755,3.787104 l -1.10841,0.738944 0.92368,0.2771 c -0.0616,0.464447 -0.0924,0.904357 -0.0924,1.385531 0,4.434574 2.71315,8.255701 6.55815,9.883412 1.16199,2.31782 3.57748,3.971848 6.37342,3.971848 3.92604,0 7.11237,-3.144961 7.11237,-7.019994 0,-0.454573 -0.10099,-0.954957 -0.18473,-1.385531 0.95617,-1.603099 1.57026,-3.449501 1.57026,-5.449735 0,-2.526637 -0.93657,-4.81823 -2.40157,-6.650523 l 0.46184,-0.554215 -0.83132,0.09237 c -1.02018,-1.140044 -2.27371,-2.057702 -3.69474,-2.67869 l 0.46184,-1.477887 -2.0321,1.016044 c -0.87201,-0.229538 -1.7349,-0.461844 -2.67868,-0.461844 -0.61401,0 -1.2615,0.08537 -1.84737,0.184744 l -1.10842,-2.124475 z"
         style="fill:#232126;fill-opacity:1;fill-rule:nonzero;stroke:none;stroke-width:10.30000019;stroke-linecap:round;stroke-linejoin:round;stroke-miterlimit:4;stroke-dashoffset:0;stroke-opacity:1"
         inkscape:connector-curvature="0" />
    </g>
    <text
       xml:space="preserve"
       style="font-style:normal;font-weight:normal;font-size:40px;line-height:125%;font-family:sans-serif;text-align:start;letter-spacing:0px;word-spacing:0px;text-anchor:start;fill:#000000;fill-opacity:1;stroke:none;stroke-width:1px;stroke-linecap:butt;stroke-linejoin:miter;stroke-opacity:1"
       x="308.65616"
       y="-313.79761"
       id="text4514"
       sodipodi:linespacing="125%"
       transform="matrix(0,1,-1,0,0,0)"><tspan
         sodipodi:role="line"
         x="308.65616"
         y="-313.79761"
         style="font-style:normal;font-variant:normal;font-weight:normal;font-stretch:normal;font-family:'RM Typerighter old';-inkscape-font-specification:'RM Typerighter old';text-align:start;text-anchor:start"
         id="tspan4528">Vesper Lynd</tspan></text>
    <path
       style="opacity:1;fill:#000000;fill-opacity:1;fill-rule:evenodd;stroke:none;stroke-width:1px;stroke-linecap:butt;stroke-linejoin:miter;stroke-opacity:1"
       d="m 289.86786,217.06122 0,315 225,0 0,-315 -225,0 z m 42.75,9 139.5,0 c 18.6975,0 33.75,15.0525 33.75,33.75 l 0,229.5 c 0,18.6975 -15.0525,33.75 -33.75,33.75 l -139.5,0 c -18.6975,0 -33.75,-15.0525 -33.75,-33.75 l 0,-229.5 c 0,-18.6975 15.0525,-33.75 33.75,-33.75 z"
       id="path4250"
       inkscape:connector-curvature="0" />
  </g>
</svg>
