<?xml version="1.0" encoding="UTF-8" standalone="no"?>
<!-- Created with Inkscape (http://www.inkscape.org/) -->

<svg
   xmlns:dc="http://purl.org/dc/elements/1.1/"
   xmlns:cc="http://creativecommons.org/ns#"
   xmlns:rdf="http://www.w3.org/1999/02/22-rdf-syntax-ns#"
   xmlns:svg="http://www.w3.org/2000/svg"
   xmlns="http://www.w3.org/2000/svg"
   xmlns:xlink="http://www.w3.org/1999/xlink"
   xmlns:sodipodi="http://sodipodi.sourceforge.net/DTD/sodipodi-0.dtd"
   xmlns:inkscape="http://www.inkscape.org/namespaces/inkscape"
   width="2.5in"
   height="3.5in"
   viewBox="0 0 225 315"
   id="svg2"
   version="1.1"
   inkscape:version="0.91 r13725"
   sodipodi:docname="5-0 Bond.svg">
  <defs
     id="defs4">
    <clipPath
       clipPathUnits="userSpaceOnUse"
       id="clipPath4487">
      <rect
         y="217.06122"
         x="289.86786"
         height="315"
         width="225"
         id="rect4489"
         style="opacity:1;fill:#000000;fill-opacity:1;fill-rule:evenodd;stroke:none;stroke-width:1px;stroke-linecap:butt;stroke-linejoin:miter;stroke-opacity:1" />
    </clipPath>
    <clipPath
       id="clipPath4487-9"
       clipPathUnits="userSpaceOnUse">
      <rect
         style="opacity:1;fill:#000000;fill-opacity:1;fill-rule:evenodd;stroke:none;stroke-width:1px;stroke-linecap:butt;stroke-linejoin:miter;stroke-opacity:1"
         id="rect4489-84"
         width="225"
         height="315"
         x="289.86786"
         y="217.06122" />
    </clipPath>
    <clipPath
       clipPathUnits="userSpaceOnUse"
       id="clipPath4487-1">
      <rect
         y="217.06122"
         x="289.86786"
         height="315"
         width="225"
         id="rect4489-6"
         style="opacity:1;fill:#000000;fill-opacity:1;fill-rule:evenodd;stroke:none;stroke-width:1px;stroke-linecap:butt;stroke-linejoin:miter;stroke-opacity:1" />
    </clipPath>
    <filter
       style="color-interpolation-filters:sRGB;"
       inkscape:label="Feather"
       id="filter4176">
      <feGaussianBlur
         stdDeviation="3.13"
         result="blur"
         id="feGaussianBlur4178" />
      <feComposite
         in="SourceGraphic"
         in2="blur"
         operator="atop"
         result="composite1"
         id="feComposite4180" />
      <feComposite
         in2="composite1"
         operator="in"
         result="composite2"
         id="feComposite4182" />
      <feComposite
         in2="composite2"
         operator="in"
         result="composite3"
         id="feComposite4184" />
    </filter>
    <filter
       style="color-interpolation-filters:sRGB;"
       inkscape:label="Feather"
       id="filter4250">
      <feGaussianBlur
         stdDeviation="15.8938"
         result="blur"
         id="feGaussianBlur4252" />
      <feComposite
         in="SourceGraphic"
         in2="blur"
         operator="atop"
         result="composite1"
         id="feComposite4254" />
      <feComposite
         in2="composite1"
         operator="in"
         result="composite2"
         id="feComposite4256" />
      <feComposite
         in2="composite2"
         operator="in"
         result="composite3"
         id="feComposite4258" />
    </filter>
    <clipPath
       id="clipPath4487-7"
       clipPathUnits="userSpaceOnUse">
      <rect
         style="opacity:1;fill:#000000;fill-opacity:1;fill-rule:evenodd;stroke:none;stroke-width:1px;stroke-linecap:butt;stroke-linejoin:miter;stroke-opacity:1"
         id="rect4489-8"
         width="225"
         height="315"
         x="289.86786"
         y="217.06122" />
    </clipPath>
    <filter
       id="filter4159"
       inkscape:label="Feather"
       style="color-interpolation-filters:sRGB;">
      <feGaussianBlur
         id="feGaussianBlur4161"
         result="blur"
         stdDeviation="3.13" />
      <feComposite
         id="feComposite4163"
         result="composite1"
         operator="atop"
         in2="blur"
         in="SourceGraphic" />
      <feComposite
         id="feComposite4165"
         result="composite2"
         operator="in"
         in2="composite1" />
      <feComposite
         id="feComposite4167"
         result="composite3"
         operator="in"
         in2="composite2" />
    </filter>
    <clipPath
       clipPathUnits="userSpaceOnUse"
       id="clipPath4359">
      <rect
         y="-323.92175"
         x="-1014.7253"
         height="705.44958"
         width="503.89258"
         id="rect4361"
         style="opacity:1;fill:#2d78ba;fill-opacity:1;fill-rule:evenodd;stroke:none;stroke-width:1px;stroke-linecap:butt;stroke-linejoin:miter;stroke-opacity:1" />
    </clipPath>
    <filter
       style="color-interpolation-filters:sRGB"
       inkscape:label="Feather"
       id="filter4316-3">
      <feGaussianBlur
         stdDeviation="5"
         result="blur"
         id="feGaussianBlur4318-7" />
      <feComposite
         in="SourceGraphic"
         in2="blur"
         operator="atop"
         result="composite1"
         id="feComposite4320-6" />
      <feComposite
         in2="composite1"
         operator="in"
         result="composite2"
         id="feComposite4322-7" />
      <feComposite
         in2="composite2"
         operator="in"
         result="composite3"
         id="feComposite4324-4" />
    </filter>
    <clipPath
       id="clipPath4337"
       clipPathUnits="userSpaceOnUse">
      <rect
         y="-89.32235"
         x="-368.42249"
         height="379.32532"
         width="270.94666"
         id="rect4339"
         style="opacity:1;fill:#442a0b;fill-opacity:1;fill-rule:evenodd;stroke:none;stroke-width:1px;stroke-linecap:butt;stroke-linejoin:miter;stroke-opacity:1" />
    </clipPath>
    <clipPath
       clipPathUnits="userSpaceOnUse"
       id="clipPath4487-6">
      <rect
         y="217.06122"
         x="289.86786"
         height="315"
         width="225"
         id="rect4489-0"
         style="opacity:1;fill:#000000;fill-opacity:1;fill-rule:evenodd;stroke:none;stroke-width:1px;stroke-linecap:butt;stroke-linejoin:miter;stroke-opacity:1" />
    </clipPath>
    <clipPath
       clipPathUnits="userSpaceOnUse"
       id="clipPath4644">
      <rect
         y="217.06122"
         x="289.86786"
         height="315"
         width="225"
         id="rect4646"
         style="opacity:1;fill:#1b3a55;fill-opacity:1;fill-rule:evenodd;stroke:none;stroke-width:1px;stroke-linecap:butt;stroke-linejoin:miter;stroke-opacity:1" />
    </clipPath>
    <clipPath
       id="clipPath4487-7-5"
       clipPathUnits="userSpaceOnUse">
      <rect
         style="opacity:1;fill:#000000;fill-opacity:1;fill-rule:evenodd;stroke:none;stroke-width:1px;stroke-linecap:butt;stroke-linejoin:miter;stroke-opacity:1"
         id="rect4489-1"
         width="225"
         height="315"
         x="289.86786"
         y="217.06122" />
    </clipPath>
    <clipPath
       id="clipPath4644-9"
       clipPathUnits="userSpaceOnUse">
      <rect
         style="opacity:1;fill:#1b3a55;fill-opacity:1;fill-rule:evenodd;stroke:none;stroke-width:1px;stroke-linecap:butt;stroke-linejoin:miter;stroke-opacity:1"
         id="rect4646-0"
         width="225"
         height="315"
         x="289.86786"
         y="217.06122" />
    </clipPath>
    <filter
       id="filter4169"
       inkscape:label="Feather"
       style="color-interpolation-filters:sRGB;">
      <feGaussianBlur
         id="feGaussianBlur4171"
         result="blur"
         stdDeviation="64.59" />
      <feComposite
         id="feComposite4173"
         result="composite1"
         operator="atop"
         in2="blur"
         in="SourceGraphic" />
      <feComposite
         id="feComposite4175"
         result="composite2"
         operator="in"
         in2="composite1" />
      <feComposite
         id="feComposite4177"
         result="composite3"
         operator="in"
         in2="composite2" />
    </filter>
    <clipPath
       id="clipPath4185"
       clipPathUnits="userSpaceOnUse">
      <rect
         y="-656.51019"
         x="544.15356"
         height="874.28571"
         width="628.57141"
         id="rect4187"
         style="opacity:0.21400003;fill:#ff0000;fill-opacity:1" />
    </clipPath>
    <filter
       id="filter4249"
       inkscape:label="Lightness-Contrast"
       style="color-interpolation-filters:sRGB;">
      <feColorMatrix
         id="feColorMatrix4251"
         values="9.021 0 0 4.07103 -4.0105 0 9.021 0 4.07103 -4.0105 0 0 9.021 4.07103 -4.0105 0 0 0 1 0" />
    </filter>
    <filter
       id="filter4283"
       inkscape:label="Feather"
       style="color-interpolation-filters:sRGB;">
      <feGaussianBlur
         id="feGaussianBlur4285"
         result="blur"
         stdDeviation="3.13" />
      <feComposite
         id="feComposite4287"
         result="composite1"
         operator="atop"
         in2="blur"
         in="SourceGraphic" />
      <feComposite
         id="feComposite4289"
         result="composite2"
         operator="in"
         in2="composite1" />
      <feComposite
         id="feComposite4291"
         result="composite3"
         operator="in"
         in2="composite2" />
    </filter>
    <filter
       id="filter4564"
       inkscape:label="Brilliance"
       style="color-interpolation-filters:sRGB;">
      <feColorMatrix
         id="feColorMatrix4566"
         values="2.86 -0.3 -0.3 0 0 -0.3 2.86 -0.3 0 0 -0.3 -0.3 2.86 0 0 0 0 0 1 0 " />
    </filter>
    <clipPath
       id="clipPath5019"
       clipPathUnits="userSpaceOnUse">
      <rect
         y="-611.30554"
         x="634.9552"
         height="913.46606"
         width="652.47577"
         id="rect5021"
         style="opacity:1;fill:#1b3a55;fill-opacity:1;fill-rule:evenodd;stroke:none;stroke-width:1px;stroke-linecap:butt;stroke-linejoin:miter;stroke-opacity:1" />
    </clipPath>
    <filter
       style="color-interpolation-filters:sRGB;"
       inkscape:label="Feather"
       id="filter4316">
      <feGaussianBlur
         stdDeviation="5"
         result="blur"
         id="feGaussianBlur4318" />
      <feComposite
         in="SourceGraphic"
         in2="blur"
         operator="atop"
         result="composite1"
         id="feComposite4320" />
      <feComposite
         in2="composite1"
         operator="in"
         result="composite2"
         id="feComposite4322" />
      <feComposite
         in2="composite2"
         operator="in"
         result="composite3"
         id="feComposite4324" />
    </filter>
    <clipPath
       id="clipPath5019-2"
       clipPathUnits="userSpaceOnUse">
      <rect
         y="-611.30554"
         x="634.9552"
         height="913.46606"
         width="652.47577"
         id="rect5021-4"
         style="opacity:1;fill:#1b3a55;fill-opacity:1;fill-rule:evenodd;stroke:none;stroke-width:1px;stroke-linecap:butt;stroke-linejoin:miter;stroke-opacity:1" />
    </clipPath>
    <filter
       id="filter4564-0"
       inkscape:label="Brilliance"
       style="color-interpolation-filters:sRGB">
      <feColorMatrix
         id="feColorMatrix4566-8"
         values="2.86 -0.3 -0.3 0 0 -0.3 2.86 -0.3 0 0 -0.3 -0.3 2.86 0 0 0 0 0 1 0 " />
    </filter>
    <filter
       id="filter4283-3"
       inkscape:label="Feather"
       style="color-interpolation-filters:sRGB">
      <feGaussianBlur
         id="feGaussianBlur4285-8"
         result="blur"
         stdDeviation="3.13" />
      <feComposite
         id="feComposite4287-4"
         result="composite1"
         operator="atop"
         in2="blur"
         in="SourceGraphic" />
      <feComposite
         id="feComposite4289-2"
         result="composite2"
         operator="in"
         in2="composite1" />
      <feComposite
         id="feComposite4291-5"
         result="composite3"
         operator="in"
         in2="composite2" />
    </filter>
    <linearGradient
       inkscape:collect="always"
       id="linearGradient4089">
      <stop
         style="stop-color:#636a72;stop-opacity:1;"
         offset="0"
         id="stop4091" />
      <stop
         id="stop4097"
         offset="0.41579732"
         style="stop-color:#636a72;stop-opacity:1" />
      <stop
         style="stop-color:#c4c4c6;stop-opacity:1"
         offset="0.51492357"
         id="stop4099" />
      <stop
         style="stop-color:#e7e7e7;stop-opacity:1"
         offset="1"
         id="stop4093" />
    </linearGradient>
    <filter
       inkscape:collect="always"
       id="filter4141">
      <feGaussianBlur
         inkscape:collect="always"
         stdDeviation="0.35044037"
         id="feGaussianBlur4143" />
    </filter>
    <clipPath
       clipPathUnits="userSpaceOnUse"
       id="clipPath4359-9">
      <rect
         y="-323.92175"
         x="-1014.7253"
         height="705.44958"
         width="503.89258"
         id="rect4361-8"
         style="opacity:1;fill:#2d78ba;fill-opacity:1;fill-rule:evenodd;stroke:none;stroke-width:1px;stroke-linecap:butt;stroke-linejoin:miter;stroke-opacity:1" />
    </clipPath>
    <linearGradient
       y2="269.10541"
       x2="120.72295"
       y1="255.70152"
       x1="111.26731"
       gradientUnits="userSpaceOnUse"
       id="linearGradient4549"
       xlink:href="#linearGradient4089"
       inkscape:collect="always" />
    <clipPath
       id="clipPath4591"
       clipPathUnits="userSpaceOnUse">
      <rect
         transform="scale(-1,1)"
         y="-298.75146"
         x="106.14814"
         height="1120.7036"
         width="800.50262"
         id="rect4593"
         style="opacity:1;fill:#42004f;fill-opacity:1;fill-rule:evenodd;stroke:none;stroke-width:1px;stroke-linecap:butt;stroke-linejoin:miter;stroke-opacity:1" />
    </clipPath>
    <clipPath
       id="clipPath4487-62"
       clipPathUnits="userSpaceOnUse">
      <rect
         style="opacity:1;fill:#000000;fill-opacity:1;fill-rule:evenodd;stroke:none;stroke-width:1px;stroke-linecap:butt;stroke-linejoin:miter;stroke-opacity:1"
         id="rect4489-82"
         width="225"
         height="315"
         x="289.86786"
         y="217.06122" />
    </clipPath>
    <clipPath
       clipPathUnits="userSpaceOnUse"
       id="clipPath4487-1-4">
      <rect
         y="217.06122"
         x="289.86786"
         height="315"
         width="225"
         id="rect4489-6-0"
         style="opacity:1;fill:#000000;fill-opacity:1;fill-rule:evenodd;stroke:none;stroke-width:1px;stroke-linecap:butt;stroke-linejoin:miter;stroke-opacity:1" />
    </clipPath>
    <filter
       style="color-interpolation-filters:sRGB;"
       inkscape:label="Feather"
       id="filter4176-4">
      <feGaussianBlur
         stdDeviation="3.13"
         result="blur"
         id="feGaussianBlur4178-4" />
      <feComposite
         in="SourceGraphic"
         in2="blur"
         operator="atop"
         result="composite1"
         id="feComposite4180-9" />
      <feComposite
         in2="composite1"
         operator="in"
         result="composite2"
         id="feComposite4182-4" />
      <feComposite
         in2="composite2"
         operator="in"
         result="composite3"
         id="feComposite4184-9" />
    </filter>
    <filter
       style="color-interpolation-filters:sRGB;"
       inkscape:label="Feather"
       id="filter4250-3">
      <feGaussianBlur
         stdDeviation="15.8938"
         result="blur"
         id="feGaussianBlur4252-0" />
      <feComposite
         in="SourceGraphic"
         in2="blur"
         operator="atop"
         result="composite1"
         id="feComposite4254-9" />
      <feComposite
         in2="composite1"
         operator="in"
         result="composite2"
         id="feComposite4256-5" />
      <feComposite
         in2="composite2"
         operator="in"
         result="composite3"
         id="feComposite4258-8" />
    </filter>
    <clipPath
       id="clipPath4487-7-3"
       clipPathUnits="userSpaceOnUse">
      <rect
         style="opacity:1;fill:#000000;fill-opacity:1;fill-rule:evenodd;stroke:none;stroke-width:1px;stroke-linecap:butt;stroke-linejoin:miter;stroke-opacity:1"
         id="rect4489-8-0"
         width="225"
         height="315"
         x="289.86786"
         y="217.06122" />
    </clipPath>
    <filter
       id="filter4159-8"
       inkscape:label="Feather"
       style="color-interpolation-filters:sRGB;">
      <feGaussianBlur
         id="feGaussianBlur4161-1"
         result="blur"
         stdDeviation="3.13" />
      <feComposite
         id="feComposite4163-5"
         result="composite1"
         operator="atop"
         in2="blur"
         in="SourceGraphic" />
      <feComposite
         id="feComposite4165-7"
         result="composite2"
         operator="in"
         in2="composite1" />
      <feComposite
         id="feComposite4167-8"
         result="composite3"
         operator="in"
         in2="composite2" />
    </filter>
    <clipPath
       clipPathUnits="userSpaceOnUse"
       id="clipPath4359-5">
      <rect
         y="-323.92175"
         x="-1014.7253"
         height="705.44958"
         width="503.89258"
         id="rect4361-5"
         style="opacity:1;fill:#2d78ba;fill-opacity:1;fill-rule:evenodd;stroke:none;stroke-width:1px;stroke-linecap:butt;stroke-linejoin:miter;stroke-opacity:1" />
    </clipPath>
    <filter
       style="color-interpolation-filters:sRGB"
       inkscape:label="Feather"
       id="filter4316-3-8">
      <feGaussianBlur
         stdDeviation="5"
         result="blur"
         id="feGaussianBlur4318-7-9" />
      <feComposite
         in="SourceGraphic"
         in2="blur"
         operator="atop"
         result="composite1"
         id="feComposite4320-6-9" />
      <feComposite
         in2="composite1"
         operator="in"
         result="composite2"
         id="feComposite4322-7-4" />
      <feComposite
         in2="composite2"
         operator="in"
         result="composite3"
         id="feComposite4324-4-6" />
    </filter>
    <clipPath
       id="clipPath4337-2"
       clipPathUnits="userSpaceOnUse">
      <rect
         y="-89.32235"
         x="-368.42249"
         height="379.32532"
         width="270.94666"
         id="rect4339-0"
         style="opacity:1;fill:#442a0b;fill-opacity:1;fill-rule:evenodd;stroke:none;stroke-width:1px;stroke-linecap:butt;stroke-linejoin:miter;stroke-opacity:1" />
    </clipPath>
    <clipPath
       clipPathUnits="userSpaceOnUse"
       id="clipPath4487-6-6">
      <rect
         y="217.06122"
         x="289.86786"
         height="315"
         width="225"
         id="rect4489-0-5"
         style="opacity:1;fill:#000000;fill-opacity:1;fill-rule:evenodd;stroke:none;stroke-width:1px;stroke-linecap:butt;stroke-linejoin:miter;stroke-opacity:1" />
    </clipPath>
    <clipPath
       clipPathUnits="userSpaceOnUse"
       id="clipPath4644-0">
      <rect
         y="217.06122"
         x="289.86786"
         height="315"
         width="225"
         id="rect4646-8"
         style="opacity:1;fill:#1b3a55;fill-opacity:1;fill-rule:evenodd;stroke:none;stroke-width:1px;stroke-linecap:butt;stroke-linejoin:miter;stroke-opacity:1" />
    </clipPath>
    <clipPath
       id="clipPath4487-7-5-0"
       clipPathUnits="userSpaceOnUse">
      <rect
         style="opacity:1;fill:#000000;fill-opacity:1;fill-rule:evenodd;stroke:none;stroke-width:1px;stroke-linecap:butt;stroke-linejoin:miter;stroke-opacity:1"
         id="rect4489-1-1"
         width="225"
         height="315"
         x="289.86786"
         y="217.06122" />
    </clipPath>
    <clipPath
       id="clipPath4644-9-4"
       clipPathUnits="userSpaceOnUse">
      <rect
         style="opacity:1;fill:#1b3a55;fill-opacity:1;fill-rule:evenodd;stroke:none;stroke-width:1px;stroke-linecap:butt;stroke-linejoin:miter;stroke-opacity:1"
         id="rect4646-0-1"
         width="225"
         height="315"
         x="289.86786"
         y="217.06122" />
    </clipPath>
    <filter
       id="filter4169-9"
       inkscape:label="Feather"
       style="color-interpolation-filters:sRGB;">
      <feGaussianBlur
         id="feGaussianBlur4171-4"
         result="blur"
         stdDeviation="64.59" />
      <feComposite
         id="feComposite4173-8"
         result="composite1"
         operator="atop"
         in2="blur"
         in="SourceGraphic" />
      <feComposite
         id="feComposite4175-1"
         result="composite2"
         operator="in"
         in2="composite1" />
      <feComposite
         id="feComposite4177-9"
         result="composite3"
         operator="in"
         in2="composite2" />
    </filter>
    <clipPath
       id="clipPath4185-3"
       clipPathUnits="userSpaceOnUse">
      <rect
         y="-656.51019"
         x="544.15356"
         height="874.28571"
         width="628.57141"
         id="rect4187-9"
         style="opacity:0.21400003;fill:#ff0000;fill-opacity:1" />
    </clipPath>
    <filter
       id="filter4249-8"
       inkscape:label="Lightness-Contrast"
       style="color-interpolation-filters:sRGB;">
      <feColorMatrix
         id="feColorMatrix4251-0"
         values="9.021 0 0 4.07103 -4.0105 0 9.021 0 4.07103 -4.0105 0 0 9.021 4.07103 -4.0105 0 0 0 1 0" />
    </filter>
    <filter
       id="filter4283-8"
       inkscape:label="Feather"
       style="color-interpolation-filters:sRGB;">
      <feGaussianBlur
         id="feGaussianBlur4285-2"
         result="blur"
         stdDeviation="3.13" />
      <feComposite
         id="feComposite4287-2"
         result="composite1"
         operator="atop"
         in2="blur"
         in="SourceGraphic" />
      <feComposite
         id="feComposite4289-1"
         result="composite2"
         operator="in"
         in2="composite1" />
      <feComposite
         id="feComposite4291-7"
         result="composite3"
         operator="in"
         in2="composite2" />
    </filter>
    <filter
       id="filter4564-4"
       inkscape:label="Brilliance"
       style="color-interpolation-filters:sRGB;">
      <feColorMatrix
         id="feColorMatrix4566-3"
         values="2.86 -0.3 -0.3 0 0 -0.3 2.86 -0.3 0 0 -0.3 -0.3 2.86 0 0 0 0 0 1 0 " />
    </filter>
    <clipPath
       id="clipPath5019-3"
       clipPathUnits="userSpaceOnUse">
      <rect
         y="-611.30554"
         x="634.9552"
         height="913.46606"
         width="652.47577"
         id="rect5021-44"
         style="opacity:1;fill:#1b3a55;fill-opacity:1;fill-rule:evenodd;stroke:none;stroke-width:1px;stroke-linecap:butt;stroke-linejoin:miter;stroke-opacity:1" />
    </clipPath>
    <filter
       style="color-interpolation-filters:sRGB;"
       inkscape:label="Feather"
       id="filter4316-1">
      <feGaussianBlur
         stdDeviation="5"
         result="blur"
         id="feGaussianBlur4318-8" />
      <feComposite
         in="SourceGraphic"
         in2="blur"
         operator="atop"
         result="composite1"
         id="feComposite4320-2" />
      <feComposite
         in2="composite1"
         operator="in"
         result="composite2"
         id="feComposite4322-4" />
      <feComposite
         in2="composite2"
         operator="in"
         result="composite3"
         id="feComposite4324-8" />
    </filter>
    <clipPath
       id="clipPath5019-2-7"
       clipPathUnits="userSpaceOnUse">
      <rect
         y="-611.30554"
         x="634.9552"
         height="913.46606"
         width="652.47577"
         id="rect5021-4-8"
         style="opacity:1;fill:#1b3a55;fill-opacity:1;fill-rule:evenodd;stroke:none;stroke-width:1px;stroke-linecap:butt;stroke-linejoin:miter;stroke-opacity:1" />
    </clipPath>
    <filter
       id="filter4564-0-4"
       inkscape:label="Brilliance"
       style="color-interpolation-filters:sRGB">
      <feColorMatrix
         id="feColorMatrix4566-8-8"
         values="2.86 -0.3 -0.3 0 0 -0.3 2.86 -0.3 0 0 -0.3 -0.3 2.86 0 0 0 0 0 1 0 " />
    </filter>
    <filter
       id="filter4283-3-1"
       inkscape:label="Feather"
       style="color-interpolation-filters:sRGB">
      <feGaussianBlur
         id="feGaussianBlur4285-8-2"
         result="blur"
         stdDeviation="3.13" />
      <feComposite
         id="feComposite4287-4-3"
         result="composite1"
         operator="atop"
         in2="blur"
         in="SourceGraphic" />
      <feComposite
         id="feComposite4289-2-3"
         result="composite2"
         operator="in"
         in2="composite1" />
      <feComposite
         id="feComposite4291-5-9"
         result="composite3"
         operator="in"
         in2="composite2" />
    </filter>
    <clipPath
       clipPathUnits="userSpaceOnUse"
       id="clipPath4359-9-3">
      <rect
         y="-323.92175"
         x="-1014.7253"
         height="705.44958"
         width="503.89258"
         id="rect4361-8-0"
         style="opacity:1;fill:#2d78ba;fill-opacity:1;fill-rule:evenodd;stroke:none;stroke-width:1px;stroke-linecap:butt;stroke-linejoin:miter;stroke-opacity:1" />
    </clipPath>
    <clipPath
       clipPathUnits="userSpaceOnUse"
       id="clipPath4672">
      <rect
         y="29.610216"
         x="1375.2029"
         height="216.9568"
         width="154.96915"
         id="rect4674"
         style="opacity:1;fill:#42004f;fill-opacity:1;fill-rule:evenodd;stroke:none;stroke-width:1px;stroke-linecap:butt;stroke-linejoin:miter;stroke-opacity:1" />
    </clipPath>
  </defs>
  <sodipodi:namedview
     id="base"
     pagecolor="#ffffff"
     bordercolor="#666666"
     borderopacity="1.0"
     inkscape:pageopacity="0.0"
     inkscape:pageshadow="2"
     inkscape:zoom="0.9899495"
     inkscape:cx="429.9684"
     inkscape:cy="36.078156"
     inkscape:document-units="in"
     inkscape:current-layer="layer1"
     showgrid="false"
     inkscape:window-width="1536"
     inkscape:window-height="801"
     inkscape:window-x="-8"
     inkscape:window-y="-8"
     inkscape:window-maximized="1"
     fit-margin-top="0"
     fit-margin-left="0"
     fit-margin-right="0"
     fit-margin-bottom="0"
     units="in"
     borderlayer="true" />
  <metadata
     id="metadata7">
    <rdf:RDF>
      <cc:Work
         rdf:about="">
        <dc:format>image/svg+xml</dc:format>
        <dc:type
           rdf:resource="http://purl.org/dc/dcmitype/StillImage" />
        <dc:title></dc:title>
      </cc:Work>
    </rdf:RDF>
  </metadata>
  <g
     inkscape:label="Layer 1"
     inkscape:groupmode="layer"
     id="layer1"
     transform="translate(-289.86786,-217.06122)">
    <g
       id="g4656"
       transform="matrix(1.4519019,0,0,1.4519019,-1706.7919,174.07009)"
       clip-path="url(#clipPath4672)">
      <image
         clip-path="none"
         width="966.80554"
         height="966.80554"
         preserveAspectRatio="none"
         xlink:href="file:///C:/Users/spami/Documents/Projects/dead%20drop%20knockoff/Source%20photos/Heineken-James-Bond.jpg"
         id="image4166"
         x="1004.0052"
         y="11.915053"
         sodipodi:absref="C:\Users\spami\Documents\Projects\dead drop knockoff\Source photos\Heineken-James-Bond.jpg" />
      <path
         sodipodi:nodetypes="cccccccccsscsscsscccccccssscssccscccccccccccscccssscscsccscccccsccccscscccccc"
         inkscape:connector-curvature="0"
         id="path4654"
         d="m 907.01071,366.34694 440.48689,-35.05354 7.8287,-16.92005 c 0,0 3.0304,-7.82869 5.8084,-13.63706 2.7779,-5.80838 4.7982,-8.20749 6.9448,-13.00572 2.1465,-4.79822 8.46,-21.2132 8.46,-21.2132 l 2.0203,-1.6415 1.823,-4.80611 0.6472,-1.19955 c 0,0 1.3968,-3.00678 1.5073,-3.46451 0.4418,-1.83093 3.1409,-24.89506 3.1567,-29.35757 0,-1.14344 1.5454,-3.06249 1.5454,-3.06249 0,0 0.4118,-4.07171 1.3588,-5.01873 1.894,-1.89403 20.203,-13.63705 21.592,-14.20526 2.1166,-0.86583 5.8084,-0.25254 5.8084,-0.25254 1.0101,0.0631 12.5006,-4.35629 13.7633,-4.98763 1.2627,-0.63135 10.2278,-6.9448 11.3642,-7.89182 1.1364,-0.94702 9.7227,-14.45781 9.7227,-14.45781 l -0.1262,-9.09137 1.0101,-1.51523 c 0,0 -2.1465,-10.16466 -2.9673,-11.11168 -0.8207,-0.94702 -4.9876,-2.84105 -8.1444,-7.51301 -3.1567,-4.67195 -4.3562,-11.80615 -4.3562,-11.80615 0,0 -1.0733,1.45209 -2.8411,1.38896 -1.7678,-0.0631 -3.2199,-2.58852 -3.4093,-3.78808 -0.1894,-1.19955 -0.4419,-6.12405 -1.5152,-8.58629 -1.0733,-2.46225 -3.283,-3.4724 -3.6618,-4.41942 -0.3788,-0.94702 0.3788,-2.52538 0.1263,-3.34613 -0.2526,-0.82075 -2.7148,-5.4927 -2.9042,-6.81853 -0.1894,-1.32583 0.6313,-3.09359 1.389,-3.09359 l 2.9673,0 c 0,0 -1.1364,-2.39911 -1.389,-3.40927 -0.2525,-1.01015 0.1263,-8.27062 -0.1894,-8.90197 -0.3157,-0.63134 -0.4419,-3.03045 -0.5051,-4.60882 -0.063,-1.57836 0.8839,-5.74524 0.9471,-9.09137 0.063,-3.34613 -0.1263,-5.68211 -0.5683,-8.01809 -0.4419,-2.33597 0.442,-5.24016 0.7577,-5.80837 0.3156,-0.56821 4.2931,-7.26047 5.4295,-8.5863 1.1365,-1.32582 -0.063,-1.8309 0.3157,-2.90419 0.3788,-1.07329 4.4194,-4.98763 5.619,-5.99778 1.1995,-1.01015 3.2198,-1.19956 3.5355,-1.32582 0.3157,-0.12627 4.3563,-3.40927 5.7453,-3.91435 1.3889,-0.50507 11.6798,-0.88388 13.5739,-1.70463 1.894,-0.82075 9.2176,-1.95717 10.4172,-2.0203 1.1995,-0.0631 7.8287,1.51523 10.1015,2.71478 2.2728,1.19956 4.672,4.35628 4.672,4.35628 0,0 1.7046,0.0631 3.4092,1.51523 1.7047,1.4521 2.5254,4.54569 2.5254,4.54569 0,0 7.3867,3.09359 9.9121,4.79822 2.5254,1.70464 9.7859,11.8693 10.5435,13.8896 0.7576,2.02031 1.7678,6.31346 1.7678,9.40705 0,3.09359 -1.1365,16.79378 -1.1365,16.79378 0,0 1.8309,-1.01015 4.0406,-0.75761 2.2098,0.25254 3.7881,4.16688 3.5356,7.07107 -0.2526,2.90419 -3.0305,14.96288 -3.4093,15.59423 -0.3788,0.63134 -2.3991,6.43972 -4.1669,7.57614 -1.7677,1.13642 -3.8512,1.26269 -3.8512,1.26269 0,0 -0.6313,7.70241 -0.6313,8.27063 0,0.56821 -1.389,7.95495 -1.389,7.95495 l 0.7576,0.25253 0.3157,4.04061 2.5254,2.96733 c 0,0 2.6516,-0.75762 4.0406,-0.0631 1.389,0.69448 5.1139,5.93464 6.2503,7.07107 1.1364,1.13642 8.46,7.76554 8.46,7.76554 l 0.3157,1.19956 44.5099,15.46796 c 0,0 5.6821,0.1894 8.7125,2.20971 3.0305,2.0203 8.902,9.59645 10.1647,15.27856 1.2627,5.6821 7.9549,40.21669 7.9549,40.21669 0,0 2.5886,16.92006 2.778,18.62469 0.1894,1.70463 0.2525,12.75318 0.3156,13.82646 0.063,1.07329 1.6415,37.18624 1.6415,37.18624 l 390.2346,0 0,-338.77991 -1103.08663,0 z"
         style="fill:#39783d;fill-opacity:1;fill-rule:evenodd;stroke:none;stroke-width:1px;stroke-linecap:butt;stroke-linejoin:miter;stroke-opacity:1" />
    </g>
    <text
       sodipodi:linespacing="125%"
       id="text4568-2"
       y="260.92944"
       x="309.50015"
       style="font-style:normal;font-weight:normal;font-size:80px;line-height:125%;font-family:sans-serif;letter-spacing:0px;word-spacing:0px;fill:#000000;fill-opacity:1;stroke:none;stroke-width:1px;stroke-linecap:butt;stroke-linejoin:miter;stroke-opacity:1"
       xml:space="preserve"><tspan
         style="font-style:normal;font-variant:normal;font-weight:normal;font-stretch:normal;font-size:80px;font-family:'RM Typerighter old';-inkscape-font-specification:'RM Typerighter old';fill:#000000;fill-opacity:1"
         y="260.92944"
         x="309.50015"
         sodipodi:role="line"
         id="tspan4379">5</tspan></text>
    <g
       id="g4177"
       transform="matrix(0.22062366,0.13995647,-0.13995647,0.22062366,246.94601,264.34254)">
      <path
         id="path4341"
         d="m 339.50133,31.209705 c 0.9724,5.08544 9.39208,16.81678 -1.5957,15.49482 -4.15422,-3.072907 -12.23987,-0.432983 -5.4183,3.689168 6.00319,6.370415 -3.93827,11.863643 -0.97262,18.601795 -1.44091,8.125043 -11.31625,9.932755 -17.48219,13.413061 -1.35479,4.406672 7.3897,-2.138433 10.19114,-1.442219 2.15845,-2.622943 3.60079,1.563661 6.63643,-2.282571 7.16212,1.053746 8.85474,10.492371 16.06031,12.483823 3.79076,3.162287 1.29663,15.525448 6.47292,13.596668 -0.14422,-5.9715 3.51576,-14.019298 10.8113,-11.759662 4.58618,-1.447486 10.02001,-5.336942 13.50124,-1.501257 -0.0105,-6.333027 2.8895,-13.936127 10.39239,-13.95441 -8.94237,-5.774742 6.83072,-10.315617 10.65436,-13.052671 -3.71303,-3.668176 -15.94977,0.869931 -16.37557,-8.781176 -1.50473,-6.592936 14.57161,-0.481787 4.22024,-4.290017 -6.26159,-0.292181 -12.98471,-4.506359 -7.47798,-10.846208 -2.60712,-5.44628 -10.32528,6.541334 -16.25343,1.654447 -5.38276,-5.358097 -13.82792,4.416875 -17.50274,-4.593136 -1.83639,-2.239587 -3.44977,-4.745742 -5.8618,-6.430455 z m 13.79254,73.451135 c 0.67679,0.17246 0.0529,-0.76007 0,0 z m -30.34359,-26.65 c 0.67788,-1.012543 -1.51265,-0.04846 0,0 z m 8.88333,-11.034034 -0.42502,-0.08317 0.42502,0.08317 z m -0.88833,-2.290965 c -0.68215,-0.08625 0.13985,0.532476 0,0 z M 356.8472,36.212423 c 0.10564,0.351025 0.10564,-0.351024 0,0 z m 0.23377,0 c -0.62215,0.414865 0.41197,0.04034 0,0 z m -0.74807,0.327281 c -1.19635,0.956946 0.59203,0.344352 0,0 z m 0.65457,0.467544 c -0.061,0.518787 0.46758,-0.6472 0,0 z m -8.32228,2.431228 c -0.0645,1.297527 0.8643,-0.738989 0,0 z m 0.42079,0.374035 c 0.16701,0.387156 0.27626,-0.432564 0,0 z m 0.51429,2.945526 c 0.72393,0.243886 -0.40796,0.09532 0,0 z m 1.87018,0.374035 c -0.27139,0.211898 -0.038,-0.451849 0,0 z m 1.96368,0.140263 c 0.4062,0.267749 -0.35865,0.04919 0,0 z m 0.46755,0.701316 c -0.50486,0.20518 2.7e-4,-0.845035 0,0 z m -0.79483,0.280526 c -0.46611,0.107064 0.21156,-0.987587 0,0 z m -13.65228,1.823421 c -0.55569,0.718641 0.68146,0.02861 0,0 z m 3.45983,0.32728 -0.0949,-0.129446 0.0949,0.129446 z m -3.45983,0.280527 0,-0.09421 0,0.09421 z m 42.40623,6.078069 c -0.97046,0.177173 1.03546,-0.295996 0,0 z m 2.05719,0.42079 c 0.13915,0.69738 0.43047,-0.538641 0,0 z m -54.09482,11.828858 c 1.11787,0.162032 -1.68515,-0.685187 0,0 z m 0.28053,0.140263 c 0.23538,0.495058 0.39797,-0.792191 0,0 z m 1.07535,0.74807 c 0.54657,0.419952 0.0937,-0.683467 0,0 z m -6.26509,10.285964 c -0.24733,0.535124 0.23326,-0.520717 0,0 z m -3.1793,1.355877 c 1.1507,0.14128 -0.23851,-1.003297 0,0 z m 0.37404,-0.04676 0.0979,-0.10832 -0.0979,0.10832 z m 0.32728,0.187018 c 0.23643,-0.353897 -0.48717,-0.0442 0,0 z m -0.56105,0.420789 c 0.92132,0.748579 -0.0776,-1.068962 0,0 z m 67.93411,0 c 0.39887,0.826857 0.60704,-0.719673 0,0 z m -5.61053,0.280527 c 0.33445,0.60658 0.0236,-0.727558 0,0 z m 8.5093,0.374035 c 0.62464,-0.112555 -0.335,-0.589001 0,0 z m -59.56508,-0.04676 -0.1703,-0.07226 0.1703,0.07226 z m 50.30771,0.280527 c -0.10452,0.988155 0.46695,0.06709 0,0 z m -48.29727,0.233772 c -0.46324,1.128314 -0.44618,-0.919364 0,0 z m -2.665,0.280526 c 0.7244,0.683167 0.0248,-0.547632 0,0 z m -4.67544,0.32728 c 0.58424,2.498181 -1.21985,-0.649878 0,0 z m -2.38447,1.355877 c -1.21318,2.586303 1.3327,-0.543592 0,0 z m 0.0467,0.794825 c -0.0174,2.715734 1.71781,-1.149081 0,0 z m 1.07535,0.04675 c -1.08316,0.811746 1.32603,0.266373 0,0 z m -14.72763,2.431228 c 0.57163,-0.388458 -1.25352,-0.52504 0,0 z m 63.49245,7.15342 c -0.58177,0.893256 0.67475,-0.510976 0,0 z m 3.74035,0.09351 c -0.54172,0.977623 0.4115,-0.267959 0,0 z m -3.2728,0.374035 c -0.10452,0.988156 0.46694,0.06709 0,0 z m 3.50657,1.262368 c -0.92047,1.024827 0.8483,-0.290939 0,0 z m -0.37403,0.561053 c 0.13055,0.865532 0.60664,-0.644657 0,0 z"
         style="opacity:1;fill:#c4c4c4;fill-opacity:1;fill-rule:nonzero;stroke:none;stroke-width:10.30000019;stroke-linecap:round;stroke-linejoin:round;stroke-miterlimit:4;stroke-dasharray:none;stroke-dashoffset:0;stroke-opacity:1"
         inkscape:connector-curvature="0" />
      <ellipse
         transform="matrix(2.3575641,0,0,1.9449905,85.143179,-441.00813)"
         id="path4235"
         style="opacity:1;fill:url(#linearGradient4549);fill-opacity:1;fill-rule:nonzero;stroke:none;stroke-width:0.5;stroke-linecap:round;stroke-linejoin:round;stroke-miterlimit:4;stroke-dasharray:none;stroke-dashoffset:0;stroke-opacity:1;filter:url(#filter4141)"
         cx="115.915"
         cy="261.91782"
         rx="8.3337584"
         ry="10.101525" />
      <path
         id="path4219"
         d="m 355.01124,54.025842 -0.46184,2.586318 c -1.27673,0.431666 -2.40744,1.090776 -3.41763,1.939731 l -3.32526,-0.2771 1.47788,2.216846 c -0.79365,1.114474 -1.43408,2.412989 -1.755,3.787104 l -1.10841,0.738944 0.92368,0.2771 c -0.0616,0.464447 -0.0924,0.904357 -0.0924,1.385531 0,4.434574 2.71315,8.255701 6.55815,9.883412 1.16199,2.31782 3.57748,3.971848 6.37342,3.971848 3.92604,0 7.11237,-3.144961 7.11237,-7.019994 0,-0.454573 -0.10099,-0.954957 -0.18473,-1.385531 0.95617,-1.603099 1.57026,-3.449501 1.57026,-5.449735 0,-2.526637 -0.93657,-4.81823 -2.40157,-6.650523 l 0.46184,-0.554215 -0.83132,0.09237 c -1.02018,-1.140044 -2.27371,-2.057702 -3.69474,-2.67869 l 0.46184,-1.477887 -2.0321,1.016044 c -0.87201,-0.229538 -1.7349,-0.461844 -2.67868,-0.461844 -0.61401,0 -1.2615,0.08537 -1.84737,0.184744 l -1.10842,-2.124475 z"
         style="fill:#232126;fill-opacity:1;fill-rule:nonzero;stroke:none;stroke-width:10.30000019;stroke-linecap:round;stroke-linejoin:round;stroke-miterlimit:4;stroke-dashoffset:0;stroke-opacity:1"
         inkscape:connector-curvature="0" />
    </g>
    <path
       style="opacity:1;fill:#000000;fill-opacity:1;fill-rule:evenodd;stroke:none;stroke-width:1px;stroke-linecap:butt;stroke-linejoin:miter;stroke-opacity:1"
       d="m 289.86786,217.06122 0,315 225,0 0,-315 -225,0 z m 9,9 207,0 0,297 -207,0 0,-297 z"
       id="rect4195"
       inkscape:connector-curvature="0" />
    <text
       xml:space="preserve"
       style="font-style:normal;font-weight:normal;font-size:40px;line-height:125%;font-family:sans-serif;text-align:start;letter-spacing:0px;word-spacing:0px;text-anchor:start;fill:#000000;fill-opacity:1;stroke:none;stroke-width:1px;stroke-linecap:butt;stroke-linejoin:miter;stroke-opacity:1"
       x="348.55719"
       y="-310.76715"
       id="text4514"
       sodipodi:linespacing="125%"
       transform="matrix(0,1,-1,0,0,0)"><tspan
         sodipodi:role="line"
         x="348.55719"
         y="-310.76715"
         style="font-style:normal;font-variant:normal;font-weight:normal;font-stretch:normal;font-family:'RM Typerighter old';-inkscape-font-specification:'RM Typerighter old';text-align:start;text-anchor:start"
         id="tspan4528">James Bond</tspan></text>
    <text
       xml:space="preserve"
       style="font-style:normal;font-weight:normal;font-size:80px;line-height:125%;font-family:sans-serif;letter-spacing:0px;word-spacing:0px;fill:#000000;fill-opacity:1;stroke:none;stroke-width:1px;stroke-linecap:butt;stroke-linejoin:miter;stroke-opacity:1"
       x="308.25015"
       y="310.92944"
       id="text4383"
       sodipodi:linespacing="125%"><tspan
         id="tspan4385"
         sodipodi:role="line"
         x="308.25015"
         y="310.92944"
         style="font-style:normal;font-variant:normal;font-weight:normal;font-stretch:normal;font-size:80px;font-family:'RM Typerighter old';-inkscape-font-specification:'RM Typerighter old';fill:#000000;fill-opacity:1">0</tspan></text>
    <text
       sodipodi:linespacing="125%"
       id="text4387"
       y="-304.3439"
       x="-282.02319"
       style="font-style:normal;font-weight:normal;font-size:80px;line-height:125%;font-family:sans-serif;letter-spacing:0px;word-spacing:0px;fill:#000000;fill-opacity:1;stroke:none;stroke-width:1px;stroke-linecap:butt;stroke-linejoin:miter;stroke-opacity:1"
       xml:space="preserve"
       transform="matrix(0,-1,-1,0,0,0)"><tspan
         style="font-style:normal;font-variant:normal;font-weight:normal;font-stretch:normal;font-size:80px;font-family:'RM Typerighter old';-inkscape-font-specification:'RM Typerighter old';fill:#000000;fill-opacity:1"
         y="-304.3439"
         x="-282.02319"
         sodipodi:role="line"
         id="tspan4389">/</tspan></text>
    <path
       inkscape:connector-curvature="0"
       id="path4441"
       d="m 289.86786,217.06122 0,315 225,0 0,-315 -225,0 z m 9,9 207,0 0,297 -207,0 0,-297 z"
       style="opacity:1;fill:#000000;fill-opacity:1;fill-rule:evenodd;stroke:none;stroke-width:1px;stroke-linecap:butt;stroke-linejoin:miter;stroke-opacity:1" />
  </g>
</svg>
