<?xml version="1.0" encoding="UTF-8" standalone="no"?>
<!-- Generator: Adobe Illustrator 14.0.0, SVG Export Plug-In . SVG Version: 6.00 Build 43363)  -->

<svg
   xmlns:dc="http://purl.org/dc/elements/1.1/"
   xmlns:cc="http://creativecommons.org/ns#"
   xmlns:rdf="http://www.w3.org/1999/02/22-rdf-syntax-ns#"
   xmlns:svg="http://www.w3.org/2000/svg"
   xmlns="http://www.w3.org/2000/svg"
   xmlns:sodipodi="http://sodipodi.sourceforge.net/DTD/sodipodi-0.dtd"
   xmlns:inkscape="http://www.inkscape.org/namespaces/inkscape"
   version="1.1"
   x="0px"
   y="0px"
   width="1048.819px"
   height="850.394px"
   viewBox="0 0 1048.819 850.394"
   enable-background="new 0 0 1048.819 850.394"
   xml:space="preserve"
   id="svg2"
   inkscape:version="0.91 r13725"
   sodipodi:docname="9mm simplified.svg"><metadata
     id="metadata264"><rdf:RDF><cc:Work
         rdf:about=""><dc:format>image/svg+xml</dc:format><dc:type
           rdf:resource="http://purl.org/dc/dcmitype/StillImage" /><dc:title></dc:title></cc:Work></rdf:RDF></metadata><defs
     id="defs262" /><sodipodi:namedview
     pagecolor="#ffffff"
     bordercolor="#666666"
     borderopacity="1"
     objecttolerance="10"
     gridtolerance="10"
     guidetolerance="10"
     inkscape:pageopacity="0"
     inkscape:pageshadow="2"
     inkscape:window-width="1536"
     inkscape:window-height="801"
     id="namedview260"
     showgrid="false"
     inkscape:zoom="0.55490987"
     inkscape:cx="836.16209"
     inkscape:cy="289.114"
     inkscape:window-x="-8"
     inkscape:window-y="-8"
     inkscape:window-maximized="1"
     inkscape:current-layer="svg2" /><path
     style="fill:#898989;fill-opacity:1"
     d="m 511.96094,380.6543 c -35.25412,0 -63.9698,67.37536 -64.26172,150.45117 l 128.5293,0 C 575.9325,448.02966 547.21506,380.6543 511.96094,380.6543 Z"
     id="path4561" /><path
     id="rect4523"
     style="fill:#a99e55;fill-opacity:1"
     d="m 442.76172,807.33008 1.76367,1.77148 134.58399,0 1.88476,-1.77148 -138.23242,0 z m -1.81641,-14.08399 0,11.49805 142.0293,0 0,-11.49805 -5.92969,0 -130.16992,0 -5.92969,0 z m 8.49024,-13.06836 0,10.50586 125.04687,0 0,-10.50586 -125.04687,0 z m -7.08985,-11.75585 6.47461,9.19531 126.2793,0 6.48242,-9.19531 -139.23633,0 z m 0.84375,-234.75586 -2.01562,232.19531 141.58008,0 -2.00782,-232.19531 -1.95703,0 -133.65429,0 -1.94532,0 z" /><path
     style="fill:#212120;fill-opacity:1"
     inkscape:connector-curvature="0"
     id="path258"
     d="m 511.96152,378.09408 c -36.66662,0 -66.51093,68.52367 -66.81105,153.01198 l -4.50126,0 -2.05268,236.43553 8.27834,11.76349 0,11.37939 -8.49037,0 0,15.86834 5.07742,5.10969 136.65504,0 5.41749,-5.08152 0,-15.89651 -8.49037,0 0,-11.37939 8.28244,-11.76349 -2.0404,-236.43553 -4.51303,0 C 578.47246,446.61775 548.62405,378.09408 511.96152,378.09408 Z m 67.14702,431.00769 -134.58238,0 -1.76434,-1.77254 138.23142,0 -1.8847,1.77254 z m 3.86517,-15.85657 0,11.49922 -142.02848,0 0,-11.49922 5.92964,0 130.16921,0 5.92963,0 z m -133.53811,-2.56073 0,-10.5072 125.04775,0 0,10.5072 -125.04775,0 z m 125.66386,-13.06794 -126.27997,0 -6.47405,-9.19456 139.23575,0 -6.48173,9.19456 z m 5.6459,-243.94974 2.00864,232.19444 -141.58086,0 2.01683,-232.19444 1.94462,0 133.65438,0 1.95639,0 z m -4.51764,-2.56073 -128.52881,0 c 0.29192,-83.07581 29.00849,-150.45125 64.26261,-150.45125 35.25412,0 63.97018,67.37544 64.2662,150.45125 z" /></svg>