<?xml version="1.0" encoding="UTF-8" standalone="no"?>
<!-- Generator: Adobe Illustrator 14.0.0, SVG Export Plug-In . SVG Version: 6.00 Build 43363)  -->

<svg
   xmlns:dc="http://purl.org/dc/elements/1.1/"
   xmlns:cc="http://creativecommons.org/ns#"
   xmlns:rdf="http://www.w3.org/1999/02/22-rdf-syntax-ns#"
   xmlns:svg="http://www.w3.org/2000/svg"
   xmlns="http://www.w3.org/2000/svg"
   xmlns:sodipodi="http://sodipodi.sourceforge.net/DTD/sodipodi-0.dtd"
   xmlns:inkscape="http://www.inkscape.org/namespaces/inkscape"
   version="1.1"
   x="0px"
   y="0px"
   width="1048.819px"
   height="850.394px"
   viewBox="0 0 1048.819 850.394"
   enable-background="new 0 0 1048.819 850.394"
   xml:space="preserve"
   id="svg2"
   inkscape:version="0.91 r13725"
   sodipodi:docname="9x19mm_Parabellum.svg"><metadata
     id="metadata264"><rdf:RDF><cc:Work
         rdf:about=""><dc:format>image/svg+xml</dc:format><dc:type
           rdf:resource="http://purl.org/dc/dcmitype/StillImage" /></cc:Work></rdf:RDF></metadata><defs
     id="defs262" /><sodipodi:namedview
     pagecolor="#ffffff"
     bordercolor="#666666"
     borderopacity="1"
     objecttolerance="10"
     gridtolerance="10"
     guidetolerance="10"
     inkscape:pageopacity="0"
     inkscape:pageshadow="2"
     inkscape:window-width="1536"
     inkscape:window-height="801"
     id="namedview260"
     showgrid="false"
     inkscape:zoom="0.78476107"
     inkscape:cx="583.43481"
     inkscape:cy="371.08121"
     inkscape:window-x="-8"
     inkscape:window-y="-8"
     inkscape:window-maximized="1"
     inkscape:current-layer="svg2" /><g
     id="Measurements"><line
       x1="245.689"
       y1="247.639"
       x2="368.72"
       y2="161.506"
       id="line5"
       stroke-width="2.5"
       stroke="#BF2A1D"
       fill="none" /><line
       x1="161.259"
       y1="255.67"
       x2="13.462"
       y2="403.467"
       id="line7"
       stroke-width="2.5"
       stroke="#BF2A1D"
       fill="none" /><line
       x1="135.876"
       y1="388.381"
       x2="1033.376"
       y2="388.381"
       id="line9"
       stroke-dasharray="10,10,10,10,2.5,10"
       stroke-width="2.5"
       stroke="#BF2A1D"
       fill="none" /><path
       d="M424.025,371.295c-2.953-65.805-23.039-129.688-58.141-185.227l4.125-2.781l-11.039-5.375l0.859,12.234   l3.977-2.68c34.844,55.141,54.773,118.539,57.711,183.867l-4.695,0.078l6.312,10.523l5.961-10.734L424.025,371.295z"
       id="path11"
       fill="#BF2A1D" /><g
       id="g13"><path
         d="M284.83,344.014h-1.703v-1.406h-0.039c-0.555,1.148-1.883,1.641-3.297,1.641    c-3.18,0-4.758-2.516-4.758-5.43c0-2.922,1.562-5.383,4.719-5.383c1.055,0,2.578,0.398,3.336,1.617h0.039v-5.312h1.703V344.014z     M280.033,342.756c2.281,0,3.156-1.961,3.156-3.898c0-2.039-0.922-3.922-3.258-3.922c-2.32,0-3.102,1.984-3.102,4    C276.83,340.873,277.83,342.756,280.033,342.756z"
         id="path15"
         fill="#BF2A1D" /><path
         d="M296.267,340.732c-0.461,2.281-2.102,3.516-4.414,3.516c-3.305,0-4.859-2.273-4.961-5.43    c0-3.102,2.039-5.383,4.859-5.383c3.656,0,4.781,3.414,4.68,5.914h-7.734c-0.062,1.805,0.953,3.406,3.211,3.406    c1.398,0,2.383-0.68,2.68-2.023H296.267z M294.634,337.857c-0.086-1.617-1.305-2.922-2.984-2.922    c-1.781,0-2.836,1.344-2.953,2.922H294.634z"
         id="path17"
         fill="#BF2A1D" /><path
         d="M298.291,329.74h1.695v14.273h-1.695V329.74z"
         id="path19"
         fill="#BF2A1D" /><path
         d="M304.994,333.678h2.062v1.5h-2.062v6.414c0,0.781,0.219,0.922,1.281,0.922h0.781v1.5h-1.305    c-1.758,0-2.461-0.367-2.461-2.266v-6.57h-1.758v-1.5h1.758v-3.102h1.703V333.678z"
         id="path21"
         fill="#BF2A1D" /><path
         d="M318.087,343.975c-0.297,0.18-0.68,0.273-1.219,0.273c-0.883,0-1.445-0.477-1.445-1.594    c-0.938,1.102-2.195,1.594-3.633,1.594c-1.875,0-3.422-0.836-3.422-2.891c0-2.344,1.742-2.844,3.508-3.18    c1.875-0.359,3.469-0.242,3.469-1.516c0-1.484-1.219-1.727-2.297-1.727c-1.438,0-2.492,0.445-2.578,1.961h-1.695    c0.102-2.555,2.078-3.461,4.375-3.461c1.859,0,3.883,0.422,3.883,2.844v5.312c0,0.797,0,1.164,0.531,1.164    c0.141,0,0.305-0.023,0.523-0.102V343.975z M315.33,338.678c-0.656,0.477-1.938,0.492-3.078,0.695    c-1.125,0.203-2.078,0.602-2.078,1.859c0,1.117,0.953,1.523,2,1.523c2.234,0,3.156-1.398,3.156-2.344V338.678z"
         id="path23"
         fill="#BF2A1D" /><path
         d="M333.869,335.912c0.266,0.023,0.508,0.023,0.742,0.023c1.438,0,2.703-0.781,2.703-2.32    c0-1.477-1.086-2.273-2.523-2.273c-1.859,0-2.656,1.414-2.68,3.078h-1.695c0.102-2.703,1.539-4.578,4.375-4.578    c2.461,0,4.32,1.18,4.32,3.797c0,1.234-0.883,2.32-1.961,2.82v0.039c1.719,0.383,2.562,1.734,2.562,3.438    c0,2.836-2.227,4.312-4.883,4.312c-2.875,0-4.773-1.695-4.719-4.617h1.703c0.062,1.844,1.078,3.125,3.016,3.125    c1.664,0,3.078-1.023,3.078-2.742c0-1.781-1.336-2.719-3.016-2.719c-0.336,0-0.703,0.023-1.023,0.062V335.912z"
         id="path25"
         fill="#BF2A1D" /><path
         d="M350.025,331.584h-5.719l-0.758,4.07l0.047,0.039c0.617-0.695,1.672-1.016,2.633-1.016    c2.523,0,4.578,1.617,4.578,4.859c0,2.391-1.656,4.711-4.961,4.711c-2.453,0-4.453-1.492-4.516-4.055h1.703    c0.102,1.461,1.273,2.562,2.977,2.562c1.617,0,3-1.102,3-3.359c0-1.875-1.305-3.219-3.203-3.219c-1.078,0-1.977,0.539-2.633,1.344    l-1.461-0.086l1.32-7.352h6.992V331.584z"
         id="path27"
         fill="#BF2A1D" /><path
         d="M353.408,341.795h2.219v2.016c0,1.5-0.656,2.703-2.195,3.141v-1c0.898-0.297,1.195-1.297,1.156-1.938    h-1.18V341.795z"
         id="path29"
         fill="#BF2A1D" /><path
         d="M362.869,329.842c4.438,0,4.719,4.078,4.719,7.211c0,3.125-0.281,7.195-4.719,7.195    s-4.719-4.07-4.719-7.195C358.15,333.92,358.431,329.842,362.869,329.842z M362.869,342.756c2.898,0,2.922-3.602,2.922-5.719    c0-2.102-0.023-5.695-2.922-5.695s-2.922,3.594-2.922,5.695C359.947,339.154,359.97,342.756,362.869,342.756z"
         id="path31"
         fill="#BF2A1D" /><path
         d="M373.994,329.842c4.438,0,4.711,4.078,4.711,7.211c0,3.125-0.273,7.195-4.711,7.195    s-4.719-4.07-4.719-7.195C369.275,333.92,369.556,329.842,373.994,329.842z M373.994,342.756c2.898,0,2.914-3.602,2.914-5.719    c0-2.102-0.016-5.695-2.914-5.695s-2.922,3.594-2.922,5.695C371.072,339.154,371.095,342.756,373.994,342.756z"
         id="path33"
         fill="#BF2A1D" /><path
         d="M386.728,333.154c0,1.922-1.141,3.258-3.32,3.258c-2.117,0-3.359-1.359-3.359-3.258    c0-1.859,1.164-3.312,3.344-3.312S386.728,331.279,386.728,333.154z M381.416,333.154c0,1.203,0.555,2.266,1.992,2.266    c1.422,0,1.961-1.039,1.961-2.242c0-1.938-1.117-2.344-1.977-2.344C382.314,330.834,381.416,331.561,381.416,333.154z"
         id="path35"
         fill="#BF2A1D" /></g><path
       d="M157.705,453.74l-10.516-6.328l-0.078,4.516c-41.93-2.992-82.172-19.547-114.094-47l3.453-3.211   l-11.75-3.594l2.766,11.977l3.688-3.438c32.391,27.922,73.289,44.766,115.891,47.781l-0.094,5.242L157.705,453.74z"
       id="path37"
       fill="#BF2A1D" /><g
       id="g39"><path
         d="M103.173,398.178h1.703v5.336h0.039c0.562-1.141,1.883-1.641,3.297-1.641c3.18,0,4.758,2.523,4.758,5.438    c0,2.922-1.555,5.375-4.719,5.375c-1.055,0-2.578-0.391-3.336-1.617h-0.039v1.383h-1.703V398.178z M107.978,403.373    c-2.281,0-3.164,1.969-3.164,3.898c0,2.031,0.922,3.922,3.258,3.922c2.32,0,3.102-1.984,3.102-4    C111.173,405.256,110.173,403.373,107.978,403.373z"
         id="path41"
         fill="#BF2A1D" /><path
         d="M123.791,409.17c-0.461,2.281-2.094,3.516-4.414,3.516c-3.297,0-4.859-2.273-4.961-5.43    c0-3.109,2.039-5.383,4.859-5.383c3.656,0,4.781,3.414,4.68,5.914h-7.734c-0.062,1.812,0.953,3.406,3.219,3.406    c1.391,0,2.375-0.68,2.672-2.023H123.791z M122.158,406.295c-0.086-1.617-1.297-2.922-2.984-2.922    c-1.781,0-2.836,1.344-2.953,2.922H122.158z"
         id="path43"
         fill="#BF2A1D" /><path
         d="M128.072,402.115h2.062v1.508h-2.062v6.406c0,0.781,0.219,0.914,1.281,0.914h0.781v1.508h-1.297    c-1.766,0-2.461-0.367-2.461-2.266v-6.562h-1.758v-1.508h1.758v-3.102h1.695V402.115z"
         id="path45"
         fill="#BF2A1D" /><path
         d="M141.173,412.412c-0.297,0.172-0.68,0.273-1.219,0.273c-0.883,0-1.438-0.469-1.438-1.594    c-0.938,1.102-2.203,1.594-3.641,1.594c-1.875,0-3.422-0.844-3.422-2.891c0-2.344,1.75-2.844,3.5-3.188    c1.883-0.352,3.484-0.234,3.484-1.508c0-1.477-1.227-1.727-2.305-1.727c-1.438,0-2.492,0.445-2.578,1.969h-1.695    c0.102-2.562,2.078-3.469,4.375-3.469c1.859,0,3.875,0.422,3.875,2.844v5.312c0,0.797,0,1.164,0.539,1.164    c0.141,0,0.305-0.023,0.523-0.102V412.412z M138.416,407.115c-0.656,0.469-1.938,0.492-3.078,0.695    c-1.117,0.203-2.078,0.594-2.078,1.867c0,1.109,0.961,1.516,2,1.516c2.242,0,3.156-1.398,3.156-2.336V407.115z"
         id="path47"
         fill="#BF2A1D" /><path
         d="M101.173,427.631h1.922v1.5h-1.922v3.32H99.58v-3.32h-6.219v-1.641l6.453-9.211h1.359V427.631z     M99.58,427.631v-6.938h-0.039l-4.727,6.938H99.58z"
         id="path49"
         fill="#BF2A1D" /><path
         d="M113.314,420.021h-5.719l-0.758,4.07l0.039,0.039c0.625-0.695,1.68-1.016,2.641-1.016    c2.516,0,4.578,1.617,4.578,4.859c0,2.391-1.664,4.719-4.961,4.719c-2.461,0-4.453-1.5-4.516-4.062h1.695    c0.102,1.453,1.281,2.562,2.984,2.562c1.617,0,2.992-1.109,2.992-3.359c0-1.875-1.297-3.219-3.195-3.219    c-1.078,0-1.977,0.539-2.641,1.344l-1.453-0.078l1.312-7.359h7V420.021z"
         id="path51"
         fill="#BF2A1D" /><path
         d="M116.705,430.232h2.211v2.023c0,1.492-0.656,2.695-2.195,3.133v-0.992    c0.898-0.305,1.195-1.305,1.156-1.945h-1.172V430.232z"
         id="path53"
         fill="#BF2A1D" /><path
         d="M126.158,418.279c4.438,0,4.711,4.07,4.711,7.219c0,3.117-0.273,7.195-4.711,7.195    s-4.719-4.078-4.719-7.195C121.439,422.35,121.72,418.279,126.158,418.279z M126.158,431.193c2.898,0,2.914-3.594,2.914-5.719    c0-2.094-0.016-5.703-2.914-5.703c-2.906,0-2.922,3.609-2.922,5.703C123.236,427.6,123.251,431.193,126.158,431.193z"
         id="path55"
         fill="#BF2A1D" /><path
         d="M137.275,418.279c4.445,0,4.719,4.07,4.719,7.219c0,3.117-0.273,7.195-4.719,7.195    c-4.438,0-4.711-4.078-4.711-7.195C132.564,422.35,132.837,418.279,137.275,418.279z M137.275,431.193    c2.906,0,2.922-3.594,2.922-5.719c0-2.094-0.016-5.703-2.922-5.703c-2.898,0-2.914,3.609-2.914,5.703    C134.361,427.6,134.376,431.193,137.275,431.193z"
         id="path57"
         fill="#BF2A1D" /><path
         d="M150.017,421.6c0,1.914-1.141,3.25-3.32,3.25c-2.117,0-3.359-1.359-3.359-3.25    c0-1.867,1.164-3.32,3.336-3.32C148.853,418.279,150.017,419.717,150.017,421.6z M144.697,421.6c0,1.188,0.562,2.258,2,2.258    c1.422,0,1.961-1.047,1.961-2.242c0-1.938-1.125-2.344-1.984-2.344C145.595,419.271,144.697,419.998,144.697,421.6z"
         id="path59"
         fill="#BF2A1D" /></g><polygon
       points="279.314,74.029 279.314,71.529 168.517,71.529 168.517,231.428 163.626,231.428 169.767,242.061    175.908,231.428 171.017,231.428 171.017,74.029  "
       id="polygon61"
       fill="#BF2A1D" /><polygon
       points="311.501,108.818 311.501,106.318 208.541,106.318 208.541,247.709 203.658,247.709    209.791,258.342 215.931,247.709 211.041,247.709 211.041,108.818  "
       id="polygon63"
       fill="#BF2A1D" /><polygon
       points="348.376,149.451 348.376,146.951 244.439,146.951 244.439,231.436 239.556,231.436    245.689,242.061 251.83,231.436 246.939,231.436 246.939,149.451  "
       id="polygon65"
       fill="#BF2A1D" /><g
       id="g67"><path
         d="M185.501,56.92c0.758,0.945,1.156,2.242,1.156,3.703c0,3.016-1.734,5.398-5.016,5.398    c-1.383,0-2.477-0.422-3.297-1.141l-1.203,1.336l-0.555-0.477l1.234-1.383c-0.797-0.977-1.195-2.273-1.195-3.734    c0-3.039,1.742-5.422,5.016-5.422c1.398,0,2.523,0.422,3.359,1.18l1.156-1.297l0.547,0.516L185.501,56.92z M183.861,57.646    c-0.578-0.625-1.359-0.945-2.219-0.945c-1.773,0-3.219,1.398-3.219,3.922c0,0.961,0.219,1.758,0.602,2.414L183.861,57.646z     M179.462,63.623c0.578,0.578,1.344,0.898,2.18,0.898c1.781,0,3.219-1.398,3.219-3.898c0-0.984-0.219-1.781-0.562-2.375    L179.462,63.623z"
         id="path69"
         fill="#BF2A1D" /><path
         d="M194.501,51.506h6.719c2.68,0,4.336,1.461,4.336,3.742c0,1.719-0.758,3.133-2.477,3.617v0.039    c1.656,0.32,2,1.539,2.141,2.938c0.117,1.398,0.039,2.953,0.844,3.938h-2.125c-0.539-0.578-0.242-2.117-0.516-3.516    c-0.203-1.398-0.539-2.586-2.383-2.586h-4.633v6.102h-1.906V51.506z M200.361,58.084c1.781,0,3.297-0.461,3.297-2.539    c0-1.398-0.758-2.438-2.539-2.438h-4.711v4.977H200.361z"
         id="path71"
         fill="#BF2A1D" /><path
         d="M213.759,65.779h-1.695V55.623h-3.68v-1.359c1.938,0,3.703-0.516,4.078-2.656h1.297V65.779z"
         id="path73"
         fill="#BF2A1D" /><path
         d="M231.564,62.365c0.117,1.375,1.234,2.156,2.602,2.156c2.07,0,3.094-1.82,3.195-5.484l-0.039-0.031    c-0.641,1.195-1.898,1.953-3.281,1.953c-2.875,0-4.477-1.938-4.477-4.734c0-2.742,1.922-4.617,4.656-4.617    c2.641,0,4.859,1.414,4.859,6.773c0,4.898-1.477,7.641-4.914,7.641c-2.383,0-4.078-1.227-4.297-3.656H231.564z M234.142,53.107    c-2.023,0-2.781,1.617-2.781,3.352c0,1.562,1.164,3,2.805,3c1.773,0,2.891-1.438,2.891-3.109    C237.056,54.607,236.041,53.107,234.142,53.107z"
         id="path75"
         fill="#BF2A1D" /><path
         d="M241.666,63.561h2.219v2.016c0,1.5-0.656,2.703-2.195,3.141v-1c0.898-0.297,1.203-1.297,1.156-1.938h-1.18    V63.561z"
         id="path77"
         fill="#BF2A1D" /><path
         d="M248.244,62.365c0.117,1.375,1.234,2.156,2.602,2.156c2.07,0,3.094-1.82,3.195-5.484l-0.039-0.031    c-0.641,1.195-1.898,1.953-3.281,1.953c-2.875,0-4.477-1.938-4.477-4.734c0-2.742,1.914-4.617,4.656-4.617    c2.641,0,4.859,1.414,4.859,6.773c0,4.898-1.477,7.641-4.914,7.641c-2.383,0-4.078-1.227-4.297-3.656H248.244z M250.822,53.107    c-2.023,0-2.773,1.617-2.773,3.352c0,1.562,1.156,3,2.797,3c1.773,0,2.891-1.438,2.891-3.109    C253.736,54.607,252.72,53.107,250.822,53.107z"
         id="path79"
         fill="#BF2A1D" /><path
         d="M264.962,55.225c-0.164-1.281-1.039-2.117-2.375-2.117c-2.898,0-3.359,3.195-3.438,5.375l0.039,0.039    c0.797-1.297,1.992-1.859,3.531-1.859c2.719,0,4.344,1.984,4.344,4.602c0,2.055-1.164,4.758-4.742,4.758    c-4.195,0-4.875-3.844-4.875-6.82c0-3.898,1.18-7.594,5.219-7.594c2.336,0,3.797,1.32,4,3.617H264.962z M259.462,61.357    c0,1.766,1.086,3.164,2.945,3.164c1.836,0,2.852-1.461,2.852-3.141c0-1.758-0.914-3.219-2.852-3.219    C260.501,58.162,259.462,59.584,259.462,61.357z"
         id="path81"
         fill="#BF2A1D" /></g><g
       id="g83"><path
         d="M224.845,93.615c0.766,0.938,1.156,2.234,1.156,3.695c0,3.023-1.734,5.398-5.016,5.398    c-1.375,0-2.477-0.422-3.297-1.141l-1.195,1.344l-0.562-0.484l1.242-1.383c-0.805-0.977-1.203-2.273-1.203-3.734    c0-3.039,1.742-5.414,5.016-5.414c1.398,0,2.523,0.414,3.359,1.18l1.156-1.305l0.547,0.523L224.845,93.615z M223.205,94.334    c-0.578-0.617-1.359-0.945-2.219-0.945c-1.773,0-3.219,1.406-3.219,3.922c0,0.961,0.227,1.758,0.602,2.422L223.205,94.334z     M218.814,100.311c0.57,0.578,1.336,0.898,2.172,0.898c1.781,0,3.219-1.398,3.219-3.898c0-0.977-0.219-1.781-0.562-2.375    L218.814,100.311z"
         id="path85"
         fill="#BF2A1D" /><path
         d="M233.853,88.193h9.852v1.602h-7.953v4.539h7.414v1.594h-7.414v4.938h8.016v1.602h-9.914V88.193z"
         id="path87"
         fill="#BF2A1D" /><path
         d="M251.626,102.467h-1.703V92.311h-3.672v-1.352c1.938,0,3.695-0.523,4.07-2.656h1.305V102.467z"
         id="path89"
         fill="#BF2A1D" /><path
         d="M272.212,88.303c3.094,0,4.297,1.812,4.297,3.609c0,1.258-0.805,2.422-1.961,2.938    c1.703,0.547,2.516,1.781,2.516,3.539c0,2.742-2.078,4.32-4.695,4.32c-2.719,0-4.82-1.422-4.82-4.32    c0-1.68,0.898-2.977,2.477-3.539c-1.172-0.477-1.977-1.656-1.977-2.938C268.048,89.576,270.025,88.303,272.212,88.303z     M272.369,101.209c1.695,0,2.898-1.18,2.898-2.758c0-1.539-1.32-2.703-2.922-2.703c-1.68,0-3,1.086-3,2.719    C269.345,100.17,270.611,101.209,272.369,101.209z M272.369,94.248c1.336,0,2.336-0.836,2.336-2.273c0-1.422-1-2.18-2.375-2.18    c-1.359,0-2.477,0.758-2.477,2.18C269.853,93.537,270.97,94.248,272.369,94.248z"
         id="path91"
         fill="#BF2A1D" /><path
         d="M279.533,100.256h2.211v2.016c0,1.5-0.656,2.695-2.195,3.141v-1.008c0.898-0.297,1.203-1.297,1.156-1.938    h-1.172V100.256z"
         id="path93"
         fill="#BF2A1D" /><path
         d="M293.603,89.998c-2.859,2.836-5.18,8.031-5.438,12.469h-1.898c0.32-4.789,2.625-9.172,5.602-12.336h-7.438    v-1.594h9.172V89.998z"
         id="path95"
         fill="#BF2A1D" /><path
         d="M297.236,99.053c0.117,1.375,1.234,2.156,2.594,2.156c2.078,0,3.094-1.812,3.203-5.477l-0.039-0.039    c-0.641,1.203-1.898,1.953-3.281,1.953c-2.883,0-4.477-1.938-4.477-4.734c0-2.734,1.914-4.609,4.656-4.609    c2.633,0,4.859,1.414,4.859,6.766c0,4.898-1.484,7.641-4.922,7.641c-2.375,0-4.078-1.219-4.297-3.656H297.236z M299.814,89.795    c-2.023,0-2.781,1.617-2.781,3.359c0,1.562,1.156,2.992,2.797,2.992c1.781,0,2.898-1.43,2.898-3.109    C302.728,91.295,301.712,89.795,299.814,89.795z"
         id="path97"
         fill="#BF2A1D" /></g><g
       id="g99"><path
         d="M258.525,134.311c0.766,0.945,1.164,2.242,1.164,3.703c0,3.016-1.742,5.391-5.016,5.391    c-1.383,0-2.484-0.414-3.305-1.133l-1.195,1.336l-0.562-0.477l1.242-1.383c-0.805-0.977-1.203-2.273-1.203-3.734    c0-3.039,1.742-5.422,5.023-5.422c1.391,0,2.516,0.422,3.359,1.18l1.156-1.297l0.539,0.516L258.525,134.311z M256.884,135.029    c-0.57-0.617-1.352-0.938-2.211-0.938c-1.781,0-3.219,1.398-3.219,3.922c0,0.953,0.219,1.758,0.602,2.414L256.884,135.029z     M252.494,141.006c0.578,0.586,1.336,0.898,2.18,0.898c1.773,0,3.219-1.391,3.219-3.891c0-0.984-0.227-1.789-0.562-2.383    L252.494,141.006z"
         id="path101"
         fill="#BF2A1D" /><path
         d="M267.533,128.896h6.258c2.836,0,4.375,1.578,4.375,4.219c0,2.633-1.539,4.234-4.375,4.219h-4.359v5.836    h-1.898V128.896z M269.431,135.732h3.719c2.141,0.016,3.117-0.922,3.117-2.617c0-1.703-0.977-2.617-3.117-2.617h-3.719V135.732z"
         id="path103"
         fill="#BF2A1D" /><path
         d="M286.048,143.17h-1.703v-10.156h-3.672v-1.359c1.938,0,3.703-0.516,4.078-2.656h1.297V143.17z"
         id="path105"
         fill="#BF2A1D" /><path
         d="M303.853,139.748c0.117,1.375,1.234,2.156,2.602,2.156c2.078,0,3.094-1.812,3.195-5.477l-0.039-0.039    c-0.641,1.203-1.898,1.961-3.281,1.961c-2.875,0-4.477-1.938-4.477-4.734c0-2.742,1.922-4.617,4.656-4.617    c2.641,0,4.859,1.414,4.859,6.773c0,4.898-1.477,7.633-4.914,7.633c-2.383,0-4.078-1.219-4.297-3.656H303.853z M306.431,130.498    c-2.023,0-2.773,1.617-2.773,3.352c0,1.562,1.156,3,2.797,3c1.773,0,2.891-1.438,2.891-3.117    C309.345,131.998,308.33,130.498,306.431,130.498z"
         id="path107"
         fill="#BF2A1D" /><path
         d="M313.955,140.951h2.219v2.016c0,1.5-0.664,2.703-2.203,3.141v-1c0.898-0.297,1.203-1.305,1.156-1.938    h-1.172V140.951z"
         id="path109"
         fill="#BF2A1D" /><path
         d="M320.533,139.748c0.117,1.375,1.234,2.156,2.602,2.156c2.078,0,3.094-1.812,3.195-5.477l-0.039-0.039    c-0.641,1.203-1.898,1.961-3.281,1.961c-2.875,0-4.477-1.938-4.477-4.734c0-2.742,1.922-4.617,4.656-4.617    c2.641,0,4.859,1.414,4.859,6.773c0,4.898-1.477,7.633-4.914,7.633c-2.383,0-4.078-1.219-4.297-3.656H320.533z M323.111,130.498    c-2.016,0-2.773,1.617-2.773,3.352c0,1.562,1.156,3,2.797,3c1.773,0,2.891-1.438,2.891-3.117    C326.025,131.998,325.009,130.498,323.111,130.498z"
         id="path111"
         fill="#BF2A1D" /><path
         d="M333.33,135.068c0.266,0.023,0.5,0.023,0.742,0.023c1.438,0,2.695-0.781,2.695-2.32    c0-1.477-1.078-2.273-2.516-2.273c-1.859,0-2.664,1.414-2.68,3.07h-1.703c0.102-2.695,1.539-4.57,4.383-4.57    c2.453,0,4.312,1.18,4.312,3.789c0,1.242-0.875,2.32-1.953,2.828v0.039c1.719,0.383,2.555,1.734,2.555,3.438    c0,2.836-2.219,4.312-4.875,4.312c-2.883,0-4.773-1.695-4.719-4.617h1.703c0.055,1.844,1.078,3.117,3.016,3.117    c1.656,0,3.078-1.016,3.078-2.734c0-1.781-1.344-2.719-3.023-2.719c-0.336,0-0.695,0.023-1.016,0.062V135.068z"
         id="path113"
         fill="#BF2A1D" /></g><polygon
       points="705.314,237.006 705.314,146.975 598.486,146.975 598.486,149.475 702.814,149.475    702.814,237.006 697.923,237.006 704.064,247.639 710.189,237.006  "
       id="polygon115"
       fill="#BF2A1D" /><g
       id="g117"><path
         d="M616.345,134.756c0.75,0.938,1.156,2.242,1.156,3.703c0,3.016-1.742,5.391-5.023,5.391    c-1.375,0-2.469-0.422-3.289-1.141l-1.203,1.344l-0.555-0.484l1.242-1.375c-0.805-0.977-1.203-2.281-1.203-3.734    c0-3.039,1.734-5.422,5.008-5.422c1.406,0,2.523,0.422,3.359,1.18l1.164-1.297l0.531,0.516L616.345,134.756z M614.705,135.475    c-0.586-0.617-1.367-0.938-2.227-0.938c-1.773,0-3.211,1.398-3.211,3.922c0,0.953,0.211,1.75,0.594,2.414L614.705,135.475z     M610.298,141.451c0.586,0.586,1.344,0.898,2.18,0.898c1.789,0,3.227-1.391,3.227-3.891c0-0.984-0.227-1.789-0.562-2.383    L610.298,141.451z"
         id="path119"
         fill="#BF2A1D" /><path
         d="M625.345,129.342h1.898v6.133h7.523v-6.133h1.891v14.273h-1.891v-6.539h-7.523v6.539h-1.898V129.342z"
         id="path121"
         fill="#BF2A1D" /><path
         d="M639.095,134.459c-0.133-2.875,1.562-5.016,4.562-5.016c2.484,0,4.438,1.438,4.438,4.078    c0,2.492-1.68,3.75-3.438,4.852c-1.781,1.078-3.633,1.984-3.977,3.742h7.273v1.5h-9.258c0.289-3.359,1.984-4.562,3.977-5.797    c2.406-1.484,3.625-2.359,3.625-4.32c0-1.539-1.242-2.555-2.734-2.555c-1.984,0-2.828,1.812-2.766,3.516H639.095z"
         id="path123"
         fill="#BF2A1D" /><path
         d="M663.142,140.193c0.125,1.375,1.242,2.156,2.594,2.156c2.086,0,3.109-1.812,3.203-5.477l-0.031-0.039    c-0.648,1.203-1.906,1.961-3.281,1.961c-2.883,0-4.477-1.945-4.477-4.742c0-2.734,1.914-4.609,4.656-4.609    c2.641,0,4.852,1.414,4.852,6.773c0,4.898-1.484,7.633-4.922,7.633c-2.367,0-4.07-1.219-4.297-3.656H663.142z M665.72,130.943    c-2.016,0-2.773,1.609-2.773,3.352c0,1.562,1.164,3,2.789,3c1.789,0,2.906-1.438,2.906-3.117    C668.642,132.443,667.626,130.943,665.72,130.943z"
         id="path125"
         fill="#BF2A1D" /><path
         d="M673.251,141.396h2.219v2.016c0,1.5-0.656,2.703-2.203,3.141v-1c0.898-0.297,1.203-1.305,1.164-1.938    h-1.18V141.396z"
         id="path127"
         fill="#BF2A1D" /><path
         d="M685.416,133.053c-0.156-1.281-1.031-2.109-2.367-2.109c-2.906,0-3.359,3.195-3.438,5.375l0.031,0.039    c0.805-1.305,2.008-1.859,3.539-1.859c2.727,0,4.336,1.977,4.336,4.594c0,2.055-1.156,4.758-4.734,4.758    c-4.203,0-4.875-3.836-4.875-6.812c0-3.898,1.18-7.594,5.219-7.594c2.344,0,3.797,1.312,3.992,3.609H685.416z M679.931,139.193    c0,1.766,1.07,3.156,2.93,3.156c1.844,0,2.859-1.461,2.859-3.141c0-1.758-0.922-3.219-2.859-3.219    C680.962,135.99,679.931,137.412,679.931,139.193z"
         id="path129"
         fill="#BF2A1D" /><path
         d="M697.666,131.178h-5.711l-0.766,4.078l0.039,0.039c0.617-0.695,1.68-1.023,2.633-1.023    c2.523,0,4.586,1.625,4.586,4.859c0,2.398-1.664,4.719-4.961,4.719c-2.461,0-4.453-1.5-4.516-4.055h1.703    c0.094,1.461,1.281,2.555,2.977,2.555c1.609,0,3-1.094,3-3.359c0-1.875-1.305-3.219-3.203-3.219c-1.078,0-1.984,0.547-2.641,1.344    l-1.453-0.078l1.32-7.359h6.992V131.178z"
         id="path131"
         fill="#BF2A1D" /></g><polygon
       points="775.861,190.678 719.119,247.756 715.673,244.303 712.486,256.154 724.345,252.975    720.884,249.514 776.744,193.146 878.376,193.146 878.376,190.646  "
       id="polygon133"
       fill="#BF2A1D" /><g
       id="g135"><path
         d="M788.798,177.467c0.75,0.938,1.148,2.242,1.148,3.695c0,3.023-1.734,5.398-5.016,5.398    c-1.383,0-2.477-0.422-3.289-1.141l-1.203,1.344l-0.562-0.484l1.242-1.383c-0.797-0.969-1.195-2.273-1.195-3.734    c0-3.031,1.734-5.414,5.008-5.414c1.406,0,2.516,0.414,3.359,1.18l1.164-1.297l0.531,0.516L788.798,177.467z M787.158,178.186    c-0.586-0.617-1.367-0.945-2.227-0.945c-1.781,0-3.211,1.406-3.211,3.922c0,0.961,0.211,1.758,0.594,2.422L787.158,178.186z     M782.751,184.162c0.586,0.578,1.336,0.898,2.18,0.898c1.789,0,3.219-1.398,3.219-3.898c0-0.977-0.227-1.781-0.555-2.375    L782.751,184.162z"
         id="path137"
         fill="#BF2A1D" /><path
         d="M808.47,184.545c-1.102,1.5-2.898,2.117-4.578,2.117c-4.258,0-6.797-3.484-6.797-7.195    c0-4.164,2.281-7.758,6.797-7.758c3.117,0,5.594,1.398,6.133,4.742h-1.891c-0.383-2.164-2.117-3.141-4.242-3.141    c-3.453,0-4.898,2.992-4.898,6.055c0,2.977,1.719,5.695,4.898,5.695c2.938,0,4.703-2.062,4.578-4.656h-4.555v-1.602h6.258v7.516    h-1.203L808.47,184.545z"
         id="path139"
         fill="#BF2A1D" /><path
         d="M818.533,186.318h-1.703v-10.156h-3.68v-1.352c1.945,0,3.703-0.523,4.086-2.656h1.297V186.318z"
         id="path141"
         fill="#BF2A1D" /><path
         d="M830.767,182.904c0.125,1.375,1.242,2.156,2.602,2.156c2.078,0,3.102-1.812,3.203-5.477l-0.039-0.039    c-0.648,1.203-1.906,1.961-3.281,1.961c-2.883,0-4.477-1.945-4.477-4.742c0-2.734,1.914-4.609,4.664-4.609    c2.633,0,4.852,1.414,4.852,6.773c0,4.891-1.484,7.633-4.922,7.633c-2.375,0-4.07-1.219-4.297-3.656H830.767z M833.345,173.646    c-2.008,0-2.773,1.617-2.773,3.359c0,1.562,1.164,3,2.797,3c1.789,0,2.898-1.438,2.898-3.117    C836.267,175.146,835.251,173.646,833.345,173.646z"
         id="path143"
         fill="#BF2A1D" /><path
         d="M840.876,184.107h2.219v2.016c0,1.5-0.656,2.695-2.203,3.141v-1.008c0.906-0.297,1.203-1.297,1.164-1.938    h-1.18V184.107z"
         id="path145"
         fill="#BF2A1D" /><path
         d="M850.33,172.154c4.438,0,4.719,4.07,4.719,7.211c0,3.117-0.281,7.195-4.719,7.195    s-4.719-4.078-4.719-7.195C845.611,176.225,845.892,172.154,850.33,172.154z M850.33,185.061c2.898,0,2.922-3.602,2.922-5.719    c0-2.102-0.023-5.695-2.922-5.695s-2.922,3.594-2.922,5.695C847.408,181.459,847.431,185.061,850.33,185.061z"
         id="path147"
         fill="#BF2A1D" /><path
         d="M860.251,178.225c0.266,0.023,0.5,0.023,0.742,0.023c1.438,0,2.695-0.781,2.695-2.32    c0-1.484-1.078-2.281-2.516-2.281c-1.859,0-2.656,1.422-2.68,3.078h-1.695c0.094-2.695,1.539-4.57,4.375-4.57    c2.453,0,4.32,1.172,4.32,3.789c0,1.242-0.883,2.32-1.961,2.828v0.031c1.719,0.383,2.562,1.742,2.562,3.438    c0,2.844-2.219,4.32-4.891,4.32c-2.867,0-4.773-1.695-4.711-4.617h1.695c0.07,1.836,1.086,3.117,3.016,3.117    c1.664,0,3.094-1.023,3.094-2.742c0-1.773-1.344-2.711-3.023-2.711c-0.336,0-0.703,0.023-1.023,0.055V178.225z"
         id="path149"
         fill="#BF2A1D" /></g><polygon
       points="162.509,806.209 160.009,806.209 160.009,520.475 162.509,520.475 162.509,806.209  "
       id="polygon151"
       fill="#BF2A1D" /><line
       x1="169.72"
       y1="529.537"
       x2="169.72"
       y2="629.014"
       id="line153"
       stroke-width="2.5"
       stroke="#BF2A1D"
       fill="none" /><polygon
       points="198.47,681.201 195.97,681.201 195.97,529.537 198.47,529.537 198.47,681.201  "
       id="polygon155"
       fill="#BF2A1D" /><polygon
       points="223.986,681.201 221.486,681.201 221.486,512.959 223.986,512.959 223.986,681.201  "
       id="polygon157"
       fill="#BF2A1D" /><polygon
       points="246.939,740.311 244.439,740.311 244.439,529.131 246.939,529.131 246.939,740.311  "
       id="polygon159"
       fill="#BF2A1D" /><polygon
       points="705.314,777.154 702.814,777.154 702.814,525.162 705.314,525.162 705.314,777.154  "
       id="polygon161"
       fill="#BF2A1D" /><polygon
       points="1004.08,806.209 1001.58,806.209 1001.58,388.389 1004.08,388.389 1004.08,806.209  "
       id="polygon163"
       fill="#BF2A1D" /><polygon
       points="703.47,771.021 692.837,764.889 692.837,769.771 171.9,769.771 171.9,764.881 161.259,771.021    171.9,777.154 171.9,772.271 692.837,772.271 692.837,777.154  "
       id="polygon165"
       fill="#BF2A1D" /><polygon
       points="347.056,727.646 256.33,727.646 256.33,722.756 247.853,727.646 159.095,727.646 150.626,722.764    150.626,727.646 123.994,727.646 123.994,730.146 150.626,730.146 150.626,735.029 159.095,730.146 247.861,730.146    256.33,735.029 256.33,730.146 347.056,730.146  "
       id="polygon167"
       fill="#BF2A1D" /><polygon
       points="347.056,665.537 233.361,665.537 233.361,660.646 224.892,665.537 195.048,665.537    186.587,660.654 186.587,665.537 149.267,665.537 149.267,668.037 186.587,668.037 186.587,672.92 195.048,668.037 224.9,668.037    233.361,672.92 233.361,668.037 347.056,668.037  "
       id="polygon169"
       fill="#BF2A1D" /><polygon
       points="265.751,640.967 207.845,640.967 207.845,636.084 199.384,640.967 159.095,640.967    150.626,636.084 150.626,640.967 72.064,640.967 72.064,643.467 150.626,643.467 150.626,648.35 159.095,643.467 199.384,643.467    207.845,648.357 207.845,643.467 265.751,643.467  "
       id="polygon171"
       fill="#BF2A1D" /><polygon
       points="245.689,578.021 180.392,578.021 180.392,573.131 171.931,578.021 159.08,578.021 150.626,573.154    150.626,578.021 72.064,578.021 72.064,580.521 150.626,580.521 150.626,585.42 159.111,580.521 171.931,580.521 180.392,585.42    180.392,580.521 245.689,580.521  "
       id="polygon173"
       fill="#BF2A1D" /><polygon
       points="1002.83,800.889 992.197,794.756 992.197,799.639 171.9,799.639 171.9,794.74 161.259,800.889    171.9,807.021 171.9,802.139 992.197,802.139 992.197,807.021  "
       id="polygon175"
       fill="#BF2A1D" /><g
       id="g177"><path
         d="M80.978,565.584h-1.734v-1.492h1.734v-1.547c0-1.68,1-2.555,2.859-2.555c0.32,0,0.781,0.055,1.102,0.164    v1.477c-0.305-0.102-0.656-0.141-0.961-0.141c-0.82,0-1.297,0.258-1.297,1.156v1.445h2v1.492h-2v8.836h-1.703V565.584z"
         id="path179"
         fill="#BF2A1D" /><path
         d="M101.595,560.256c4.445,0,4.719,4.07,4.719,7.211c0,3.117-0.273,7.195-4.719,7.195    c-4.438,0-4.711-4.078-4.711-7.195C96.884,564.326,97.158,560.256,101.595,560.256z M101.595,573.162    c2.906,0,2.922-3.594,2.922-5.711c0-2.102-0.016-5.703-2.922-5.703c-2.898,0-2.914,3.602-2.914,5.703    C98.681,569.568,98.697,573.162,101.595,573.162z"
         id="path181"
         fill="#BF2A1D" /><path
         d="M108.822,572.209h2.219v2.016c0,1.5-0.664,2.695-2.203,3.141v-1c0.898-0.305,1.195-1.297,1.164-1.945    h-1.18V572.209z"
         id="path183"
         fill="#BF2A1D" /><path
         d="M117.08,566.326c0.266,0.023,0.5,0.023,0.742,0.023c1.438,0,2.695-0.781,2.695-2.32    c0-1.484-1.078-2.281-2.516-2.281c-1.859,0-2.664,1.422-2.68,3.086h-1.703c0.102-2.703,1.539-4.578,4.383-4.578    c2.453,0,4.312,1.18,4.312,3.797c0,1.234-0.875,2.312-1.953,2.812v0.039c1.719,0.383,2.555,1.734,2.555,3.438    c0,2.836-2.219,4.32-4.875,4.32c-2.883,0-4.773-1.695-4.719-4.617h1.703c0.055,1.836,1.078,3.117,3.016,3.117    c1.656,0,3.078-1.016,3.078-2.734c0-1.789-1.344-2.727-3.023-2.727c-0.336,0-0.695,0.023-1.016,0.062V566.326z"
         id="path185"
         fill="#BF2A1D" /><path
         d="M129.4,560.256c4.438,0,4.711,4.07,4.711,7.211c0,3.117-0.273,7.195-4.711,7.195    c-4.445,0-4.719-4.078-4.719-7.195C124.681,564.326,124.955,560.256,129.4,560.256z M129.4,573.162    c2.898,0,2.914-3.594,2.914-5.711c0-2.102-0.016-5.703-2.914-5.703c-2.906,0-2.922,3.602-2.922,5.703    C126.478,569.568,126.494,573.162,129.4,573.162z"
         id="path187"
         fill="#BF2A1D" /></g><g
       id="g189"><path
         d="M80.853,623.146h6.719c2.672,0,4.336,1.453,4.336,3.727c0,1.719-0.758,3.148-2.477,3.625v0.039    c1.656,0.32,2,1.531,2.141,2.938c0.117,1.398,0.039,2.961,0.836,3.938h-2.117c-0.539-0.578-0.242-2.125-0.523-3.516    c-0.203-1.406-0.539-2.578-2.375-2.578h-4.641v6.094h-1.898V623.146z M86.712,629.717c1.773,0,3.297-0.461,3.297-2.539    c0-1.398-0.758-2.445-2.539-2.445h-4.719v4.984H86.712z"
         id="path191"
         fill="#BF2A1D" /><path
         d="M111.228,637.412h-1.695v-10.156h-3.68v-1.359c1.938,0,3.695-0.516,4.078-2.656h1.297V637.412z"
         id="path193"
         fill="#BF2A1D" /><path
         d="M116.892,635.193h2.219v2.023c0,1.492-0.664,2.695-2.203,3.133v-1c0.906-0.297,1.203-1.297,1.164-1.938    h-1.18V635.193z"
         id="path195"
         fill="#BF2A1D" /><path
         d="M121.673,628.256c-0.141-2.875,1.555-5.016,4.555-5.016c2.477,0,4.438,1.438,4.438,4.07    c0,2.5-1.68,3.758-3.438,4.867c-1.773,1.07-3.633,1.969-3.977,3.727h7.281v1.508h-9.258c0.281-3.359,1.977-4.562,3.977-5.805    c2.398-1.477,3.617-2.352,3.617-4.312c0-1.539-1.242-2.562-2.742-2.562c-1.977,0-2.812,1.828-2.758,3.523H121.673z"
         id="path197"
         fill="#BF2A1D" /><path
         d="M142.095,624.943c-2.867,2.828-5.188,8.031-5.445,12.469h-1.898c0.328-4.797,2.625-9.18,5.602-12.336    h-7.438v-1.602h9.18V624.943z"
         id="path199"
         fill="#BF2A1D" /></g><g
       id="g201"><path
         d="M286.681,658.256c-0.461,2.289-2.094,3.531-4.414,3.531c-3.297,0-4.859-2.289-4.961-5.438    c0-3.102,2.039-5.383,4.859-5.383c3.656,0,4.781,3.414,4.68,5.914h-7.734c-0.062,1.797,0.953,3.398,3.219,3.398    c1.391,0,2.375-0.68,2.672-2.023H286.681z M285.048,655.389c-0.086-1.617-1.297-2.922-2.984-2.922    c-1.781,0-2.836,1.336-2.953,2.922H285.048z"
         id="path203"
         fill="#BF2A1D" /><path
         d="M304.009,647.373c4.438,0,4.711,4.07,4.711,7.211c0,3.117-0.273,7.203-4.711,7.203    c-4.445,0-4.719-4.086-4.719-7.203C299.291,651.443,299.564,647.373,304.009,647.373z M304.009,660.279    c2.898,0,2.914-3.594,2.914-5.711c0-2.102-0.016-5.703-2.914-5.703c-2.906,0-2.922,3.602-2.922,5.703    C301.087,656.686,301.103,660.279,304.009,660.279z"
         id="path205"
         fill="#BF2A1D" /><path
         d="M311.228,659.326h2.219v2.023c0,1.492-0.664,2.688-2.195,3.133v-1c0.891-0.305,1.195-1.297,1.156-1.945    h-1.18V659.326z"
         id="path207"
         fill="#BF2A1D" /><path
         d="M317.814,658.123c0.109,1.375,1.234,2.156,2.594,2.156c2.078,0,3.094-1.812,3.195-5.477l-0.039-0.039    c-0.641,1.203-1.898,1.961-3.281,1.961c-2.875,0-4.477-1.938-4.477-4.734c0-2.742,1.922-4.617,4.664-4.617    c2.633,0,4.852,1.414,4.852,6.773c0,4.891-1.477,7.641-4.914,7.641c-2.375,0-4.078-1.219-4.297-3.664H317.814z M320.392,648.865    c-2.023,0-2.781,1.625-2.781,3.359c0,1.562,1.156,3,2.797,3c1.781,0,2.898-1.438,2.898-3.117    C323.306,650.365,322.291,648.865,320.392,648.865z"
         id="path209"
         fill="#BF2A1D" /><path
         d="M331.806,647.373c4.438,0,4.711,4.07,4.711,7.211c0,3.117-0.273,7.203-4.711,7.203    s-4.719-4.086-4.719-7.203C327.087,651.443,327.369,647.373,331.806,647.373z M331.806,660.279c2.898,0,2.914-3.594,2.914-5.711    c0-2.102-0.016-5.703-2.914-5.703s-2.922,3.602-2.922,5.703C328.884,656.686,328.908,660.279,331.806,660.279z"
         id="path211"
         fill="#BF2A1D" /></g><g
       id="g213"><path
         d="M277.611,709.811h9.859v1.594h-7.961v4.539h7.414v1.602h-7.414v4.93h8.016v1.609h-9.914V709.811z"
         id="path215"
         fill="#BF2A1D" /><path
         d="M300.267,714.928c-0.141-2.875,1.562-5.016,4.562-5.016c2.477,0,4.438,1.438,4.438,4.07    c0,2.5-1.68,3.758-3.438,4.867c-1.781,1.07-3.641,1.969-3.977,3.727h7.273v1.508h-9.258c0.289-3.359,1.984-4.562,3.984-5.805    c2.398-1.477,3.617-2.352,3.617-4.32c0-1.531-1.242-2.555-2.742-2.555c-1.977,0-2.82,1.828-2.758,3.523H300.267z"
         id="path217"
         fill="#BF2A1D" /><path
         d="M312.173,721.865h2.211v2.016c0,1.5-0.656,2.703-2.195,3.141v-1c0.898-0.297,1.195-1.297,1.156-1.938    h-1.172V721.865z"
         id="path219"
         fill="#BF2A1D" /><path
         d="M318.751,720.662c0.117,1.375,1.234,2.156,2.602,2.156c2.07,0,3.094-1.812,3.195-5.477l-0.039-0.039    c-0.641,1.203-1.898,1.961-3.281,1.961c-2.875,0-4.477-1.945-4.477-4.734c0-2.742,1.922-4.617,4.656-4.617    c2.641,0,4.859,1.414,4.859,6.773c0,4.898-1.477,7.641-4.914,7.641c-2.383,0-4.078-1.227-4.297-3.664H318.751z M321.33,711.404    c-2.023,0-2.781,1.617-2.781,3.359c0,1.562,1.164,3,2.805,3c1.773,0,2.891-1.438,2.891-3.117    C324.244,712.912,323.228,711.404,321.33,711.404z"
         id="path221"
         fill="#BF2A1D" /><path
         d="M332.65,709.912c3.094,0,4.297,1.812,4.297,3.609c0,1.266-0.805,2.422-1.961,2.938    c1.703,0.539,2.516,1.781,2.516,3.539c0,2.742-2.078,4.328-4.695,4.328c-2.719,0-4.812-1.43-4.812-4.328    c0-1.68,0.898-2.977,2.477-3.539c-1.18-0.477-1.984-1.656-1.984-2.938C328.486,711.193,330.47,709.912,332.65,709.912z     M332.806,722.818c1.695,0,2.898-1.18,2.898-2.75c0-1.547-1.32-2.703-2.922-2.703c-1.68,0-2.992,1.078-2.992,2.719    C329.791,721.787,331.048,722.818,332.806,722.818z M332.806,715.865c1.344,0,2.336-0.836,2.336-2.281    c0-1.422-0.992-2.18-2.375-2.18c-1.359,0-2.477,0.758-2.477,2.18C330.291,715.146,331.408,715.865,332.806,715.865z"
         id="path223"
         fill="#BF2A1D" /></g><g
       id="g225"><path
         d="M450.267,751.842h1.898v12.664h7.555v1.609h-9.453V751.842z"
         id="path227"
         fill="#BF2A1D" /><path
         d="M464.181,758.014c0.266,0.023,0.508,0.023,0.742,0.023c1.438,0,2.703-0.781,2.703-2.312    c0-1.484-1.086-2.289-2.523-2.289c-1.859,0-2.656,1.43-2.68,3.086h-1.695c0.102-2.703,1.539-4.578,4.375-4.578    c2.461,0,4.32,1.18,4.32,3.797c0,1.242-0.883,2.312-1.961,2.812v0.039c1.719,0.383,2.562,1.742,2.562,3.438    c0,2.844-2.227,4.328-4.883,4.328c-2.875,0-4.773-1.703-4.719-4.617h1.703c0.062,1.828,1.078,3.109,3.016,3.109    c1.664,0,3.078-1.016,3.078-2.734c0-1.781-1.336-2.719-3.016-2.719c-0.336,0-0.703,0.016-1.023,0.055V758.014z"
         id="path229"
         fill="#BF2A1D" /><path
         d="M489.189,766.115h-1.703v-10.156h-3.68V754.6c1.938,0,3.703-0.516,4.086-2.656h1.297V766.115z"
         id="path231"
         fill="#BF2A1D" /><path
         d="M495.869,762.693c0.125,1.375,1.242,2.156,2.594,2.156c2.086,0,3.109-1.812,3.203-5.477l-0.039-0.039    c-0.641,1.203-1.906,1.961-3.281,1.961c-2.875,0-4.469-1.945-4.469-4.734c0-2.742,1.914-4.617,4.656-4.617    c2.641,0,4.852,1.414,4.852,6.773c0,4.898-1.484,7.641-4.922,7.641c-2.367,0-4.07-1.227-4.297-3.664H495.869z M498.447,753.436    c-2.016,0-2.773,1.617-2.773,3.359c0,1.562,1.156,3,2.789,3c1.789,0,2.898-1.438,2.898-3.117    C501.361,754.943,500.345,753.436,498.447,753.436z"
         id="path233"
         fill="#BF2A1D" /><path
         d="M505.962,763.896h2.219v2.016c0,1.5-0.656,2.703-2.195,3.141v-1c0.898-0.297,1.203-1.297,1.156-1.938    h-1.18V763.896z"
         id="path235"
         fill="#BF2A1D" /><path
         d="M516.986,766.115h-1.695v-10.156h-3.68V754.6c1.938,0,3.703-0.516,4.078-2.656h1.297V766.115z"
         id="path237"
         fill="#BF2A1D" /><path
         d="M530.376,753.678h-5.711l-0.758,4.078l0.031,0.031c0.617-0.688,1.688-1.016,2.641-1.016    c2.516,0,4.578,1.625,4.578,4.867c0,2.391-1.656,4.719-4.961,4.719c-2.461,0-4.453-1.508-4.508-4.062h1.695    c0.102,1.453,1.281,2.555,2.977,2.555c1.617,0,3-1.102,3-3.359c0-1.875-1.297-3.211-3.203-3.211c-1.07,0-1.984,0.539-2.633,1.336    l-1.461-0.078l1.32-7.359h6.992V753.678z"
         id="path239"
         fill="#BF2A1D" /></g><g
       id="g241"><path
         d="M564.876,781.803h1.898v12.672h7.555v1.594h-9.453V781.803z"
         id="path243"
         fill="#BF2A1D" /><path
         d="M582.712,785.514c-0.156-1.273-1.039-2.117-2.375-2.117c-2.898,0-3.359,3.203-3.438,5.383l0.039,0.039    c0.805-1.297,2-1.859,3.539-1.859c2.727,0,4.336,1.977,4.336,4.594c0,2.062-1.156,4.766-4.734,4.766    c-4.203,0-4.875-3.844-4.875-6.82c0-3.906,1.18-7.594,5.211-7.594c2.336,0,3.805,1.32,3.992,3.609H582.712z M577.22,791.662    c0,1.75,1.078,3.148,2.938,3.148c1.844,0,2.859-1.453,2.859-3.133c0-1.758-0.922-3.219-2.859-3.219    C578.259,788.459,577.22,789.873,577.22,791.662z"
         id="path245"
         fill="#BF2A1D" /><path
         d="M597.556,786.92c-0.133-2.883,1.562-5.016,4.562-5.016c2.477,0,4.43,1.43,4.43,4.07    c0,2.5-1.68,3.758-3.438,4.859c-1.773,1.078-3.633,1.977-3.969,3.734h7.273v1.5h-9.258c0.281-3.359,1.984-4.555,3.969-5.797    c2.406-1.477,3.625-2.352,3.625-4.312c0-1.539-1.234-2.562-2.734-2.562c-1.984,0-2.82,1.828-2.766,3.523H597.556z"
         id="path247"
         fill="#BF2A1D" /><path
         d="M610.478,792.654c0.125,1.375,1.242,2.156,2.594,2.156c2.086,0,3.109-1.812,3.203-5.477l-0.039-0.039    c-0.641,1.203-1.906,1.961-3.281,1.961c-2.875,0-4.469-1.938-4.469-4.734c0-2.742,1.914-4.617,4.656-4.617    c2.641,0,4.852,1.414,4.852,6.773c0,4.891-1.484,7.641-4.922,7.641c-2.367,0-4.07-1.219-4.297-3.664H610.478z M613.056,783.396    c-2.016,0-2.773,1.625-2.773,3.359c0,1.562,1.156,3,2.789,3c1.789,0,2.898-1.438,2.898-3.117    C615.97,784.896,614.955,783.396,613.056,783.396z"
         id="path249"
         fill="#BF2A1D" /><path
         d="M620.572,793.857h2.219v2.023c0,1.492-0.656,2.688-2.195,3.133v-1c0.898-0.305,1.203-1.297,1.156-1.945    h-1.18V793.857z"
         id="path251"
         fill="#BF2A1D" /><path
         d="M632.751,785.514c-0.156-1.273-1.031-2.117-2.375-2.117c-2.898,0-3.359,3.203-3.438,5.383l0.039,0.039    c0.805-1.297,2.008-1.859,3.539-1.859c2.719,0,4.336,1.977,4.336,4.594c0,2.062-1.156,4.766-4.742,4.766    c-4.195,0-4.867-3.844-4.867-6.82c0-3.906,1.18-7.594,5.211-7.594c2.336,0,3.797,1.32,4,3.609H632.751z M627.267,791.662    c0,1.75,1.07,3.148,2.922,3.148s2.867-1.453,2.867-3.133c0-1.758-0.922-3.219-2.867-3.219    C628.298,788.459,627.267,789.873,627.267,791.662z"
         id="path253"
         fill="#BF2A1D" /><path
         d="M638.267,792.654c0.125,1.375,1.242,2.156,2.602,2.156c2.078,0,3.102-1.812,3.203-5.477l-0.039-0.039    c-0.648,1.203-1.906,1.961-3.281,1.961c-2.883,0-4.477-1.938-4.477-4.734c0-2.742,1.914-4.617,4.664-4.617    c2.633,0,4.852,1.414,4.852,6.773c0,4.891-1.484,7.641-4.922,7.641c-2.375,0-4.07-1.219-4.297-3.664H638.267z M640.845,783.396    c-2.008,0-2.773,1.625-2.773,3.359c0,1.562,1.164,3,2.797,3c1.789,0,2.898-1.438,2.898-3.117    C643.767,784.896,642.751,783.396,640.845,783.396z"
         id="path255"
         fill="#BF2A1D" /></g></g><g
     id="Bullet"><path
       d="M1005.33,388.381c0-71.594-133.797-129.867-298.766-130.453v-8.789l-461.656-4.008l-22.969,16.164H199.72   v-16.578h-30.984l-9.977,9.914v266.828l9.922,10.578h31.039v-16.578h22.219l22.969,16.172l461.656-3.984v-8.812   C871.533,518.248,1005.33,459.967,1005.33,388.381z M163.759,519.49V256.709l3.461-3.445V523.17L163.759,519.49z M194.72,527.037   h-22.453v-277.32h22.453v11.578v254.164V527.037z M199.72,266.295h20.516v244.164H199.72V266.295z M225.236,511.662v-246.57   l17.953-12.641v271.867L225.236,511.662z M701.564,522.686l-453.375,3.922V250.162l453.375,3.938v3.797v260.969V522.686z    M706.564,513.865V262.904c162.211,0.57,293.766,56.641,293.766,125.477S868.775,513.287,706.564,513.865z"
       id="path258"
       fill="#212120" /></g></svg>